<?xml version="1.0" standalone="no"?>
<!DOCTYPE svg PUBLIC "-//W3C//DTD SVG 1.1//EN" "http://www.w3.org/Graphics/SVG/1.1/DTD/svg11.dtd" >
<svg xmlns="http://www.w3.org/2000/svg">
<metadata></metadata>
<defs>
<font id="wc_mano_negra_btabold" horiz-adv-x="449" >
<font-face units-per-em="1000" ascent="800" descent="-200" />
<missing-glyph horiz-adv-x="299" />
<glyph horiz-adv-x="1000" />
<glyph horiz-adv-x="1000" />
<glyph unicode="&#xd;" horiz-adv-x="1000" />
<glyph unicode=" "  horiz-adv-x="299" />
<glyph unicode="&#x09;" horiz-adv-x="299" />
<glyph unicode="&#xa0;" horiz-adv-x="299" />
<glyph unicode="!" horiz-adv-x="333" d="M35 55q0 4 5.5 18.5t5.5 16.5v4q5 19 15 21q2 0 14.5 11t21.5 11q4 0 13.5 -5t14.5 -5q2 0 5 3.5t7 3.5q7 0 23 -10t22 -20q1 -1 10 -7t16.5 -16t7.5 -22l-2 -7q0 -2 3 -11.5t3 -15.5q0 -34 -35 -44l-9 -7q-9 -7 -19 -7q-26 0 -51.5 14t-36.5 39v-9l-9 14q0 1 -12.5 8.5 t-12.5 21.5zM120 252q0 16 2 33.5t4 30t5.5 32t5.5 31.5q4 22 10 46.5t11.5 42.5t16 46t16 41.5t19 46t17.5 42.5l11 31q5 16 23 24.5t33 8.5q29 0 54 -32q3 -11 3 -20q-3 -48 -34 -128l-22 -55l-10 -11v-1q0 -1 -12 -23.5t-24.5 -49.5t-12.5 -40v-7q0 -14 -27 -56 q-5 -9 -7.5 -37.5t-11.5 -48.5t-32 -22q-13 0 -21.5 6.5t-11.5 19t-4 22.5t-1 27zM209 43q2 1 3 3l1 1l-1 2z" />
<glyph unicode="&#x22;" horiz-adv-x="265" d="M51 367q0 10 5 37t14 61t27 59.5t40 25.5q13 0 27 -11t14 -25q0 -6 -5 -18.5t-6 -15.5q-6 -17 -14.5 -46.5t-13.5 -43.5q-18 -49 -18 -55q0 -1 3 -3.5t3 -4.5t-9 -17l3 3q-2 -7 -15.5 -13t-22.5 -6q-32 0 -32 73zM157 341q0 61 20 115q1 3 5 18t7.5 24t10 21t16 18 t21.5 6q29 0 42 -37q0 -35 -28 -91l-3 -7q-4 -6 -9 -16t-10.5 -20.5t-9 -20.5t-3.5 -15l1 -6q0 -5 -1 -13t-7.5 -19t-17.5 -11q-34 0 -34 54z" />
<glyph unicode="#" horiz-adv-x="888" d="M154 327v23l3 4q6 21 17.5 34.5t30.5 20t37 10t45 6.5q7 1 11 1q6 0 30 9t33 9q2 0 9.5 15t16.5 35t10 23q15 42 37 81q4 7 11 17t25.5 27t32.5 17q19 0 19 -25v-3q-18 -70 -23 -103l-1 -4q-8 -20 -11 -60q6 3 15.5 3.5t14.5 3.5t8 16q2 6 9.5 21.5t8.5 17.5l12 32 q2 2 3.5 6.5t3.5 11.5t3 11q1 2 5.5 15t7 19.5l7.5 19.5t9.5 20.5t10 15.5t12 12t12.5 4q20 0 39.5 -22.5t19.5 -50.5q0 -21 -6 -36l-2 -2q-1 0 -3.5 -9t-10.5 -28t-20 -36l-8 4q1 -1 4 -3l3 -3q-5 -6 -10 -17q0 -3 19 -6t29 -3q8 0 33.5 4t47.5 4q40 0 54 -50q2 -6 2 -10 q0 -21 -28 -21l-15 1q-18 1 -82.5 -8.5t-91.5 -11.5q-2 -5 -9 -18.5t-8 -17.5l-14 -26l-3 -14q4 -1 29 -1h13q10 0 39.5 3.5t47.5 2.5q16 0 31.5 -4.5t17.5 -4.5l17 -9q33 -18 33 -39q0 -6 -3 -10.5t-6 -6t-4 -1.5q-26 -10 -94.5 -17t-115 -20t-46.5 -43q0 -15 6 -34t7 -22 l3 -12q9 -18 9 -34q0 -21 -40 -21t-63.5 25.5t-23.5 64.5l1 12v2q0 2 -2.5 10.5t-3.5 8.5q-6 -2 -24.5 -4t-27.5 -7.5t-9 -19.5l5 -20l-1 -8q4 -3 4 -11q0 -5 -3 -11l-6 -8t-3.5 -5t-1.5 -4t-1 -5v-9q0 -29 -19 -39l-11 7l-1 -4l-1 -2q-2 1 -4 1l-9 -4l-11 7l-1 -3 q-23 12 -23 33q0 6 1.5 14t1.5 11q0 7 -6 22.5t-5 23.5q-1 0 -5.5 -1t-7.5 -1l-9 2l-23 -2q-26 0 -43.5 13.5t-17.5 40.5q0 32 41 54t101 30l3 38q0 4 10 23q-6 3 -15 3q-67 0 -105 -9l-27 3zM401 274q15 3 19 3l13 -2q26 0 26 8v15q0 8 9.5 22.5t9.5 22.5q-1 1 -1 2 q0 13 5 23v1q-5 -2 -56 -9h-1q-11 -11 -16 -32q-2 -10 -2 -20v-9z" />
<glyph unicode="$" horiz-adv-x="432" d="M41 0q0 27 23.5 47.5t52.5 20.5q15 0 30.5 -4t33 -10t29.5 -9q0 11 2 45.5t2 53.5q0 3 -2 5q-113 67 -119 159q0 18 4.5 37.5t13 45.5t11.5 40q1 7 5 12t9.5 10t8.5 10q4 10 10 18.5t15.5 16.5t16 13t20 13.5t18.5 12.5q8 5 8 38l-3 64q0 42 36 42q50 0 50 -70l-1 -37 q39 12 70 12q52 0 72.5 -21.5t27.5 -63.5q0 -3 0.5 -6t1 -5t0.5 -3q0 -17 -10 -28.5t-26 -11.5l-6 1q0 -4 -14 -4q-8 0 -15 1h-1h3q-9 2 -25 5.5t-29 6t-25 2.5q-16 0 -20.5 -2.5t-4.5 -11.5q0 -37 -8 -109t-8 -105q0 -3 1 -4q34 -25 45.5 -34t36 -33t34 -48.5t9.5 -55.5 t-11.5 -52.5t-38.5 -48.5q-8 -8 -29.5 -13.5t-38 -9.5t-16.5 -8l1 -12q0 -4 -1 -10.5t-1.5 -11.5t-0.5 -10q0 -9 2 -25q0 -19 -11.5 -31.5t-28.5 -12.5q-16 0 -30.5 13t-14.5 30q0 7 1.5 20.5t1.5 32.5q0 30 -11 30q-25 0 -60.5 10t-50.5 23q-3 3 -15.5 6t-21 8.5t-8.5 15.5 zM198 333q0 -29 21 -48q3 34 5 106q-26 -34 -26 -58zM290 31q5 3 9.5 8t9 11t7.5 9h-2q4 1 4 3q0 3 -3 6.5t-7.5 7l-4.5 3.5q-10 4 -13 7v-55zM404 447q1 -1 3 -1q1 0 4 -0.5t4 -0.5z" />
<glyph unicode="%" horiz-adv-x="541" d="M34 396q0 54 37 94q23 24 54 44.5t51 20.5h6q37 -8 54 -26.5t22 -41.5t8 -27l-2 1q-2 1 -3 1q0 -1 5.5 -6t5.5 -9v-11q0 -4 1.5 -12.5t1.5 -14.5q0 -9 -6 -23.5t-6 -19.5v-7q0 -12 -19 -33l-16 -10q-16 -10 -41 -19.5t-46 -9.5q-8 0 -33 9q-19 5 -37.5 21t-24.5 34v-1v-2 q-12 24 -12 48zM46 348q1 0 1 -1zM94 -90l3 27q13 83 46.5 160.5t89.5 181.5q27 52 96 138q71 89 124 124q10 7 19 7q7 0 12.5 -6t5.5 -15q0 -3 -2 -13l1 -5q0 -5 -2 -10t-6 -10.5t-7.5 -9.5t-9.5 -11t-8 -9q-30 -35 -76.5 -104t-55.5 -81q-2 -3 -7.5 -11t-16 -22t-19.5 -28 q-78 -110 -117 -230q-1 -2 -4 -20.5t-7 -34t-15.5 -29.5t-28.5 -14q-15 0 -15 25zM135 373q4 -2 9 -2q12 0 20.5 5t13 11t7.5 17.5t4 18.5t2 21t1 17q-3 0 -7.5 -5.5t-10.5 -14t-10.5 -17t-9.5 -17t-7 -11.5zM240 59q2 14 12.5 41t10.5 36q0 1 -2.5 6t-2.5 7q0 5 2.5 9 t11 12l8.5 8q1 1 18 17t32.5 28.5t40 24.5t46.5 12q10 0 35.5 -19t29.5 -31q1 -1 5.5 -7t8 -15t3.5 -22q0 -11 -3.5 -16t-3.5 -7q1 0 2 1q-1 -1 -1 -3q-1 -1 -1 -2q0 -8 7 -17q0 -21 -9 -49t-25 -44q-7 -14 -19.5 -25t-20.5 -16t-22.5 -11t-16.5 -7q-2 -2 -8 -4.5t-13.5 -5 t-16.5 -4t-16 -1.5q-15 0 -26.5 4t-20 10t-19.5 17l1 -1q-27 32 -27 74zM267 -15v-1v1zM320 30q1 -1 4 -1q13 0 30 12q32 26 44.5 48t14.5 53q0 22 -6 26v-2q0 -5 -4 -10t-9 -10.5t-7 -8.5q-2 -1 -7.5 -10t-13 -20t-13.5 -15l5 -4l-16 -7q2 -2 2 -3q0 -6 -4 -10 q-1 0 -5 -8.5t-8.5 -18t-6.5 -11.5z" />
<glyph unicode="&#x26;" horiz-adv-x="528" d="M6 138q0 15 5 28t17.5 27t20 21t27 22.5t22.5 18.5q10 9 22 16.5t31 18t25 14.5q-36 0 -36 38q0 4 1 9t1 7q0 5 -7 24q-6 24 -6 62q0 29 11.5 44t49.5 30q4 2 12.5 4.5t16 5t16.5 6t16 6t12.5 6.5t8.5 7q34 44 74 81.5t69 46.5q25 9 34 9q25 0 45 -30.5t20 -63.5l-1 -15 l2 -15q0 -7 -5 -20t-5 -15q0 -11 11.5 -26t11.5 -33q0 -23 -42 -37q-16 -4 -37 -15.5t-31 -14.5q-13 -5 -33.5 -28t-20.5 -43q0 -2 19 -11.5t19 -20.5q0 -6 -4.5 -20.5t-5.5 -16.5q-1 -3 -8.5 -9t-7.5 -15l6 -11q0 -3 -2 -7.5t-2 -5.5q0 -6 5 -18q3 1 25.5 3.5t34.5 7.5 q3 -1 9 -1q3 -1 12 -1h1q9 -1 22.5 -5t23.5 -6.5t16 -2.5q12 1 37 1l6 -24q0 -7 -49 -32.5t-90 -42.5q-3 -1 -9.5 -3.5t-8.5 -4t-4 -6.5t-2 -13q0 -9 20 -47t20 -58q0 -8 -3 -17q0 1 1.5 3t1.5 4q0 -21 -24 -35.5t-47 -14.5q-26 5 -46 39q-5 10 -16 35.5t-19.5 44.5t-9.5 19 q-2 0 -46.5 -17.5t-74.5 -17.5q-84 0 -103 63l-20 7q-35 17 -35 61zM100 115q0 -8 15 -11t15 -4l18 -4q6 1 33 4q6 1 12.5 2.5t12 3.5t12 5.5t11.5 6t12.5 6t11.5 5.5q1 0 1 4q0 24 -11.5 56.5t-12.5 45.5q-9 -5 -19.5 -12.5t-18 -13.5t-18.5 -15t-17 -14q-4 -3 -16.5 -13.5 t-19.5 -17t-14 -16.5t-7 -18zM100 123l1 2q-1 -1 -1 -2zM165 8q2 0 3 1zM224 420q0 -7 17 -22.5t20 -15.5q6 0 23 17t30 33q16 14 24 32q-17 0 -44 -7t-48.5 -18t-21.5 -19zM396 285q1 1 5 10q-5 -5 -5 -10zM463 209q1 0 2 -1l1 1h-3z" />
<glyph unicode="'" horiz-adv-x="150" d="M51 349q0 49 24.5 118t62.5 69q24 0 39 -34v-13q0 -47 -24 -108q-34 -86 -73 -86q-13 1 -20 10.5t-8 18.5t-1 25z" />
<glyph unicode="(" horiz-adv-x="400" d="M97 192q0 69 22.5 158t62.5 166q58 112 100 159q48 56 78 56q43 0 54 -32v-6q0 -24 -20 -55q-19 -31 -65 -129q-54 -113 -65 -150q-4 -13 -16.5 -45.5t-20 -62.5t-7.5 -59v-55l2 -21l-1 -13l6 -30v-8q0 -6 1 -7q27 -74 63 -119q3 -4 9.5 -11.5t10 -12.5t7 -12.5 t3.5 -14.5q0 -39 -45 -39q-10 0 -38 20q-69 50 -105 136.5t-36 186.5z" />
<glyph unicode=")" horiz-adv-x="376" d="M10 -94q0 14 6 32q9 30 27 62.5t30 49.5t40 55q42 58 65.5 132t23.5 143q0 17 -2 34t-7 38t-8 31.5t-11 36.5t-10 32q-4 13 -14.5 38t-17 46.5t-6.5 39.5q0 16 13.5 31.5t31.5 15.5q10 0 19.5 -3t18 -10t15.5 -13t15.5 -18.5t13 -19.5t12.5 -23t11 -22.5t11 -24t10 -21.5 q44 -132 44 -219l1 -18q0 -5 -1.5 -24.5t-6.5 -49t-12 -41.5l1 -4q0 -8 -7 -16.5t-7 -13.5l1 -9q0 -11 -7.5 -25t-20 -30t-16.5 -24q-27 -49 -38 -60q-1 -1 -5.5 -3.5t-9.5 -9.5q-26 -36 -64 -65q-22 -14 -58 -44t-57 -44q-11 0 -17.5 7t-6.5 16v15z" />
<glyph unicode="*" horiz-adv-x="389" d="M11 575q-3 15 9 22.5t40 7.5h56l-27 27q-15 23 -1.5 39t36.5 16q12 0 20 -4l10 -12q17 -2 59 -18q23 30 24 36q10 23 21 31q8 5 46 17h15q-3 -23 -22 -58q-18 -35 -23 -56q9 3 46 34q32 26 48 26q21 0 21 -20q0 -9 -34 -46q2 -1 11 -3t17.5 -4.5t17.5 -6t14.5 -7.5 t5.5 -8q0 -33 -86 -33l-61 2q0 -23 34 -51q21 -18 21 -36q0 -11 -10 -27q-34 1 -58 24q-30 28 -50 36q-20 -32 -61 -84q-38 24 -36 36q0 3 8 21l11 21q-71 -38 -94 -38q-20 0 -9 26q8 23 46 35q43 14 60 31q-7 3 -70 8q-53 5 -55 16z" />
<glyph unicode="+" horiz-adv-x="475" d="M10 299q0 24 12 41t33.5 25.5t40 12.5t44 6.5t32.5 3.5q11 1 11 29q0 21 -1 39t-1 27q0 46 11 69q12 24 37 46.5t45 22.5q11 0 35.5 -21t24.5 -36q0 -6 -10 -33q-1 -3 -7.5 -17t-8 -18t-5.5 -15.5t-5.5 -18.5t-3 -17t-1.5 -20q0 -3 3 -51q82 16 111 16q20 0 33.5 -11 t13.5 -31q0 -30 -19.5 -49.5t-46.5 -19.5l-45 2q-79 0 -79 -92v-25q0 -107 -65 -107q-33 0 -53.5 21t-20.5 54l17 102q0 14 -17 14l-62 -7q-26 0 -39.5 16.5t-13.5 41.5z" />
<glyph unicode="," horiz-adv-x="220" d="M-77 -166q0 4 7 11q14 21 31.5 44t40 50.5t34.5 43.5q-21 0 -35 12.5t-14 38.5q0 29 21 55.5t51 26.5q16 0 70 -20q14 -5 25 -17t14.5 -19.5t11.5 -27.5q1 -3 1 -12q0 -17 -8 -41.5t-19 -33.5q-13 -10 -31.5 -29t-31.5 -27q-11 -13 -25 -24.5t-21.5 -16.5t-26.5 -16 t-23 -13q-29 -21 -38 -21q-15 0 -24.5 9.5t-9.5 26.5z" />
<glyph unicode="-" horiz-adv-x="415" d="M26 185q0 5 1 6q8 16 19 24.5t17 10.5t25.5 3.5t24.5 2.5q111 16 222 16q31 0 47 -10q8 -10 8 -17q0 -5 -4 -9t-11 -7.5t-10 -5.5q1 1 -1 0l-2 -2q-52 -48 -96 -49h-4l-1 1q-2 0 -3 -1q-52 -27 -98 -27h-19q-12 0 -17 -1l-36 4q-3 0 -11 -1.5t-13 -1.5q-13 0 -25 16 t-12 29v6z" />
<glyph unicode="." horiz-adv-x="220" d="M-14 56q0 6 6.5 19t6.5 16l-1 2v4t9 17l7 6q7 6 17.5 12.5t18.5 6.5l27 -10q2 0 5 3.5t9 3.5q2 0 5.5 -3.5t8.5 -5.5q6 -4 11.5 -7.5t7.5 -4.5t4 -2.5t3.5 -3.5l4.5 -6q2 -4 11 -9.5t15.5 -14t6.5 -22.5q0 -2 -1 -3v-2l4 -12l1 -6q0 -4 -2 -14q1 -1 1 -3l-3 -4 q-3 -4 -8.5 -11.5t-12.5 -14.5t-17.5 -12t-20.5 -5q-57 0 -90 44q-3 4 -12 12t-15.5 15.5t-6.5 14.5z" />
<glyph unicode="/" horiz-adv-x="409" d="M5 -76q0 4 9 55q11 67 31 131t57.5 141.5t56 112.5t69.5 129q10 18 24 39t24 35t28 38t26 35q48 66 86 66q24 0 40 -28l1 -22q0 -21 -19 -54q-23 -41 -91 -157t-104 -182q-30 -53 -35 -73q-2 -4 -7 -9t-6 -8q-11 -22 -29.5 -63.5t-24.5 -54.5q-2 -4 -7.5 -9t-7.5 -8 q-1 -4 -7.5 -22t-10.5 -28t-11.5 -28t-14 -29.5t-14.5 -23t-16 -17.5t-16 -6q-31 0 -31 40z" />
<glyph unicode="0" horiz-adv-x="562" d="M21 166q3 12 3 45q0 8 6 35t6 33q1 6 5 22t6 22t7 20.5t13 31t21 40.5l6 11q2 4 7.5 14t8 15t6.5 15t6 21l7 9q3 2 16.5 14t23.5 20l1 1q51 29 67.5 32t38.5 13v1q42 19 47 19l28 1q4 -1 7.5 -3t6 -3.5t7.5 -3.5l10 -4q4 -2 8.5 -5.5t9.5 -6.5t9 -6l24 -29q3 -8 12.5 -22 t11.5 -17h-1q0 -1 2 -3.5l4 -5t4 -6t3 -5.5v-4q0 -7 18 -33l12 -27q3 -7 6 -17.5t8 -27t10 -32.5q6 -19 6 -78q0 -12 -3 -38l-4 -33q-1 -2 -8.5 -29t-18.5 -48l-3 -9l-8 -10q-9 -11 -13 -22l-24 -33l-23 -23q-31 -25 -68 -49h-1q-27 -15 -72 -27l-13 -1q-14 -2 -15 -2l-2 -1 q-23 0 -25.5 0.5t-38.5 8.5l-2 1q-44 15 -94 52q-4 4 -8 9t-8.5 11.5t-8.5 10.5l-28 48q-5 5 -19 88zM139 166q0 -33 3 -42q-3 -1 8 -14q17 -19 35 -13q16 0 20 -4l12 4l2 1q3 0 6 0.5t4.5 1t2.5 0.5l7 -1q13 6 23.5 14t16.5 11.5t13 3.5q21 0 61.5 52t49.5 108q8 33 8 63 q0 3 -17 22l-1 2h1h-1v1v-1q-16 10 -51 23h-1q-11 1 -26 1q-17 0 -25 -12q-8 -8 -18 -13t-19 -13q-27 -18 -40.5 -31t-17.5 -20.5t-6 -9.5q-14 -7 -36 -55q-14 -30 -14 -79zM393 375z" />
<glyph unicode="1" horiz-adv-x="367" d="M11 403q0 23 19 45t39 36l50 42q13 10 46.5 38t60.5 49.5t60.5 40t56.5 18.5q10 0 16 -1h6l9 -3l1 -1q22 -7 29 -27l4 -3l13 -20l5 -24l-1 -10l2 -5v-15l-5 -26l-16 -40l-12 -22l-4 -4l-1 -10l-5 -4l-20 -40l-11 -10q-1 -2 -2.5 -5.5t-2 -5.5t-2.5 -4.5t-5 -5.5l-3 -7 v-13l-9 -23l-6 -7l-3 -10l-17 -32l-13 -37l-1 -9l-6 -36l-9 -30l-3 -27l-5 -6l2 -7l-3 -3v-11l-15 -45l-3 -17l-6 -9v-9q-5 -6 -6 -16l1 -5l-12 -38l1 -2q-1 -7 -5 -14v-5l-16 -38l-4 -3l-9 -17l-7 -20l-7 -13l-12 -8l-2 1q-5 -5 -12 -5l-10 -9l-16 -3q-3 -1 -11 -1h-2 q-12 1 -19.5 10.5t-7.5 21.5l1 8q45 301 101 525q-28 -28 -84 -41h-1q-40 -9 -51 -10h-3q-37 6 -37 37z" />
<glyph unicode="2" horiz-adv-x="725" d="M56 68q0 25 20 63l9 9l21 26q5 5 190 192q6 7 19 22t25.5 29t28.5 34t29 39q5 7 9 15l6 12t3 5q0 4 -1.5 6t-4.5 3.5t-4 3.5q-24 0 -34 -1h-1q-2 0 -10 -1.5t-14 -3.5l-6 -2q-16 -5 -57.5 -24t-69.5 -30q-22 0 -30 3.5t-32 23.5l-4 8q0 3 -2 11v1l-1 10q6 21 42 46 t70 40.5t69 28.5l5 1q5 0 27 7t32 7h59q7 -1 15 -3t18.5 -5l17.5 -5q18 -12 32 -22l2 -2.5t5 -7.5t6 -10.5t5 -13.5t2 -16q0 -25 -3 -43q1 -3 1 -9q0 -39 -23 -114l-2 -4q-1 -2 -41 -56q-3 -3 -6.5 -6t-6.5 -5.5t-6.5 -6t-7 -8t-6.5 -9.5q-5 -4 -10.5 -9.5t-14 -15 t-16.5 -17.5q-5 -3 -54 -52q-19 -14 -49 -44l-1 -3l-10 -10q-12 -10 -27 -27q2 1 6 1h1q10 0 30 5q6 0 16.5 2t21.5 3.5t21 1.5l5 1q9 0 69 5h2q11 0 20 1l34 -2q1 0 3 0.5l2 0.5l38 1q3 -1 11 -3q34 8 68 8q47 0 69 -22q10 -6 16 -13t19 -27l-4 -14l-10 -10q-2 1 -5.5 3 t-5.5 3l-1 -16q-5 0 -8 -1h-24q0 -4 -87 -12h-7l-7 -4l-59 -12q-77 -10 -181 -35h-2q-19 -3 -74 -14q-4 -1 -27.5 -6.5t-43.5 -9.5t-27 -4q-5 0 -17 2q-7 -2 -34.5 5.5t-27.5 25.5l-6 10q0 1 -5 33v7q-2 14 -2 26z" />
<glyph unicode="3" horiz-adv-x="475" d="M-51 -62l3 4l-1 4l3 11l19 25l7 5l24 9q17 12 52 32t39 23l121 48l80 47l6 16l-7 20l-41 15h-34l-24 5l-25 13l-21 13l-5 20l18 40l12 9l6 9l17 20l70 57l31 35l10 16l-12 6l-27 -4l-22 -11l-60 -17l-41 -8l-8 1l-36 14l-11 9l-5 9l-3 15l3 20l4 7l25 27l102 50l71 17h46 l35 -7l27 -12l21 -19q26 -38 32 -47l2 -7l4 -50v-12l-8 -22l-6 -7l-12 -8l-28 -28l-15 -6v-3l-8 -5l-5 -6l-19 -14l-7 -7l63 -15l7 -4l40 -38l4 -7l12 -42l-1 -11l-6 -13l-3 -23v-23l-9 -17l-13 -12l-13 -14l-7 -11l-10 -6l-6 -3l-7 -9l-2 2l-2 -7l-27 -14l-8 -6l-10 -1 l-4 -3l-18 -6l-7 -8l-9 -4l-21 -3l-48 -20l-25 -9l-10 -8l-14 -2l-6 -1l-129 -52l-13 -1l-17 -8h-11l-6 2l-14 6l-13 -8l-14 -1l-15 7z" />
<glyph unicode="4" horiz-adv-x="590" d="M6 223v24l15 48l33 90q5 14 19 50t20 53t15 44t15 51l8 10q-3 -5 10 6l15 14l14 6l12 -1l8 -4l6 -6l8 -14l2 -9l-5 -27q-25 -35 -33 -76v-2q-52 -110 -52 -164v-31q0 -14 3 -21q12 1 20.5 2.5t13.5 3t14.5 3t21.5 3.5q2 14 16 69t17 68h1l38 127q9 23 19 50.5t9 27.5l7 9 l31 19l14 2l10 -4l11 -10l4 -7l11 -38l-2 -14q-2 -16 -2 -22l2 -2l5 -14l-6 -32l-17 -65q-4 -15 -12 -43l-20 -70h2q1 0 1 1l3 1q21 0 41 13q40 13 45 13q0 1 1 1t2.5 1t2.5 1l3 1q98 23 99 23l1 1l116 23h10l12 -6l4 -5l3 -11l-1 -7l-9 -21l-6 -7l-10 -6q-4 -4 -1 -7 l-10 -14q-44 -16 -49 -18l-50 -19l-3.5 -1.5t-7.5 -3.5t-5 -3l-1 -1q-39 -17 -53 -22l-8 -7q-15 -6 -67.5 -26t-94.5 -40l-11 -8l-2 -1v-2q0 -1 1 -1l2 -13l-11 -33l-8 -9l-1 -1q-7 -1 -5 -7q-6 -23 -22 -83l-16 -61q-24 -62 -24 -74q-3 -6 -8 -16.5t-6 -13.5q-3 -3 -13 -33 l-9 -17l-10 -8l-22 12q2 28 -9 28v47q0 1 1 9.5t3 23t3.5 31t4 35t3.5 33.5v1q3 16 11 58.5t9 52.5l-10 -2l-8 1q-8 4 -47 7l-36 14l-12 7l-16 14l-16 18l-3 9z" />
<glyph unicode="5" horiz-adv-x="513" d="M53 21q0 5 1 6l-1 6l1 3v2q-1 1 -1 3q0 6 4 13l25 1l2 -2q13 10 33 20.5t27 16.5h1q31 20 99 81q1 1 5 4t5.5 4.5l5.5 5.5t6 7.5t4 8t3 10.5t1 13q0 4 -4 8q-14 8 -24 12t-13.5 4.5t-9.5 -0.5t-9 -1l-29 1q-7 0 -16 1t-12 1h-5l-3 -1h-2l-5 -1q-32 0 -50 15l-11 9 q-26 38 -26 53q0 20 26 69q4 4 8 11.5t10 20t12 22.5l8 14l-1 14l2 5v3q-1 7 -1 21l34 68q-8 11 -8 22l4 11q14 13 39 13l6 -1q3 1 16 1l33 -7l26 -2l41 1q1 -1 5 -1q2 1 14 1l5 1q8 0 15 -1l66 5l23 2h8q6 0 21.5 3.5t16.5 3.5q4 -1 15.5 -6t20.5 -8.5t12 -3.5l2 -1 q0 -1 2 -3t5 -5.5t4 -6.5l4 -13l-1 -12l-15 -23q-6 -3 -21.5 -13.5t-27.5 -16.5l-6 -5q0 -4 -14 -22l-9 -4q-35 -5 -95 -5q-17 0 -24 1l-10 1q-5 1 -35 6q-5 -4 -16 -15q-5 -2 -43 -31q-20 -50 -44 -82q4 -5 22 -10t38 -5l53 -17q31 -10 76 -46q14 -19 33 -51l2 -7l1 -9 q11 -24 11 -43l-5 -18l-12 -29l-15 -27q-3 -3 -15 -19q-22 -15 -57 -42q-16 -13 -26 -20l-16 -7q-15 -11 -44 -24t-42 -13l-6 -2q-48 0 -105 36h-1q-14 10 -16 12z" />
<glyph unicode="6" horiz-adv-x="434" d="M16 94q0 69 43 160q3 6 17.5 33.5t19 36t17.5 31.5t20.5 34.5t19 30t23 33.5t23.5 30q9 11 28 33t30 35t28.5 30.5t33.5 31.5l44 36q41 32 60 32q20 0 30 -12.5t10 -30.5l-1 -10q0 -4 -22.5 -41.5t-33.5 -50.5v2q-4 -10 -4 -11q-5 -2 -12.5 -18.5t-16.5 -18.5 q-14 -3 -47.5 -49t-58.5 -87q13 -2 56 -22q28 -10 38 -47q1 -6 9 -16t8 -22l-6 7q20 -42 20 -69q0 -2 -1.5 -4t-1.5 -3v-10q0 -6 -1 -8v-16q0 -12 -5 -15l1 -8q-9 -27 -9 -35q0 -10 -10.5 -19t-12.5 -13q-6 -12 -15 -20t-12 -14l-60 -53q-7 -7 -23.5 -13t-20.5 -10 q-38 -19 -75 -20q-67 0 -98.5 49t-31.5 121zM147 56q0 -25 10 -25q9 0 40 24.5t37 36.5l11 21l9 38q-1 4 -1 23.5t-1.5 31.5t-10.5 23.5t-25 11.5q-7 0 -25 -6q-29 -47 -29 -73q0 -6 -6 -20t-6 -23l1 -8z" />
<glyph unicode="7" horiz-adv-x="477" d="M10 561q0 19 39 45q30 12 48 23l3 1q19 5 41.5 12.5l39 13t55.5 15.5t96 23q13 4 38 4q45 0 90 -45l7 -12q0 -27 3 -47t3 -33q0 -17 -1 -28q1 -3 1 -26q-5 -20 -7 -27q-1 -5 -3 -11t-3 -9.5t-1 -4.5v-4q-1 -6 -5 -16t-6 -18v-1l-19 -50q-1 -2 -2.5 -4t-2.5 -4.5t-2 -5.5 t-2 -5.5t-2 -6t-2 -5.5q-12 -21 -13 -23q0 -17 16 -17q12 0 19.5 -3t9.5 -4.5t4.5 -9.5t2.5 -9q0 -2 1 -6.5t2 -8t1.5 -8.5t0.5 -9q0 -16 -19 -40t-39 -26q-1 0 -23 -9t-33 -9q-2 0 -5.5 1.5t-6.5 1.5q-7 0 -34 -9q-3 -6 -8.5 -18t-9 -21.5l-3.5 -9.5q-8 -27 -33 -81 q0 -1 -1.5 -3.5t-4 -7t-3.5 -8.5q-3 -4 -5 -11l-4 -10q-1 2 -2 -2q-5 -13 -5 -21q-1 -2 -5.5 -10t-7 -12.5t-8.5 -11.5t-11.5 -11t-14.5 -7t-20 -3l-14 9q-3 9 -3 14q0 2 1 6.5t0 6.5v2q1 4 3.5 15t3.5 18l3 14q11 40 31 96q-2 2 -2 4q0 5 11.5 26.5t11.5 28.5q0 8 -10 8 q-7 0 -18.5 -4.5t-20.5 -8.5t-10 -4q-7 -1 -19 11q-14 5 -14 74q0 15 9 22q2 2 3.5 2.5l3 1t3.5 1t6.5 2t11 3.5t18 6t25.5 10h1q49 17 73 23q48 104 64.5 151.5t20.5 90.5l2 36v2l1 3q-5 -1 -22 -5l-15 -3h-3q-23 0 -116 -25h-3q-2 0 -6 -0.5t-8 -1.5l-8 -2l-16 -4 q-5 -1 -18 -2.5t-20 -3.5h-3q-10 0 -35.5 -5t-33.5 -5q-10 0 -21.5 17t-11.5 32z" />
<glyph unicode="8" horiz-adv-x="496" d="M14 -7l3 14v16l7 32l28 72l21 48l39 70l-26 28l-22 32l-10 28v21l11 31l13 21l47 51l67 56l90 55l39 20l45 14h7l22 -5l20 -14l21 -36v-14l12 3l58 7l31 6h19l15 -15v-3l9 -9v-4l-11 -15l-8 -2l-6 -6l13 -15v-4l-11 -14l-41 -12l-42 -16l-8 -7l-20 -8l-44 -25l-42 -27 l-14 -15l-20 -15l-12 -13l-20 -12l-1 -7l-7 -7l-11 -26l49 -37l53 -50l40 -58l10 -22l5 -18l2 -26l-2 -16l-7 -11l-28 -27l-62 -41l-50 -24l-51 -15l-127 -12l-18 5h-14l-10 3l-10 9l-14 6l-7 7l-19 39zM162 74l4 -14l15 -3h14l9 3h23l79 13l4 3l-31 35q-57 49 -74 62 l-18 -31l-2 -13l-6 -9l-1 -8l-12 -22v-5zM166 350q0 -5 5.5 -14t13.5 -9q1 0 35 37q98 113 136 113q4 0 4 1v2q0 3 4 5.5t13 5.5t14 6v2q0 3 -4 3l-7 -1q-4 0 -9.5 0.5t-7.5 0.5q-4 0 -10.5 -2t-9.5 -2q-25 -5 -101 -64t-76 -84z" />
<glyph unicode="9" horiz-adv-x="496" d="M28 397v21l10 38l12 19q26 42 60.5 76t64.5 52t56.5 30t42.5 15l15 4q33 9 60 9q15 0 25 -0.5t20.5 -3.5t15.5 -4t16 -8t15.5 -10t19.5 -14.5t23 -17.5l2 -1q20 -23 20 -53q0 -20 -5.5 -46t-11.5 -42.5t-9 -21.5l-4 -11q-8 -22 -10 -24q-4 -12 -9 -22.5t-8.5 -15.5 l-7 -10t-3.5 -6l-8 -18q-2 -3 -34.5 -81t-49.5 -106l-1 -5q-18 -33 -34 -53q-28 -51 -46 -75q-3 -3 -8 -7.5t-7 -6.5l-1 -2q0 -4 -8 -15l-1 -7l-15 -15l-4.5 -4.5l-3.5 -3.5l-3 -3t-3 -2.5t-2.5 -1.5t-3.5 -1.5t-5 -1.5q-21 0 -26 20v1l-1 5q0 19 17 36l34 68l17 38 q25 71 46 114q12 21 12 28l2 3q-23 -16 -46 -16l-5 -1l-45 -5h-50q-15 5 -18 5l-5 1l-20 9l-10 6q-22 10 -58 72q-16 32 -16 72zM143 368q17 -27 39 -27l5 1l5 -1q8 0 17 -2h1q10 -3 16 -3q66 0 96 42l26 40q4 14 8.5 35t7.5 29q3 9 3 43q0 9 -7.5 14.5t-17.5 6.5l-65 -20 q-12 -12 -33 -15q-14 -9 -54 -47q-13 -17 -34 -68q-3 -6 -5.5 -12.5t-4 -10t-3.5 -5.5z" />
<glyph unicode=":" horiz-adv-x="225" d="M31 43q0 2 3 16l2 13l3 5l3 4l-2 9l10 19h3l4 7l8 10l8 6l18 2l14 -9l3 5l8 2l9 -10l15 -9v-2h3l9 -8l6 -15h2l9 -8l1 -4l9 -13l2 -12l-2 -5l2 -7l3 -14v-5l-3 -30l-6 -11l-10 -8l-11 -4l-4 -8l-15 -8l-13 2l-8 1l-19 9l-24 20l-6 8l-6 10l-1 -1l-5 6l-3 11l-13 9z M61 293l1 8l3 8l1 13l3 5l3 4l-2 9l10 19h3l4 7l8 10l8 6l18 2l14 -9l3 5l8 2l9 -10l15 -9v-2h3l9 -8l6 -15h2l9 -8l1 -4l9 -13l2 -12l-2 -5l5 -21v-5l-3 -30l-6 -11l-10 -8l-11 -4l-4 -8l-15 -8l-13 2l-8 1l-19 9l-24 20l-6 8l-6 10l-1 -1l-5 6l-3 11l-13 9z" />
<glyph unicode=";" horiz-adv-x="199" d="M-81 -128q0 14 6 27l5 13l56 79q0 1 13 21q-12 12 -12 33v3q2 10 3 17v2q4 8 4 13q1 1 6.5 14t9.5 19q1 1 3 3.5t4 4t5 4t5.5 4.5t6 3t6.5 1q18 0 21 -2l9 -2.5t15.5 -5t16.5 -10.5t17 -19q9 -13 14 -31q0 -33 -17 -67l-30 -40q-13 -11 -23 -25q-2 -2 -6 -7t-8.5 -9.5 t-8.5 -7.5q-7 -5 -7 -6q-42 -34 -50 -41q-9 -6 -19 -11l-18 3l-8 8q-15 0 -19 12zM5 293l1 8l3 8l1 13l3 5l3 4l-2 9l10 19h3l4 7l8 10l8 6l18 2l14 -9l3 5l8 2l9 -10l15 -9v-2h3l9 -8l6 -15h2l9 -8l1 -4l9 -13l2 -12l-2 -5l5 -21v-5l-3 -30l-6 -11l-10 -8l-11 -4l-4 -8 l-15 -8l-13 2l-8 1l-19 9l-24 20l-6 8l-6 10l-1 -1l-5 6l-3 11l-13 9z" />
<glyph unicode="&#x3c;" horiz-adv-x="443" d="M88 318l5 8q0 22 6 28q15 19 47 27h3q5 0 10 -1l5 -1q1 0 3 1l4 2t5 2l6 2l25 4q13 3 63 25l10 2l4 5q22 13 44 22h14l24 21q3 1 7 1q8 8 13 8l3 1l11 6h9h5t3.5 0.5l1.5 0.5q1 0 2 -1q3 -3 11 -8q15 -30 17 -42l3 -20l-1 -6v-6q1 -8 -2 -15t-10.5 -13t-15.5 -10.5 t-20.5 -9t-22 -7.5t-22.5 -7t-20 -6l-5 -1h-1q-13 -10 -20 -10h-11q-4 -1 -4 -2l-14 -2l-17 -15l16 -18q7 -8 35.5 -34t40.5 -45q17 -26 17 -48q0 -15 -7 -33.5t-19 -22.5l-1 -1q-1 0 -3 -0.5t-3 -0.5v11l-11 -8q0 1 -2 2.5t-2 6.5l-13 12q-3 4 -9 9.5t-12 11.5t-10 12 l-28 29q-26 31 -48.5 49.5t-53.5 24.5l-6 4q0 -2 -7 -2q-2 0 -5.5 1.5t-6.5 3l-3 1.5q-10 5 -30 25z" />
<glyph unicode="=" horiz-adv-x="554" d="M47 296q0 20 11 25l3 8l6 7l23 12q3 1 13 1q33 16 77 16q8 0 25.5 -0.5t26.5 -0.5l148 2l25 4q6 0 9 -1l23 3l5 -5h11q31 -16 31 -56q0 -33 -14 -47l-12 -5q-30 2 -43 2h-3q-9 4 -11 6q-1 0 -3 -1.5t-4.5 -2.5t-5.5 -1l-7 2q-2 0 -4 2l-2 1h-1q-16 6 -39 6l-43 4l-33 -4 q-21 0 -70.5 -10.5t-72.5 -10.5h-1q-25 0 -46 11t-21 32zM55 133v3q4 15 15 25.5t21.5 15t27.5 8.5q3 0 12.5 3.5t15.5 3.5h1q13 -4 18 -17l64 4l60 -9q2 0 9.5 0.5t11.5 0.5q11 0 28.5 -1.5t24.5 -1.5q8 2 15 2q8 2 23.5 5.5t19.5 4.5l26 2q22 4 37 4q18 0 25 -7 q10 -7 16.5 -16.5t7.5 -15.5l1 -6l1 -20h-1l1 -7q-8 -29 -57 -34q-14 0 -14 4l-6 -3l-12 -3l-41 4h-22l-17 -2q-4 0 -19.5 1t-24.5 0l-16 -1l-65 7h-98q-4 0 -13 1.5t-12 1.5h-3l-2 -1h-1q-1 0 -5 -0.5t-6 -0.5q-10 0 -22 4q-25 8 -25 41z" />
<glyph unicode="&#x3e;" horiz-adv-x="421" d="M84 440l9 9q15 30 40 30q5 0 11 -1t7 -1l1.5 0.5t3.5 1.5t4.5 2t6 2.5t6.5 2.5l6 2t6 1q1 0 4 -1q14 -3 21 -8t20 -25l2 -5t2 -10q0 -32 82 -64l8 -1l11 1q6 -3 8 -3l-1 -1q1 0 6.5 -2.5t6.5 -2.5l6 -3l3 -4l15 -4l3 -3q4 0 8.5 -2t7 -3.5t6 -5l4.5 -4.5q0 -1 4.5 -2 t9.5 -3.5t7 -8.5q4 -4 4 -11q0 2 -1 -1q-1 -1 -1 -3q-15 -40 -37 -62v-1q0 -1 -5.5 -12.5t-12.5 -19.5h-1q-13 -12 -49.5 -39t-50.5 -45l-4 -14q-2 -1 -4 -3l-8 -14q-1 -11 -13.5 -23t-25.5 -17l-1 2l-12 -4l-2 1l-7 1q-7 4 -9 4q-1 0 -9 6q-3 3 -5 4v1q-18 18 -18 49 q0 10 1 15l5 9l1 9q2 6 5.5 9.5t7.5 6.5l4 3q12 19 49.5 49.5t51.5 52.5l3 8l-1 -1v-1q-11 11 -23 20t-20.5 14t-24.5 14t-25 14l-39 21q-6 3 -8 3q-59 30 -59 58q0 1 1 3v1q-2 6 -2 9z" />
<glyph unicode="?" horiz-adv-x="481" d="M11 14q1 3 10.5 17t17.5 29q6 5 12 8q3 4 9 8.5t10 8.5q14 12 23 12q10 0 20.5 -4t21.5 -4l1 3v1q1 0 5 -3t6 -3l12 -8q6 -8 11 -23l2 -2q1 -1 1 -4l2 -2l4 -18v-3q0 -20 -24 -60q-5 -4 -18.5 -13t-25.5 -19q-10 -5 -25 -5h-6q-13 2 -27 12l-16 16l-10 15v1q-1 1 -3 5 l-1 8q-2 1 -5 5.5t-5 5.5zM71 522q0 19 30 57t67 54l1 1q4 2 18 8t19 8t17 7t18.5 7t17.5 5.5t19 5t18.5 2.5t20.5 1q55 0 101.5 -39.5t50.5 -94.5v-1q0 -9 -4 -25.5t-4 -24.5q-5 -10 -5 -15q-3 -5 -6.5 -10.5t-7 -9.5t-9 -10.5t-9.5 -12.5q-3 -4 -14 -13.5t-18 -18.5 q-10 -10 -28.5 -29.5t-26.5 -27.5q-105 -82 -134 -143q-11 -23 -35.5 -44.5t-49.5 -21.5t-25 39q0 4 1 7v3q59 116 101 168l1 1q6 7 27 30t32 36t23.5 31t15.5 29q0 7 -1 13.5t-3 11.5l-1 4l-11 6l-1 2l-1 2l2 2l-1 1q-5 0 -5 -1q-2 0 -13 7q0 4 -12 4q-22 0 -61.5 -26 t-63.5 -28h-1q-13 0 -31.5 16t-18.5 27z" />
<glyph unicode="@" horiz-adv-x="592" d="M4 88q0 23 2 36l1 1q96 310 314 340h12q4 2 43 2h8l5 -6l2 4q56 0 106 -35t71 -92v-1q10 -30 10 -59q3 -4 3 -11q0 -2 -0.5 -5l-0.5 -3v-3q0 -35 -34 -111q-26 -57 -80 -93q-4 -2 -20.5 -18t-32.5 -18l-24 6l-31 -5q15 -7 15 -29h-15l12 -8q-4 -4 -18 -29.5t-33 -42.5 t-46 -17l-1 1q-4 0 -6 1l-2 -2l-8 3l-2.5 -1t-3.5 -2q-3 0 -53.5 14t-70.5 14q-2 -2 -5 -2q-1 0 -2.5 0.5l-1.5 0.5h-1q-5 3 -22 10q-90 34 -90 160zM100 98q0 -55 35 -81t104 -26q43 0 89 23q-42 -7 -56 -7q-8 0 -12 0.5t-34 0.5t-50.5 14t-29 36t-12 39t-3.5 33 q0 42 27.5 88t75.5 78t99 32q36 0 69 -17.5t33 -53.5q0 -23 -17.5 -66.5t-17.5 -52.5q0 -5 6 -5q13 0 22.5 3t16 8t14.5 14q15 23 17 56l-2 7q0 6 2 8l-4 22q0 3 0.5 8.5t0.5 7.5l-1 16q2 10 2 12q0 9 -9.5 22t-21 23t-18.5 13v1l-1 -1q-33 14 -65 14q-67 0 -125.5 -36 t-92.5 -97l-14 -20q0 -1 -2.5 -9t-6.5 -20.5t-8 -27t-7 -30.5t-3 -29zM116 -83l1 -1h1q0 1 -2 2v-1zM221 146q19 -41 32 -41q7 0 39 8q3 0 7.5 5t9.5 16t8.5 18.5t9 21.5t6.5 15q12 24 17 39q0 3 -3.5 6t-8.5 5.5t-6 3.5q-22 0 -47 -10t-44.5 -30t-19.5 -45q0 -2 0.5 -4 t0.5 -3q0 -4 -1 -5z" />
<glyph unicode="A" horiz-adv-x="411" d="M-4 -25q0 19 6 41t18.5 54t14.5 37q0 1 8.5 20.5t8.5 28.5l-2 19q0 5 1.5 10.5t5 13.5t4.5 11q3 7 9 14t11 14.5t8 15.5q13 42 50.5 115.5t50.5 107.5q55 147 100 147q28 0 55.5 -16t38.5 -40q3 -7 4.5 -15.5t3 -17.5t3.5 -15q2 -5 2 -20q0 -119 -17 -179 q-4 -13 -5.5 -36.5t-5.5 -34.5l2 2q-3 -9 -3 -20q0 -4 4.5 -12t4.5 -14q-1 -6 -5.5 -17.5t-5.5 -15.5v-6q0 -4 1 -5l-4 -24q2 -14 2 -23q0 -5 -2 -19q3 3 3 8l8 -96q0 -6 -1.5 -18t-1.5 -20q1 -2 1 -9q0 -8 -8.5 -20.5t-9.5 -18.5l-6 -15q-7 -15 -18 -15q-28 0 -53 187 q-2 1 -1.5 14.5t-8 25t-32.5 11.5q-7 0 -79 -9q-5 -1 -10.5 -18t-12.5 -41.5t-13 -36.5q-28 -111 -75 -111q-20 0 -34.5 19.5t-14.5 41.5zM196 245q31 0 77 2q10 87 10 110l-4 103q-4 -10 -26.5 -62.5t-36.5 -89t-20 -63.5z" />
<glyph unicode="B" horiz-adv-x="462" d="M23 0q0 33 12.5 99.5t12.5 101.5q0 6 3.5 20.5t3.5 22.5q0 7 8 39q4 18 9 55t6 40q0 1 -10 18.5t-10 34.5q0 2 11 21q2 3 2.5 8.5t3.5 8.5q16 21 44 45q89 75 200 75q77 0 118 -31.5t45 -80.5q-1 -3 -1 -11v-13q0 -17 -12 -33q-6 -18 -19.5 -30t-15.5 -15 q-8 -12 -42.5 -42t-49.5 -47q39 0 70.5 -26.5t31.5 -62.5q0 -30 -37 -75l-18 -22q-10 -11 -28 -24.5t-33 -28.5q1 3 3 7l-11.5 -11.5l-11 -11t-9.5 -8.5t-11 -8t-11 -4q-4 -2 -11 -3t-11.5 -2t-6.5 -3q-45 -30 -61 -30q-2 0 -5 1h-4q-2 0 -9.5 -4.5t-14.5 -4.5l-9 3h-1 q0 1 1 2q-4 0 -7 -4t-5 -4h-5q-23 -17 -41 -17q-11 0 -14 12l-5 -1q-16 0 -30.5 12.5t-14.5 31.5zM114 9q11 4 41 29t46 34q11 6 30.5 23t29.5 24l27 22q5 2 12.5 11t13.5 11q8 3 28 23q-18 3 -37 3q-17 0 -46 -5.5t-42 -5.5h-5q-13 0 -22 -4t-13 -8t-18 -20 q-11 -11 -25 -53t-20 -84zM219 325q86 29 156 104q1 1 1 2q-8 3 -15 3q-14 0 -43 -8q-24 -6 -59.5 -24t-35.5 -34l2 -21q0 -8 -6 -22z" />
<glyph unicode="C" horiz-adv-x="382" d="M0 78v39l4 12l-1 8l2 8l2 18l7 17l8 26l34 73l8 10l2 7l12 18l1 0.5t2 1.5q5 11 10.5 20t14 19.5t10.5 13.5q11 15 51 66l6 4l2 5l28 34l14 11l30 34l6 2l3 5l15 10l7 8l12 6l2 -1q1 0 1 1l24 11l55 9h12l17 -5l14 -7l9 -7q0 -1 0.5 -1.5l0.5 -0.5h2v-1q11 -5 21 -10 l1 -2q7 -9 14 -19l13 -24l-1 -6l2 -9l6 -41l-10 -6v-9l-2 -1l1 -3l-26 -13l-4 5l-5 -2l-12 7h-5q-6 -2 -12 -2h-7l-10 3l-6 5l-2 5l-1 -1q-1 3 -5 7l-1 -2l-6 -1q-11 -7 -20 -9l-13 -10l-16 -11q-6 -4 -15 -15t-14 -15l-17 -15l-22 -29l-14 -31l-21 -36l-8 -8l-9 -26 l-11 -19l-11 -26l-21 -62l-6 -33v-23l4 -16l8 -11l14 -8l17 -2h25l60 11l15 -6l3 -4l-2 -2l4 -1l2 -12l2 2l2 -4l-3 -5l3 -8l-10 -20l-41 -19h-4l-29 -12l-78 -7l-41 9l-32 15l-28 20l-19 22l-20 40z" />
<glyph unicode="D" horiz-adv-x="496" d="M6 -4q0 9 3.5 19.5t10.5 23.5t9 18q0 39 6 83.5t17 100.5t15 84l9 36q3 19 16 63t15 70q6 49 30 57q9 3 28.5 19t35.5 16h15l32 6q13 0 43 -10t50 -22q61 -38 93 -78t48 -96q10 -29 10 -61q0 -9 -1.5 -18t-4 -19.5t-3.5 -17.5q0 -68 -87 -154t-184 -132q-4 -2 -15.5 -8.5 t-17.5 -8.5q-4 -1 -14 -2t-15 -3h-2l-1 -1q0 -3 -14.5 -7t-19.5 -4t-18 8v-1q-1 3 -7 3l-7 -1q-3 0 -4 1q-1 -1 -5 -1q-8 0 -15 7q-1 -1 -3 -1q-3 0 -9 8q-1 0 -5.5 -1.5t-7.5 -1.5q-8 0 -17 6t-9 20zM144 71q75 28 149 87t85 134q2 14 2 20q0 12 -5 32q-8 30 -19.5 50 t-34 33.5t-35 19t-46.5 16.5q-25 -11 -27 -17q0 -12 -2 -25.5t-6.5 -31.5t-5.5 -26q-12 -53 -17 -92q-3 -22 -20.5 -93t-17.5 -107z" />
<glyph unicode="E" horiz-adv-x="488" d="M53 173q0 79 22 145q3 9 10.5 31t12 38.5t4.5 25.5q-12 21 -12 31q0 2 2 7.5t2 7.5q15 40 29 48q7 3 30 26q0 2 -1 3v2q0 17 16.5 26.5t34.5 9.5q3 0 15.5 -2t18.5 -2l75 3l114 -3q14 2 15 2q91 0 122 -27q3 -7 3 -14q0 -17 -18.5 -23.5t-44.5 -8t-33 -5.5 q-5 -3 -23.5 -10t-54.5 -14.5t-67 -7.5q-9 0 -23 -9q-35 -26 -49 -38.5t-29.5 -35t-22.5 -51.5q57 3 58 3l27 -1l16 1q4 0 15 -2t18 -2t18.5 2.5t17.5 2.5q30 0 30 -26q0 -16 -11 -28.5t-31.5 -20t-36 -11.5t-38 -8t-24.5 -4q-1 0 -18.5 -1t-33 -4t-24.5 -11q-8 -7 -18 -21 t-10 -19q0 -29 4.5 -45t10 -18.5t14 -4t11.5 -3.5q16 -16 20 -16q21 0 96 17l29 7q9 0 14 -3.5t6 -8t3 -16.5q-3 0 -3 -13q-24 -92 -147 -92q-37 0 -65.5 13t-44 29.5t-26.5 45t-15 45.5t-8 45q-1 9 -2 13z" />
<glyph unicode="F" horiz-adv-x="433" d="M10 12q0 20 2 37.5t5 33t12 60t18 89.5q-2 10 -2 13q0 7 8 26l1 1q9 34 20 83t18.5 80.5t14.5 45.5l-1 11q0 70 49 70q23 0 39 -5t17 -5q47 0 209 47q20 0 45 -20t25 -42t-21.5 -37t-52.5 -15l-16 2q-4 4 -6 7.5t-2.5 6t-3 4t-7.5 1.5q-19 0 -53 -9q-60 -16 -102 -37 q-2 -11 -6.5 -30.5t-10 -43t-9.5 -43.5q-1 -23 -10 -44q0 -8 3 -11q7 1 52 14q2 2 18 8t44 12.5t52 6.5q41 0 41 -39q0 -18 -47 -36l-15 -6q-19 -7 -99 -29l-21 -6q-30 0 -51 -33q-6 -27 -13.5 -65t-13 -64.5t-12.5 -43.5q0 -1 -2.5 -5.5t-4 -7.5t-4.5 -8t-7 -8.5t-8.5 -7 t-11 -5t-13.5 -1.5q-24 0 -45.5 18.5t-21.5 29.5z" />
<glyph unicode="G" horiz-adv-x="558" d="M8 182q0 39 10 68q27 88 101.5 188.5t154.5 131.5q24 10 80 20l-1 -1q5 1 14 3.5t14.5 4t13.5 2.5t15 1q6 0 15.5 -0.5t25 -9t15.5 -24.5l-1 -11q0 -5 1.5 -12.5t1.5 -11.5q0 -18 -23 -33t-45 -15q-4 0 -12.5 2t-11.5 2q-4 0 -12 -3t-14 -3q-8 0 -16.5 -4.5t-12.5 -9 t-13 -14.5t-11 -12l-36 -42q-3 -4 -9 -8.5t-8 -6.5q-7 -5 -9.5 -8t-3.5 -9.5t-1 -8.5q-3 -20 -46 -63q0 -34 -15 -54l-15 -20l1 -17q0 -6 -3 -12q0 -12 5.5 -31.5t24 -40.5t45.5 -21q19 0 61.5 11.5t49.5 25.5q24 44 51 113q1 2 7 20.5t11.5 30.5t18 24t28.5 12 q12 0 20 -3.5t14 -9t10 -7.5q7 -3 12.5 -10t7.5 -13t5 -17.5t5 -15.5q1 -3 1 -16q0 -37 -37 -122q-5 -11 -25.5 -56t-30 -70t-9.5 -39q0 -10 -3.5 -18.5t-13.5 -25.5t-18 -35q-7 -11 -10 -21q-1 -2 -5 -16t-9 -23t-12 -9q-3 0 -13.5 3.5t-10.5 4.5q2 62 1 102t-3.5 48 t-3.5 19.5t1 15.5l-11 1q-24 0 -77 -15.5t-79 -15.5q-50 0 -86.5 36t-51 82t-14.5 92z" />
<glyph unicode="H" horiz-adv-x="506" d="M37 23q0 197 72 410q40 148 96 148q23 0 38.5 -18.5t15.5 -54.5q0 -6 -2.5 -18t-2.5 -16q0 1 -1 2q0 -19 -4 -41.5t-9 -38.5t-11.5 -38t-9.5 -35q17 0 94 10q29 116 75 223l2.5 9.5t6 17.5t13.5 15t24 7q4 0 8 -1t6 -1l13 1q5 0 9 -2q9 -7 14.5 -13t8.5 -12.5t4 -13 t1 -16.5q0 -1 -3 -34q-24 -145 -36 -190q2 -1 18.5 -5t25 -8t11.5 -9q6 -8 6 -14q0 -7 -14.5 -16.5t-26.5 -15.5q-16 -6 -41 -6q-2 -3 -5.5 -10.5t-7 -15.5t-7 -17t-6.5 -14q-6 -13 -10 -37t-7 -34q-3 -9 -4.5 -26.5t-5.5 -26.5l1 -8q0 -4 -1.5 -10.5t-1.5 -8.5l1 -12 q0 -5 -4 -19t-4 -18l1 -8q0 -3 -2 -5.5t-6 -4.5t-5 -3q1 1 4 2q-6 -6 -14.5 -8.5t-9.5 -4.5q-3 -8 -11.5 -13t-15.5 -5q-45 0 -45 129q0 43 18 158q-16 -2 -48 -7.5t-50 -7.5q-19 -65 -28 -84q-7 -16 -20 -51t-22 -55q-2 -4 -9.5 -32t-17 -46t-23.5 -19l-6 1t-12.5 3t-7.5 5 q-9 52 -9 87zM70 -73h2h-2z" />
<glyph unicode="I" horiz-adv-x="250" d="M34 119q0 19 4 44.5t7.5 42t12 50t11.5 45.5l7 17q38 124 83 203q7 16 26.5 35t45.5 19q37 0 44 -53v-7q0 -37 -17 -79q-59 -136 -90 -249q-2 -8 -8.5 -25.5t-11 -34t-6.5 -32.5q-1 -4 -3.5 -23.5t-5 -31t-6.5 -31t-9.5 -31.5t-13 -25t-18 -19t-22.5 -6q-7 0 -12.5 2.5 t-8.5 8t-5 10.5t-2.5 15t-0.5 16v18v17l2 42z" />
<glyph unicode="J" horiz-adv-x="598" d="M36 23q0 29 12 59q21 80 47 80q5 0 10.5 -9t5.5 -13q0 -3 -2 -9.5t-2 -7.5q0 -3 3 -12l-4 -18v-12q0 -5 2 -7l-2 1q0 -3 6.5 -7t6.5 -8l-1 -13q0 -5 5.5 -14.5t9.5 -11.5q8 -3 37 -19.5t46 -16.5q15 0 36 10q8 4 12.5 12.5t7.5 23t7 22.5q14 27 14 91q0 24 8 66.5t9 58.5 q15 94 28 137q-95 -8 -112 -12q-26 -6 -38 -6q-19 0 -28 9.5t-9 21.5q0 5 6 12l-3 -2q2 17 57 47t73 30l6 -2q1 0 2.5 4t5 7t8.5 3h10q7 0 27 11l-4 -6q11 11 22 11q12 0 17 17t8 20q3 4 9.5 6t9.5 5q8 13 24 13q7 0 14 -10.5t8 -10.5t6 1t12 1q5 0 15.5 -1.5t17.5 -1.5 l31 6q2 0 5 -3.5t6 -3.5q22 0 49 8q8 3 9 5q5 12 31 18.5t44 6.5h8l30 2q21 0 59.5 -8t43.5 -19q1 -1 1 -7q0 -16 -9.5 -23t-45.5 -19q-13 -2 -40 -22.5t-42 -20.5q-5 0 -21.5 -9.5t-29.5 -9.5h-3q-6 0 -14 -8q-9 -10 -43 -19q-6 -2 -19 -7.5t-21 -7.5q-4 -1 -13.5 -3 t-15.5 -3.5t-13 -3.5t-10.5 -5t-4.5 -6q-17 -86 -45 -172q-3 -7 -9 -19.5t-9 -19.5t-6.5 -18t-4.5 -21q-1 -9 -9 -30t-8 -31l-9 -48q-17 -78 -40 -112q-13 -18 -23 -29t-22 -17t-17 -8t-22 -5t-24 -4l3 2l-13 -3l-10 2q-4 0 -9 -0.5t-7 -0.5q-30 0 -66 16.5t-56 46.5 q-32 48 -32 83z" />
<glyph unicode="K" horiz-adv-x="572" d="M24 14l1 25l9 39q8 43 12 58l16 66q1 1 3 9.5t2 12.5q3 8 8 22.5t6 18.5q14 38 14 40q0 6 5 21l19 42q3 0 5 8.5t2 12.5q1 2 6.5 12.5t8 18.5t0.5 13q9 23 9 29l20 40l12 16l16 15l7 4q1 0 38 9h25l11 -4l12 -12l4 -10l1 -15l-6 -53q-1 -2 -3 -10t-4.5 -17.5t-5.5 -14.5 l-2 -7l-2 -8l-1 -6l14 9l5 2.5l5 2.5q1 -1 6 1t13 6.5t17 9.5t20 11t19 10q0 1 1 2q0 1 1 1q17 11 43 27.5t44 28t33.5 21.5t19.5 13l12 4l10 4q7 0 12 5l12 -1q1 1 3 1q6 0 43 14l13 -1l10 -6l7 -12l1 -10l-4 -11l-22 -23q-8 -2 -15 -10t-15 -20t-13 -18l-18 -21 q-15 -13 -93 -72l-1 -1l-70 -45l-14 -6q-14 -6 -16 -6l-4 -2q-4 -3 -13 -7t-11 -5l-9 -1l-9 -6l-3 -3l-4 -2h-1l-16 -9q-4 0 -33 -19q0 -1 -1 -1h-2q31 -22 33 -20q13 -8 36.5 -22.5t29.5 -18.5q19 -12 39 -27.5t43 -34.5t37 -29q0 -2 5.5 -10t8.5 -6l5 -3l25 -25l18 -29 l2 -9v-3l-1 -5l4 -4l7 -10q7 -7 8 -11l-7 -19q-4 -1 -10 -8l-17 -6l-15 2l-12 6q-5 2 -7 2t-4 1l-11 2q-38 20 -44 22q-7 4 -20 11.5t-16 9.5q-7 5 -16 9.5t-14.5 7.5l-5.5 3q-2 0 -7.5 3t-6.5 3l-1 1l-146 79q-1 0 -1 1l-2 2l-8 4q-2 2 -12 11l-6 -18l-2 -4q-8 -5 -32 -66 l-22 -41l-17 -21l-11 -5h-15l-15 15q1 1 -1 1l-1 1l-8 10v2l-4 2q-1 0 -1 1z" />
<glyph unicode="L" horiz-adv-x="331" d="M28 111v13q1 5 1 9v7q13 81 87 370q0 1 10.5 26.5t10.5 33.5v5q0 1 1.5 13t5 24.5t10.5 19.5v5l6 9v1l1 1q4 17 22 17l10 -1h1l9 -3q2 -2 15 -12t22.5 -19t18 -27t8.5 -39t-2 -33t-9 -38.5t-13 -61.5l-4 -8q-8 -4 -28 -78l-1 -10q-3 -8 -4 -10.5t-2.5 -6.5t-8.5 -23.5 t-19 -51.5l-3 -4l-1 -7q-4 -5 -13 -47q-3 -10 -5.5 -29.5t-4.5 -33.5l-2 -15l1 -2v-2l1 -12l9 -36l8 -15l13 -8l16 -4l25 -2l96 6l15 -15l-1 -13l2 1l1 -4l-3 -3l1 -5h-1l1 -6l-15 -17l-39 -15l-35 -9l-35 -6l-45 5l-38 13l-31 18l-26 23l-17 25l-5 12q-4 6 -7 16t-4 12v6 q-2 10 -2 14l-3 9q0 7 1 8zM160 646v1l1 1l-1 1v-3z" />
<glyph unicode="M" horiz-adv-x="660" d="M33 24l8 56q0 33 14 95q14 69 22 105t24.5 93t35.5 98q2 3 9 15.5t11 20.5q22 45 64 45q103 0 103 -152l-1 -104q34 48 89.5 139.5t81.5 130.5q1 2 9 14l12 18t13 17t15.5 17t16 10.5t18.5 4.5q16 0 28.5 -6t20 -13.5t13.5 -21t8.5 -22.5t5.5 -24q2 -16 2 -24 q-1 -95 -30 -216q-3 -14 -8 -53.5t-12 -61.5l-18 -141q0 1 1 3t1 3q0 -26 -7.5 -44.5t-16.5 -33.5t-11 -31q0 -6 -9.5 -26.5t-18.5 -21.5q-1 3 -5.5 5l-9 4t-6.5 5q0 9 -4.5 34t-4.5 39q0 -2 1 -3l1 17q0 -1 -1.5 -3t-1.5 -3l1 15l-2 47l1 224l-4 57q0 21 3 40 q-20 -20 -47.5 -81t-45.5 -86l1 3q-16 -30 -64.5 -96.5t-63.5 -66.5q-6 0 -10.5 5.5t-8 15.5t-5.5 19t-4 20t-3 15q-25 80 -38 156l-9 -13q-8 -10 -20 -50q-27 -75 -46 -186q-17 -106 -54 -106q-44 0 -44 84zM496 7v1v-1z" />
<glyph unicode="N" horiz-adv-x="612" d="M17 -27q0 4 1.5 7.5t1.5 5.5l-2 17q0 24 13 61q4 13 8.5 39t7.5 39q13 53 32 155t30 149q13 58 29 74q14 15 34 15q24 0 45.5 -21.5t31.5 -46.5q9 -21 28 -59l24 -48q3 -7 25 -63t36 -76q5 -13 21.5 -48t19.5 -35q20 0 21 19t12 55.5t12 43.5q2 9 24 127.5t39 179.5 q1 4 7 29.5t10 35.5t12.5 26.5t22 23.5t31.5 7q26 0 30 -28l-9 -45q-2 -8 -2 -24t-1 -24q-4 -20 -5 -57.5t-3 -53.5q-1 -12 -8.5 -44t-7.5 -47l2 -15q0 -2 -3 -26q-5 -26 -11 -80.5t-12 -83.5q-2 -10 -6 -33.5t-8.5 -41t-12.5 -31.5q-11 -18 -37 -26t-31 -13 q-34 -34 -57 -34q-9 0 -17 2.5t-14.5 9t-10.5 11t-10.5 13.5t-9.5 12q-41 49 -56 73l-51 93q-11 16 -24.5 51.5t-19.5 46.5q-5 -17 -20.5 -71t-25.5 -94t-18 -83l-1 -6q-2 -7 -3.5 -13t-4.5 -15.5t-6.5 -17.5t-8.5 -17.5t-11 -17t-13 -13.5t-15.5 -9.5t-18.5 -3.5 q-13 0 -24.5 12.5t-11.5 31.5z" />
<glyph unicode="O" horiz-adv-x="564" d="M26 160q0 79 49.5 181.5t123.5 155.5q10 6 27.5 11.5t24.5 9.5q4 4 36 15t51 11q18 0 35 -8.5t27 -18t28 -29.5q3 -3 33.5 -32t40.5 -49q26 -39 41 -113q1 -6 1.5 -19t2.5 -22.5t7 -18.5q0 -33 -12 -71t-37 -76.5t-58.5 -69t-82 -50t-103.5 -19.5q-54 2 -107 27 t-90.5 74.5t-37.5 110.5zM140 139q0 -44 35 -61.5t77 -17.5q56 0 84 19t63 66v-1q20 25 29 67q6 22 6 47q0 38 -15.5 69t-31.5 46.5t-50 42.5q-13 -6 -28 -6l-15 1q-10 0 -14 -4q-52 -41 -96 -118t-44 -150z" />
<glyph unicode="P" horiz-adv-x="419" d="M11 1q0 29 2.5 58t9.5 66.5t11 56t15.5 67t13.5 57.5q12 61 18 76q17 45 17 74l-6 50q0 25 50 52.5t85 27.5l37 -2q29 0 63.5 -10.5t65 -28.5t51 -45t20.5 -57v-5l4 -20q0 -5 -2 -19q0 5 -1 6q0 -3 -2 -17l2 2q-1 -1 -1.5 -4.5t-0.5 -5.5q-10 -39 -54.5 -77.5t-89.5 -62 t-93 -40.5q-8 -5 -10 -7q-51 -44 -54 -60q-15 -69 -54 -167q-1 -1 -7.5 -11.5t-10 -15t-10 -11.5t-13 -10.5t-13.5 -3.5q-43 0 -43 87zM201 268q59 16 118 62q2 2 10.5 9t12.5 10t11 10.5t10.5 12.5t7.5 12t5 13v5q0 24 -33 43t-67 19q-20 0 -29.5 -3.5t-12.5 -10t-4 -20.5 q-2 -25 -6 -49.5t-12.5 -63t-10.5 -49.5zM465 390v1v-1z" />
<glyph unicode="Q" horiz-adv-x="577" d="M29 143q0 73 36.5 166t100.5 177q46 59 102 105q26 23 49 23q6 0 18 -1.5t26.5 -8.5t14.5 -18q0 -6 -2.5 -12.5t-2.5 -8.5q5 -12 5 -16q0 -18 -8 -37t-27 -23q-10 -2 -17.5 -7t-12 -10t-14.5 -18t-17 -21q-2 -3 -4 -9.5t-4 -9.5q-15 -24 -33 -62q-65 -140 -82 -254 q0 -6 3.5 -14t3.5 -12q0 -30 44 -30q15 0 50.5 23.5t52.5 46.5l11 10q12 10 20 18.5t8 11.5v1q-34 48 -50 91t-16 101q0 21 12 34.5t37 13.5q6 0 9 -1t6.5 -4t5.5 -4q7 0 12 -2t7.5 -4t5 -7.5t3.5 -8t2.5 -10t2.5 -9.5q15 -24 29 -44q19 80 25 171q0 3 -2 13t-2 15 q0 25 11 25q3 0 11.5 -5t18 -17.5t9.5 -28.5v-8q6 0 6 -12v-11q7 -7 7 -16l-4 -26q0 -8 3.5 -18t3.5 -15v-9q0 -3 2 -11t2 -12q0 -7 -4.5 -22t-4.5 -17l1 -6q0 -4 -3 -11.5t-3 -10.5l5 -22q0 -14 -8 -31.5t-8 -21.5q0 -6 6 -18t14.5 -26.5t11.5 -20.5q5 -9 21 -36.5 t24.5 -43t17.5 -39t10 -40.5q1 -2 1 -5l1 -2q0 -3 -8 -9q-8 -23 -33 -23l-18 4h-2q-15 0 -41 20q-43 38 -85 92q-9 -14 -37 -42q-10 -18 -51.5 -41.5t-63.5 -23.5h-8l-8 -2q-3 0 -4 1q-10 -7 -44 -7q-20 0 -58 18q-43 18 -71 78t-28 117z" />
<glyph unicode="R" horiz-adv-x="532" d="M23 70q0 9 2 23q4 13 6 39t5 38q4 15 9.5 44t6.5 32q6 25 24 90.5t25 101.5q4 33 25 55.5t52 22.5q2 0 7 -1t9 -1q9 0 18.5 3.5t22.5 11.5t16 10q86 42 149 42q51 0 85 -37t34 -85q0 -17 -4.5 -32t-8 -23.5t-17 -21.5t-16.5 -15.5t-23 -15.5t-21 -14q-12 -8 -47.5 -28.5 t-51.5 -34.5q-2 -3 -2.5 -6t-2.5 -6t-7 -7q-2 -2 -2 -7.5t-4 -7.5q34 -19 99.5 -53.5t96.5 -51.5q5 -3 17 -9.5t18 -10.5t13 -11.5t11 -17.5q2 -8 2 -14q0 -13 -20 -20t-34 -7q-9 0 -26 6t-44.5 18t-35.5 15q-20 8 -118 55q-57 30 -70 30q2 0 -2 -2q-3 -2 -12 -6 q-48 -22 -48 -30v-7q0 -11 -7.5 -29.5t-8.5 -23.5q0 -12 -12 -47q-26 -64 -51 -64q-10 0 -21 8q-10 6 -17.5 14t-11 14.5t-5.5 19t-2.5 17t0 20t0.5 17.5zM219 323q9 3 24.5 9t22.5 8l11 6q28 9 74 48.5t46 76.5q-13 -6 -31 -9q-88 -21 -111 -58q-4 -6 -32 -63z" />
<glyph unicode="S" horiz-adv-x="479" d="M38 -4l3 13q1 3 6 13l7 14t8 11.5t12.5 10.5t17.5 6t24 3t27.5 -5t19.5 -5q39 -13 71 -19q25 -10 48 -10q8 2 19.5 16.5t14.5 16.5v1l-9 10q-8 9 -11 9q-1 0 -1 -1q-23 15 -31 19l-13 11l-3 2t-7 6.5t-4 9.5q-4 5 -14.5 12t-28.5 18t-32 22l-3 2q-24 22 -34 34.5t-18 31 t-17 55.5v7q1 7 3 15q0 1 -1 2v8l3 12t9 34t14 45q3 15 24 36l2 6l3 6q4 10 14 18.5t38 26.5q31 23 56.5 35.5t39.5 15.5t39.5 7t42.5 8h3q4 0 5 -1q2 1 8 1q5 0 7 -1q1 1 6 1q12 0 25.5 -7t25 -18.5t19.5 -24.5q1 -7 3 -16.5t3.5 -18.5t1.5 -16q0 -15 -9.5 -26.5 t-23.5 -11.5q-8 0 -9 1q0 -2 -1.5 -3t-4.5 -1.5t-6 -0.5t-6.5 0.5t-5.5 0.5q-11 3 -30.5 9t-23.5 7q-3 -1 -12 -1q-8 0 -15 1q-8 0 -22.5 -6t-19.5 -11l-2 -1q-4 0 -15.5 -10.5t-21.5 -23t-10 -17.5l-1.5 -2t-3.5 -5.5t-4.5 -8.5t-4.5 -10.5t-4 -11.5t-3.5 -13t-1.5 -14 q0 -9 1 -14v-1q0 -1 12 -22q18 -23 35 -35t52.5 -30.5t72.5 -44.5l3 -2l7 -7l8.5 -8.5t9 -9.5t9.5 -12.5t8 -13.5t8 -16t6 -18.5t4.5 -22t1.5 -23.5q0 -28 -8 -46l-32 -45q-22 -16 -68 -24t-88 -8q-24 0 -34 5l1 -1q-50 10 -54 12h-3q-14 4 -28 7.5t-21 5.5t-14.5 4t-11 3.5 l-7 3t-5.5 3.5l-2 2q-3 2 -7 5t-9 3l-4 -1l-7 2q-8 6 -11 6z" />
<glyph unicode="T" horiz-adv-x="483" d="M26 532q0 13 15 22t24 9q2 0 6 -1t5 -1l82 8l20 -4q3 0 6 0.5t5 1t3 0.5l45 -3l71 3l71 -3q10 0 26.5 1.5t24.5 1.5l69 -2q2 0 19.5 -1.5t29 -3.5t26.5 -6.5t23 -13t8 -20.5q0 -2 -3 -5t-7 -6t-5 -4q4 0 7 2q-16 -14 -54 -28t-61 -14l-6 2h-2q1 0 1 -1q-1 1 -4 1t-8 -1.5 t-6 -1.5l-9 2q-6 -2 -25.5 -3t-35.5 -3.5t-17 -7.5q-15 -62 -40.5 -178t-38.5 -169q-2 -9 -8 -30t-9 -33q-3 -10 -4.5 -43t-11.5 -49q-6 -6 -24.5 -17t-28.5 -13q-15 0 -22 11t-8 23.5t-1 40.5v4q1 3 1 15l-1 33q0 15 4 30q-1 1 -1 7q0 37 5.5 75t17.5 97t15 77 q24 103 25 107q-2 2 -5 12l2 -2q0 9 -30 9h-20q-21 0 -44 2.5t-51.5 9.5t-47 23t-18.5 38zM473 468q1 -1 3 -1zM597 507l2 2z" />
<glyph unicode="U" horiz-adv-x="551" d="M48 208q-1 48 20 130q9 37 25 76.5t40 72t46 32.5q3 0 8 -2.5t5 -4.5q-1 0 -2 1q11 -11 10 -11q1 0 0 2q3 -3 3 -9l-3 -18q0 -10 9 -20q17 -23 24.5 -41.5t7.5 -46.5q0 -20 -8 -63t-8 -66q1 -5 1 -16v-16q0 -16 4 -37.5t12 -26.5q6 -5 10.5 -20t13.5 -27.5t27 -16.5h-3 q8 -2 9 -2q4 0 7.5 1t6.5 2.5t6.5 4.5t5.5 4.5t5 6l4 6t4.5 6.5t4.5 6q70 120 70 202q0 11 -6 31t-7 28q0 5 1.5 8.5t4.5 8t4 7.5q12 24 38 61.5t35 56.5v-3q0 -5 1 -6q1 2 14 20h-1h-1q19 9 24 9l10 -2t16 -2q2 0 10.5 4t13.5 4q10 0 22.5 -14.5t12.5 -30.5q0 -15 -6 -39 q-7 -28 -13 -45q-3 -12 -11 -38l1 1q-21 -88 -97 -221q-33 -58 -54 -86t-57 -62q-50 -50 -91 -56l-12 1l-36 -5q-41 0 -96.5 43t-62.5 104q-1 6 -11 48.5t-11 65.5zM483 518q0 1 1 2q0 -1 -1 -2zM494 528q1 0 2 1q-1 0 -2 -1z" />
<glyph unicode="V" horiz-adv-x="469" d="M51 515q0 16 8 23.5t19 7.5q20 0 47 -22q9 -7 16.5 -16t12.5 -16.5t10.5 -19.5t8 -18.5t6.5 -21.5t5.5 -20t5 -22.5t4.5 -21.5q1 -7 5.5 -25t6.5 -32t2 -28v-6q0 -42 14 -106q11 23 28.5 67t21.5 53l118 287q3 7 10.5 27t12 31t13 24.5t16.5 20.5q7 5 16.5 9t24.5 8t21 6 q7 0 14 -4.5t7 -10.5q0 -3 -1 -8.5t-1 -7.5q0 1 2 3q-6 -11 -36 -99q-3 -10 -19 -44q-27 -60 -42 -130l-53 -186q-8 -32 -39.5 -95t-38.5 -79q-22 -51 -61 -51q-98 0 -120 105q-11 50 -19.5 107t-17 126t-14.5 107q-1 5 -7.5 35t-6.5 43z" />
<glyph unicode="W" horiz-adv-x="609" d="M18 247l1 27l-1 26q0 19 6.5 55t7.5 43q1 5 3 19t3 21.5t3.5 21.5t5 22t6 19.5t7.5 18.5t9.5 13.5t12.5 9.5t15 3l9 -1q6 0 13 -1.5t17.5 -12.5t10.5 -31q0 -31 3 -62t9.5 -76t8.5 -59q38 78 64 117q4 6 15 24.5t15.5 25.5t15.5 20t19.5 18.5t22 10t28.5 4.5q41 0 54 -23 t13 -62q0 -32 -7 -146q-1 -12 -6 -52t-5 -63l2 -27q0 -7 -2 -20.5t-2 -17.5q18 40 60 139q3 8 14.5 26t14.5 28q4 21 19.5 49.5t44 74t39.5 64.5l11 17q1 1 1 5q0 12 6.5 23.5t17.5 24.5t14 19l3 4q2 5 5.5 11.5t9 14.5t11.5 14t13 10.5t14 4.5q2 0 5 -1.5t4 -1.5h11 q2 -4 2 -8q0 -9 -8 -22t-10 -19q-14 -47 -18 -64q-2 -9 -11.5 -29t-12.5 -28q-1 -3 -6.5 -9t-6.5 -10q-22 -71 -42 -115l-9.5 -19t-12 -24.5t-10.5 -25t-8 -29.5q-5 -14 -11 -26t-15 -28t-14 -26l-32 -65q-16 -37 -69 -119q0 -10 -14 -19.5t-29 -9.5q-13 0 -22.5 4 t-14.5 13.5t-7.5 15.5t-4.5 19t-3 16q-23 98 -23 156q0 10 2.5 32t2.5 34l-1 55q0 55 13 137q-20 -22 -31 -50q-5 -12 -16 -35.5t-18.5 -42.5t-8.5 -30q-3 -18 -22 -78t-19 -88l1 -18q1 -16 -5 -49q-4 -24 -8 -35.5t-6 -15t-12.5 -8t-15.5 -7.5q-3 -2 -8.5 -6.5t-11.5 -7 t-19 -3.5q-9 0 -42 21q-5 3 -7 8.5t-3 13t-2 11.5q-43 112 -43 191q0 4 1 10t1 8q0 5 -2.5 15.5t-2.5 17.5z" />
<glyph unicode="X" horiz-adv-x="464" d="M16 -43zM16 -43q-3 12 9 39l35 89q24 48 79 148l7 12q3 7 10.5 17t8.5 12q3 5 7 11t6.5 10t5 7.5t3.5 5.5q-9 9 -14 28l-18 38l-24 77v78l3 9l9 12l8 6l8 2q2 -1 6 -1q2 -1 6 -1q3 3 3 4l11 -3l21 -17q13 -21 41 -71l22 -49q13 17 22 27q5 8 12 15l50 51q1 1 5 3.5t6 4.5 q7 4 23 20l11 5l20 2h19l8 -3l9 -8l16 -27l6 -21l-2 -21l-4 -10q-2 -2 -5 -10.5t-4 -10.5l-14 -29q-10 -10 -10 -15l-4 -6q2 5 -7 -7l-41 -59q-4 -4 -10.5 -13t-13.5 -20.5t-11 -16.5l12 -24q9 -18 11 -20l33 -71q3 -6 8.5 -15.5t16.5 -29.5t18 -33l7 -14l17 -27l2 -9 l-1 -12l-10 -13l-8 -3q-6 0 -10 -7l-22 1l-11 12q-37 44 -69 78q-68 78 -72 82l-6 3q-6 -8 -24.5 -31t-23.5 -29l-1 -1q-54 -60 -61 -74l-2 -2q-4 -2 -10.5 -10t-14.5 -19.5t-12 -16.5q-4 -4 -12 -16t-11 -16l-8 -6l-16 -3q-2 2 -11 -4l-12 -6h-19q-1 3 -6 12t-5 11zM16 -43 z" />
<glyph unicode="Y" horiz-adv-x="411" d="M32 461q0 22 13 37t33 18q3 0 6 -2t5 -2l8 2q18 0 59 -46t68 -105q8 18 21.5 37.5t22.5 31.5t28 34.5t26 30.5q72 89 122 127q1 0 9.5 7t15.5 12t15.5 9.5t13.5 4.5q4 0 22 -11q1 -16 -9 -32q-40 -70 -179 -276q-2 -3 -14.5 -32t-26.5 -36q-17 -30 -19 -37 q-9 -55 -22 -136q-16 -109 -28.5 -134t-55.5 -25q-61 0 -61 110q0 36 13.5 106t13.5 103q0 7 -2 9l-19 24q-79 98 -79 171z" />
<glyph unicode="Z" horiz-adv-x="697" d="M15 34q0 15 25 53l3 3q2 2 6 5q11 11 17 16q27 28 112 111l64 61q4 3 9.5 8.5t18 18.5t23.5 24q10 9 23.5 20t27 24.5t41.5 45.5l8 7q-8 2 -17 2q-5 0 -14 -2t-18.5 -5t-25.5 -7.5t-30 -8.5l-9 -4.5t-7.5 -3.5t-9.5 -3t-17 -3.5t-27.5 -4.5t-43.5 -7l-21 1q-1 0 -5 1.5 t-6 2t-7 3t-9 5.5l-10 7.5t-12 10.5l1 1q-3 3 -4 3l-3 16v5l-2 11q-1 3 -1 8l-2 13l10 10l-2 1q10 6 22 15q15 10 26 14t62 19q43 13 74 22l4 1q3 0 10.5 2t28 7t45.5 10l81 8q49 0 61 -6h1q25 -11 40 -22q1 -1 3.5 -4.5t3.5 -4.5t3 -3.5t2 -4t1.5 -5t2 -6.5t1 -7.5t0.5 -10 v-12.5q0 -5 -1 -6q-22 -49 -51 -88l-10 -13q-6 -6 -21.5 -25t-57.5 -60.5t-126 -118.5q1 -1 -5 -7t-13 -13.5t-9 -9.5h5l17 10q20 12 27 12h3q6 2 30.5 10.5t58.5 15.5t97 16l36 5q2 0 17.5 1t29.5 1h19q47 0 72 -25h-1l-4 1l13 -23q-10 -17 -42 -29l-2 1q-4 -4 -9.5 -15.5 t-13.5 -18.5t-22 -8q-4 -2 -10 -2.5t-15 -3.5t-24 -11l-8 -4q-1 0 -43 -11l-47 -18q-47 -17 -49 -18q-23 -14 -90 -32q-35 -20 -157 -49l-2 -1q-23 -3 -32 -3q-11 0 -31 5l-27 7q-30 13 -50 43l-9 18z" />
<glyph unicode="[" horiz-adv-x="361" d="M48 48q0 148 94 377q5 13 16.5 36.5t18.5 40.5t7 26l-3 14q0 19 10.5 38t21.5 30t28.5 26t22.5 20q34 36 79 36q33 0 77 -44q5 -8 5 -14t-5 -14t-11 -15t-7 -9q-13 -31 -59 -56.5t-52 -39.5q-26 -43 -52 -111q-55 -139 -67 -183q-30 -102 -30 -148q0 -10 25.5 -22 t51 -29.5t25.5 -42.5q0 -2 -1.5 -6t-1.5 -5q-2 -7 -4 -21.5t-4 -23t-9.5 -15.5t-21.5 -7q-71 0 -112.5 53.5t-41.5 108.5z" />
<glyph unicode="\" horiz-adv-x="409" d="M75 651q0 23 13.5 39.5t35.5 16.5q11 0 21 -5t21 -17.5t15.5 -19t16.5 -26t13 -21.5q166 -296 189 -606q0 -27 -1 -40q-1 -9 0 -24.5t1 -20.5q0 -39 -37 -43q-10 0 -22.5 14t-14.5 28q-4 19 -12 46q-2 5 -9 36.5t-16 46.5q-2 3 -14 52t-28 76q-4 6 -5 20.5t-6 20.5 q-4 5 -6.5 17t-4.5 15q-15 30 -34.5 90t-30.5 85l-20.5 41t-24 49t-19.5 44t-16 47.5t-5 38.5z" />
<glyph unicode="]" horiz-adv-x="359" d="M-9 -50q0 7 8.5 24.5t9.5 24.5v2l0.5 0.5t0.5 1v1.5q0 34 76 34l48 -1q20 0 45 81t30 135q3 20 9.5 60t10.5 65.5t7.5 61t3.5 65.5q0 11 -25.5 51.5t-25.5 67.5l2 21q0 8 -3 15t-3 12q0 31 71 31q28 0 54 -28l7 -10q12 -6 18 -18t9.5 -32t5.5 -26q12 -31 14 -40 q0 -16 -2 -46q-1 -10 -9.5 -23.5t-8.5 -22.5q-22 -156 -39 -224q-11 -43 -16.5 -63t-16 -56t-17.5 -53t-18.5 -43.5t-22 -39.5t-26 -29.5t-32 -24t-37.5 -13t-45 -5.5q-26 0 -54.5 11.5t-28.5 32.5z" />
<glyph unicode="^" horiz-adv-x="765" d="M11 225q0 12 5.5 22t11.5 15t18 14t18 14q6 4 30.5 9t32.5 8q104 30 158 30q22 0 32 -0.5t30 -4t30 -10.5t19 -22.5t9 -37.5q0 -10 -3.5 -21t-12 -24t-16 -23.5t-21.5 -26.5t-21.5 -24.5t-24 -25.5t-21.5 -22q119 47 259 47q92 0 248 -39q3 -1 16 -4t18 -4.5t14 -5.5 t14.5 -10t9.5 -14v-3q0 -17 -16 -24.5t-32 -7.5q-7 0 -24 3.5t-28 3.5l-25 -1q-5 0 -14 1t-10 1t-5 -1.5t-6 -1.5l-60 6q-2 0 -6 -2t-7 -2l-48 3l-20 -5h-11q-8 0 -10 -1q-15 -6 -43.5 -7.5t-41.5 -5.5q-55 -13 -208 -70q-119 -53 -150 -53l-14 1q-4 0 -9.5 -1t-7.5 -1 q-13 0 -24.5 11.5t-11.5 31.5q0 13 4.5 25t9 17.5t15.5 16t14 14.5q97 106 200 215q-69 -9 -136 -30q-60 -18 -72 -19q-21 0 -38.5 12.5t-17.5 33.5z" />
<glyph unicode="_" horiz-adv-x="500" d="M-39 -175q0 16 26 31q26 12 82.5 19t193.5 13q50 0 179 -15q13 -1 26 -3t28 -7t25.5 -11t18 -16.5t7.5 -22.5q0 -26 -28 -42q-11 -7 -29 -10t-31 -3t-31 1t-20 1q-22 0 -45 0.5t-36 0.5q-68 0 -81 -1l-16 -1l-76 24h-6q-5 0 -11.5 2.5t-9.5 2.5h-132q-34 0 -34 37z" />
<glyph unicode="`" horiz-adv-x="337" d="M49 706q0 21 12 29t39 8q12 0 45 -24l67 -59q7 -6 20.5 -17.5t24.5 -21t22 -19.5t17 -18.5t6 -13.5q0 -16 -13 -23.5t-26 -7.5q-22 0 -54.5 15t-55.5 34q-6 5 -31.5 23.5t-37 28.5t-23.5 28.5t-12 37.5z" />
<glyph unicode="a" d="M-25 19q0 23 11 57l9 10q10 3 14 10t13.5 27.5t25.5 43.5l33 49q5 4 18.5 25.5t35.5 39.5q49 66 82 97t62 31q22 0 47 -25q11 -1 23.5 -11t38.5 -16q9 0 29 -15q27 -19 27 -43l-8 -23v-1l-4 -32l-4 -9q-9 -9 -25 -64q-4 -15 -12.5 -34.5t-15.5 -44.5t-13 -67l-13 -84 q-1 -3 -1 -13q0 -16 2 -21l-28 -11q-2 6 -19 21q-17 16 -22.5 32.5t-5.5 45.5q0 18 2 40q-11 -11 -64 -59q-8 -17 -27.5 -31t-69.5 -39q-23 -26 -50 -26q-17 0 -32 14.5t-21 35.5q-3 8 -20.5 36t-17.5 54zM64 7q0 -8 7 -8q6 0 18 10t32.5 29.5t36.5 32.5q3 4 71 72 q0 8 19 37t32 39q18 45 20 45q0 12 -10 12q-8 0 -31 -20q-7 -4 -14.5 -10t-19.5 -19t-22 -24.5t-32.5 -37.5t-41.5 -47q-1 -2 -13 -20t-22.5 -34.5t-20 -33.5t-9.5 -23z" />
<glyph unicode="b" horiz-adv-x="413" d="M-44 29q0 29 27.5 73t27.5 65l-1 14q0 22 29 68q18 30 28.5 67t19.5 90.5t13 69.5q0 3 1.5 6.5t3 6l3 5t1.5 3.5l-2 8l2.5 3.5t4.5 8t2 8.5v3v3.5t-0.5 3.5t-0.5 3q0 3 8 13l8 10q3 11 23.5 40t27.5 43l14 63q12 39 17 39q29 -6 29 -7l-2 -237l-7 -23q0 -37 -7.5 -93.5 t-20.5 -85.5q78 58 140 58q19 0 37 -6q22 -7 41.5 -40t22.5 -54q8 -8 8 -24q0 -8 -4 -16.5t-8.5 -14t-4.5 -6.5l0.5 -1t0.5 -3q0 -18 -14 -32q-1 -1 -2 -10.5t-5 -9.5q-1 0 -3 2l-17 -30v3q-7 -12 -8 -13q1 1 2 1q-13 -11 -26 -24t-28.5 -29.5t-24.5 -25.5q-8 -8 -23.5 -19 t-22.5 -24q-4 -7 -12 -14.5t-14.5 -12t-20 -12.5t-17.5 -11q-63 -39 -92 -39q-21 0 -30 4t-18.5 13t-21.5 15l-6 3q-6 3 -12 11.5t-6 21.5q-18 3 -39 23t-21 45zM47 -25q4 -3 7 -3q2 0 8.5 3.5t10.5 4.5q91 10 168 106l89 95q7 10 12.5 21.5t12 26.5t10.5 24l1 1l-1 1 l-12 -2q-7 0 -16 2.5t-14 2.5q-22 0 -41 -7.5t-42.5 -22.5t-35.5 -20q-15 -8 -25 -16t-17.5 -18.5t-11.5 -20t-10 -24.5q0 -13 -11 -30.5t-31 -41t-27 -33.5q-6 -9 -12.5 -26.5t-11.5 -22.5zM391 104zM396 112q0 1 1 1z" />
<glyph unicode="c" horiz-adv-x="331" d="M-23 124q0 15 1 27.5t4.5 24.5t5.5 19.5t8 18t8 14.5t9 14.5t8 12.5q3 5 11 15t12 16l14 45q2 4 9 7.5t10 6.5l20 28q2 3 12.5 21t16.5 22q35 19 61 19q4 0 10 -3l10 -6q10 -5 20.5 -11t24.5 -16t24 -20t17.5 -22.5t7.5 -24.5q0 -27 -39 -27q-6 0 -17.5 4.5t-15.5 4.5 q-8 0 -16 -5.5t-16.5 -16.5t-14 -19t-14 -23t-10.5 -19q-3 -6 -15 -28t-16 -30t-12.5 -27.5t-12.5 -32.5t-7 -30.5t-3 -34.5q0 -25 10 -34t32 -9q42 0 110 30.5t96 67.5q3 4 7.5 13t8 14.5t4.5 5.5q11 0 27 -2l6 -28q2 -14 2 -18q0 -7 -1.5 -13t-5 -11t-6.5 -8.5t-7.5 -7 t-7 -5.5t-7.5 -5l-4 -2q-5 -4 -31.5 -23t-40.5 -29t-41 -27t-46 -26t-42.5 -16.5t-41.5 -7.5q-15 0 -27 6t-17.5 13t-14 21t-13.5 20q-64 74 -64 157z" />
<glyph unicode="d" horiz-adv-x="507" d="M-1 24q0 20 12.5 44.5t13.5 28.5q8 30 30.5 62.5t44.5 48.5q5 3 13.5 17.5t23.5 26.5q9 7 26 29.5t30 32.5q11 6 24 21.5t18 17.5q34 16 65 16q17 0 41 -12.5t36 -12.5q3 0 11.5 19.5t22.5 54t16 40.5q1 3 8.5 33.5t17.5 47t27 16.5q2 0 28 -7q-1 0 -7 -2q24 -3 26 -6 q16 -19 31 -20l5 -5t7 -7.5t3 -5.5q-5 -42 -16 -70q-49 -134 -118 -239q-20 -31 -40 -90q0 -1 -4.5 -14.5t-4.5 -20.5q0 -28 33 -28q6 0 20 2q2 0 9.5 -1.5t11.5 -1.5l7 2q27 0 27 -33q0 -3 -7 -12t-12 -11q-51 -20 -71 -20q-42 0 -57 16q-10 11 -17.5 25t-16 36t-11.5 28 q-10 -9 -36 -33t-40.5 -36.5t-38 -29t-45.5 -27.5q-3 -2 -10.5 -8t-13.5 -9.5t-12 -3.5q-52 0 -72 20q-39 37 -39 81zM87 4l41 16q12 7 24 16t28.5 22.5t22.5 18.5q5 4 15.5 15t18.5 16q9 6 18.5 16t23 26t18.5 21q2 3 10.5 10t11.5 12q7 10 14 54q1 3 8 22 q-6 -4 -23.5 -15.5t-27 -18t-23.5 -17t-24.5 -21t-19.5 -21.5q-11 -12 -46 -49.5t-55.5 -64.5t-34.5 -58z" />
<glyph unicode="e" horiz-adv-x="423" d="M-10 177q0 13 6.5 33t11.5 28q10 10 20 30.5t15 28.5q7 11 24 25.5t23 22.5q32 40 81 67q1 1 9.5 12t17.5 11q2 0 32.5 -13t62.5 -13q38 -4 79.5 -40.5t41.5 -77.5q0 -47 -33.5 -81t-77.5 -48.5t-90 -14.5q-39 0 -62 6q-2 0 -8.5 3t-9.5 3q-2 0 -9.5 -12t-14 -28.5 t-6.5 -27.5q0 -12 4 -20.5t14.5 -14t16 -7t21.5 -6.5q4 -1 16 -8t25 -7q43 0 103 33q8 5 26.5 18.5t32.5 21.5t22 8q21 0 21 -23q0 -45 -73.5 -100.5t-146.5 -55.5q-72 0 -133.5 80.5t-61.5 166.5zM127 202q14 -6 21 -6t35 14.5t57.5 43t29.5 55.5q0 5 -5.5 9.5t-10.5 4.5 t-10 -3t-11 -7.5t-9 -6.5q-13 -7 -23.5 -15.5t-22 -21.5t-17 -20t-18 -24.5t-16.5 -22.5z" />
<glyph unicode="f" horiz-adv-x="422" d="M-87 79q0 16 12 36t25 20h10q2 0 3 -1q0 -1 0.5 -1.5t1.5 -0.5q13 5 25 5l7 -1q8 2 24 8.5t24 8.5q86 12 89 29q2 17 15.5 45.5t21.5 40.5l24 77q2 2 8 6.5t9.5 9t3.5 9.5l-2 13q0 7 12 19.5t12 22.5l4 -4l-5 21q-1 1 -1 3l6 10q6 10 14.5 23.5t11.5 20.5q2 4 7 18.5 t10.5 23t14.5 13.5q3 2 5 18q2 9 24.5 44t29.5 50l5 12q6 13 8 17t8.5 14t11.5 14t12.5 8t16.5 4q8 0 19 -7.5t17 -7.5l3 1l9 -4q4 -3 14.5 -6t11.5 -3q10 -3 19.5 -6t12.5 -3.5t7 -3t6 -5.5t7 -10l-7 -36l-2 -12q0 -2 3.5 -7t3.5 -9q0 -8 -20.5 -29t-31.5 -21q-5 0 -18 22 q-1 -1 -1 -3q-1 4 -4 4q-4 0 -11 -10l-5 -12l-33 -47q-1 -1 -1 -3v-1q1 -1 1 -3q0 -7 -12.5 -19t-12.5 -17q-2 -17 -17.5 -28.5t-15.5 -15.5t4 -11q0 -7 -14.5 -23t-14.5 -22q0 -1 2.5 -5t2.5 -6q0 -13 -18 -21l-20 -41q-2 -3 -12 -21t-22 -34h2q2 0 5.5 -3t4.5 -3 q7 0 32 25l47 35q2 2 6.5 7.5t8.5 9.5t5 4q14 0 24.5 -21t10.5 -36q0 -18 -7 -30q-9 -10 -29.5 -42t-37.5 -52.5t-29 -20.5q-9 0 -17.5 13t-8.5 25q-45 -22 -62 -36.5t-21 -28t-10 -20.5t-10.5 -25.5t-6.5 -23.5q-2 -3 -7.5 -10t-8.5 -12.5t-3 -10.5q0 -1 6 -8t6 -11 t-1.5 -6.5t-4 -4.5t-8 -5.5t-10.5 -7.5q-17 -16 -33 -77q-3 -10 -7 -33t-8.5 -39.5t-10.5 -23.5q-13 -8 -22 -25.5t-17.5 -30.5t-23.5 -13q-25 0 -25 22q1 13 10 52q3 13 6.5 39.5t7.5 46.5t10 38q3 9 16 34.5t13 41.5q0 12 4.5 25t13 31t12.5 28q-14 -4 -18 -18 q0 -2 -11.5 -12.5t-27.5 -21t-25 -10.5q-5 0 -9.5 2t-9.5 6.5t-7 5.5q-72 43 -72 61z" />
<glyph unicode="g" horiz-adv-x="481" d="M-104 -551q0 80 37 140q74 136 157 227q11 12 33 39t35 41q17 19 21 48t10 40q-3 -2 -8 -7q-27 -22 -42.5 -32.5t-43 -20t-58.5 -9.5q-43 0 -63 21q-14 12 -30.5 44.5t-16.5 42.5l1 7q0 2 -2.5 7t-2.5 9q0 14 10.5 26.5t21.5 12.5q-1 2 -1 10t1.5 11t7 5.5t7.5 4.5 q4 2 12 14.5t13 17.5q-3 0 -5 -2q4 4 4.5 11t1.5 9q1 3 8 11v0q2 2 3 4l-3 -3q6 21 20 38.5t39.5 39t36.5 33.5q2 2 10.5 11.5t17.5 15.5q0 8 6.5 15.5t20 17t16.5 12.5q51 41 89 49q19 15 30 15h33q22 0 50 -6.5t28 -20.5q0 -2 -5.5 -10t-17.5 -17t-25 -9l-15 1 q-22 0 -49.5 -18t-50.5 -41t-51.5 -60t-44.5 -60t-38 -56q-4 -6 -15.5 -21.5t-17.5 -25t-14 -23t-11.5 -24.5t-3.5 -21q0 -5 5 -5q46 0 99 33q7 4 26 15t25.5 15.5t18.5 14t18.5 19t12.5 22.5q29 70 66 124q6 9 16 20.5t14.5 19t5.5 17.5q2 14 15.5 24t24.5 10q5 0 8.5 -1.5 t9 -6t8.5 -6.5q6 -2 10 -4t6 -4t3 -5.5t1.5 -5.5t1 -6.5t0.5 -7.5q1 -2 5.5 -9t4.5 -12q0 -21 -10 -43.5t-28.5 -51t-24.5 -40.5q-5 -11 -9.5 -30t-7.5 -27t-11.5 -32.5t-13.5 -35.5l-4 -12l-6 -15l86 45q6 3 18.5 12t22.5 15t17 6q6 0 13.5 -6.5t7.5 -10.5 q0 -18 -29.5 -45.5t-62.5 -49.5q-17 -12 -49.5 -30t-45.5 -26q-10 -6 -29 -60t-21 -81q0 -3 -6 -18t-18.5 -37t-26.5 -36l3 2q-10 -10 -36 -55q-65 -119 -152 -172q-7 -4 -23 -16t-28.5 -17.5t-29.5 -5.5q-25 0 -36 10.5t-11 37.5zM-10 -467q0 -1 2 -9q47 51 75 98 q4 7 12 20t14 22.5t12.5 21t11 21t5.5 16.5q4 17 32 77q-6 -8 -18.5 -24.5t-23 -29t-18.5 -19.5q-12 -9 -22 -22.5t-14.5 -23.5t-11.5 -30.5t-10 -27.5q-3 -9 -24.5 -40t-21.5 -50zM4 177v1v-1z" />
<glyph unicode="h" horiz-adv-x="517" d="M-53 67q0 20 32 52q18 18 72.5 63t80.5 76q-1 1 -1 8q0 8 6 21.5t6 19.5l-2 15q0 5 1 6q3 11 12 48.5t18 57.5l6 12l6.5 13t4.5 12t2 12q0 2 -1 6.5t-1.5 8t-0.5 6.5q0 27 53 94q0 8 2.5 18.5t5 17.5t9.5 20t9.5 18t12 21t11.5 19q11 23 41.5 52.5t58.5 29.5 q6 0 10.5 -3.5t5.5 -3.5l21 7q4 1 5 1q2 0 2 -1l-0.5 -0.5t-0.5 -1.5q1 1 3.5 4t4 4.5t4 3.5t4.5 3t4.5 2t5.5 1q8 0 26 -12t25 -12q25 0 40.5 -32t15.5 -59q0 -9 -7.5 -25.5t-16 -29t-21.5 -32.5t-17 -26q-3 -6 -9 -16.5t-9.5 -16t-11.5 -13t-19 -13.5q-2 -2 -5 -8t-5 -8 q-6 -5 -6 -6v-2q0 -8 -7 -13.5t-15 -5.5l-3 -13q-7 -10 -16 -16t-13 -10q-2 -2 -13 -21l-1 1q-15 -10 -51 -71q-9 -14 -36 -49.5t-42.5 -62t-21.5 -51.5q-22 -75 -22 -164q0 -17 7 -17q4 4 13 38q15 52 37 91q7 12 25.5 36t25.5 41q13 32 49 70q2 2 15.5 18t23.5 23t23 7 q17 0 45 -11.5t32 -29.5q-12 -68 -40 -180q-9 -24 -9 -47q0 -18 12 -19q18 0 23 2q0 3 25 29t32 26q11 0 17 -4t7.5 -7.5t3.5 -14t3 -13.5q2 -14 2 -19q0 -25 -11 -41t-23 -21.5t-34.5 -12.5t-32.5 -11q-6 -2 -12 -2q-32 0 -74.5 30t-42.5 73l3 20q0 23 -4 40q-8 -1 -15 -7 t-9.5 -11t-7.5 -17t-6 -15q-43 -96 -59.5 -123t-35.5 -27t-49.5 30t-30.5 46l1 11q0 6 -9 11q-10 5 -21 92q-21 -13 -23 -13l-4 1q-3 0 -8.5 -9t-10.5 -9l-19 -1q1 0 3 -1.5t4 -1.5q-10 0 -29 -18.5t-34 -18.5q-7 0 -18.5 10t-11.5 21zM226 339q66 78 114 157q3 5 11 19.5 t14 24t14 16.5q10 9 18.5 25t12.5 26t11 34t9 29q-14 -3 -22 -8.5t-22 -20.5l-30.5 -30.5t-46.5 -49.5t-19 -30l2 -6q0 -4 -3 -12t-7.5 -18t-6.5 -16q-23 -63 -49 -140z" />
<glyph unicode="i" horiz-adv-x="254" d="M-17 71q0 17 11 31t15 32q12 37 19.5 49t42.5 47q3 1 5 12l7 12q34 22 48 22q7 0 73 -36l8 -13v-9q0 -22 -4 -34t-20 -34.5t-24 -36.5q-6 -17 -11 -36t-9 -30t-17.5 -40.5t-39.5 -79.5l-13 -8q-29 0 -49.5 37.5t-25.5 73.5q0 1 -8 13t-8 28zM195 489q0 14 3 31.5t13 34 t25 16.5q12 0 47 -35q34 -34 36 -45v-1q0 -4 5 -11q9 -18 9 -26q0 -7 -19 -40q-37 -36 -58 -36q-23 0 -44 48q-17 40 -17 64z" />
<glyph unicode="j" horiz-adv-x="272" d="M-112 -381l13 80q3 7 7 15t10 22t15 43l2 11q1 4 5.5 18t7 22t10 25t17.5 36q1 8 9 28t14 45l2 5q3 5 5.5 11.5t11 29t21.5 54.5q4 7 11 9q-4 7 -4 13t4 15q-5 -6 -16.5 -17t-13.5 -13q-25 -18 -78 -43l-6 -1q-7 0 -12 5.5t-5 14.5q0 7 5 15q-5 5 -5 13q0 15 19 34l15 11 v5q7 11 89 97q13 9 36.5 40t36.5 64q5 26 21.5 35t48.5 9l10 -1q2 0 34 -18l-3 -2l10 -11l-2 -5q-3 -13 -6 -25q1 -9 1 -25v-1q0 -26 -11.5 -80.5t-26.5 -97.5q-19 -61 -50 -126q-1 -1 -1 -2q-2 -24 -61 -169l-9 -21q0 -28 -18 -44q1 -3 1 -12q0 -10 -20 -42v-9 q0 -14 -6 -19t-12 -5q-4 -4 -9.5 -12t-7.5 -10q5 -12 5 -17l-2 -7q-12 -23 -15 -34v2l-15 -15h-9q-30 0 -51.5 16.5t-21.5 40.5zM168 515l1 20q14 12 25 12q44 0 53 -4q22 -7 41 -35t19 -46q3 -9 3 -13v-10l-10 -14q-22 -8 -35 -8q-11 0 -43 29q-30 26 -41 41l-3 9 q0 6 -10 19z" />
<glyph unicode="k" horiz-adv-x="419" d="M-7 -45q0 1 8 33q15 77 47 175q0 2 3.5 17.5t7.5 24.5q26 59 42 112q44 99 87 180q18 35 45 70.5t44 35.5q13 0 21 -10t10 -19.5t4 -28.5q0 -12 -4.5 -24.5t-14.5 -31t-12 -23.5q-54 -120 -61 -136q5 2 29.5 15t35 18t29 10.5t32.5 5.5q24 0 39 -14t15 -35q0 -45 -20 -57 l-30 -21l-92 -53q-43 -27 -72 -42q7 -4 65.5 -37.5t87.5 -54.5l71 -53q4 -3 18.5 -13t21 -15.5t14.5 -16.5t10 -23q-2 -2 -2 -5l2 -9q0 -2 -4 -5t-10 -7t-7 -5q-32 5 -86 30q-33 15 -95 45t-73 35q-9 4 -70 44q-19 -43 -19 -57q-3 -30 -7 -46.5t-8 -21t-12.5 -12.5 t-15.5 -17q-3 -7 -28 -7q-15 0 -30.5 16.5t-15.5 32.5z" />
<glyph unicode="l" horiz-adv-x="318" d="M-128 27l7 18l31 19q6 3 22 10.5t31 17t30 21.5q4 3 10 14t11 16l6 36l4 13q4 13 5 17q0 1 1 7.5t5.5 21.5t13.5 34l3 10q4 8 10 23l11 29l6 9q4 23 20 42q12 38 36 73l18 38l5 3l4 11l54 65q4 10 23 27l10 3q3 4 7.5 9.5t7.5 9.5t7 9t8 9t8.5 8t8.5 7q38 14 72 14 q44 0 64 -12l6 -10q2 -14 2 -25q0 -28 -7 -57v-3q0 -14 -6 -40l-2 -3q-106 -190 -198 -285q-11 -21 -38 -48.5t-30 -40.5q-6 -12 -16.5 -20t-17 -15.5t-6.5 -22.5q0 -3 1 -9t1 -7l4 -9q23 -26 74 -26q31 0 50 14l11 3q4 0 10 -2q12 5 22 5q33 0 48 -42v-3q0 -6 -2 -13v-3 l-24 -8q-7 7 -23 7q-11 0 -70 -17t-84 -17l-18 -1l-11 2q-35 4 -59 21t-41 59l-9 -4q1 1 0 1t-11.5 -6.5t-28 -15.5t-31.5 -14l-20 -1q-12 -1 -22.5 6t-13.5 18zM137 207q5 2 17 14l93 125q10 14 21.5 28.5t16.5 21t10.5 14.5t8.5 13.5t6.5 12.5t6.5 17q3 5 5.5 8.5t3.5 4.5 t1.5 2.5t1.5 3t2.5 4.5l4.5 9q5 12 5 21q0 8 -4 17t-11 9q-16 -1 -68.5 -84t-79.5 -147q-5 -12 -16 -33t-18 -37t-7 -24z" />
<glyph unicode="m" horiz-adv-x="673" d="M2 12q0 10 31 138q5 6 13 16q42 121 75 191q10 24 27 44q10 10 17 11q12 0 29 -15t17 -27q0 -5 -10 -25l-66 -186v-9q0 -1 1 -1h4q14 0 25 14q5 10 12 23q8 18 21 34.5t70 82.5q25 29 41 47q10 0 25.5 10t21.5 10q3 -1 8 -2t17.5 -6t22 -11.5t17.5 -18.5t8 -26v-5 l-55 -192q0 -12 11 -12q8 0 50 45.5t57 65.5q0 2 6.5 19.5t16.5 36t17 18.5l8 -3q2 0 18 6t20 6q80 -27 81 -44q0 -5 -1 -7q-21 -23 -52.5 -97t-31.5 -99q0 -18 27 -26v-11l-34 -34q-8 0 -15.5 12.5t-25 37t-41.5 44.5q-19 -14 -39 -30t-31 -24.5t-21.5 -16.5t-17 -11 t-11.5 -3q-16 0 -46 61q-17 17 -36 48q-10 17 -11 26q3 23 3 69l-5 5q-23 -25 -36 -45l-49 -82q-9 -11 -24.5 -33t-25.5 -34.5t-33.5 -35.5t-55.5 -49q-10 1 -13 25q-3 22 -8.5 36t-10 18t-8.5 9t-4 12z" />
<glyph unicode="n" horiz-adv-x="398" d="M-15 5q0 15 14 63t14 85v2q4 15 12 37.5t10 33.5l-1 30q3 8 7 15.5t8 14t5 8.5v1q5 11 17 32.5t16 30.5l3.5 6.5t6.5 11t8.5 10t12.5 8.5t15 3h1q2 0 4.5 0.5t6 -2.5t6 -8t4.5 -17t2 -29q0 -2 -0.5 -4t-0.5 -4.5v-4.5v-1q-9 -36 -11 -45t-4.5 -15.5t-4.5 -12.5t-4 -17 l-1 -1q0 -13 2 -20q11 15 27 36.5t28 38t24 32t19 22.5q7 6 26.5 28t37 34.5t35.5 12.5q5 0 8.5 -2t5 -5t3 -6.5t1.5 -5.5v-2q8 -7 8 -25l-1 -1q-4 -19 -8 -37.5t-7 -33.5h-1q-2 -6 -8.5 -27.5t-10 -40.5t-3.5 -40v-1q0 -7 11 -42v-1q1 -5 7 -32.5t10 -40.5v-1l5 -40 q0 -11 4.5 -17.5t9.5 -9.5t5 -4q4 2 18.5 4t16.5 3h1q10 10 25 10q3 0 8 -1.5t6 -1.5l6 3l17 -3q5 -12 5 -13l-2 -6v-5l-0.5 -3.5t-1.5 -8.5t-3.5 -11t-9.5 -13.5t-17 -14.5l-22 -20l-25 -18q-10 -6 -18 -6q-18 -9 -24 -10v-1q-15 -3 -29 -8h-2q-4 0 -11 -1.5t-10 -1.5 q-7 0 -22 6.5t-37.5 32t-31.5 64.5l-1 1q-7 37 -7 54l-2 8v11l-1 11v54l-4 12l7 16l-1 4l3 11l1 25q1 5 1 16q-4 -5 -12 -17l-26 -50l-1 -7l-12 -23l-3 -13l-5 -7l-13 -28l-13 -18l-8 -6l-7 -1v-1l1 -1l-2 -2h-1q-30 -46 -41 -57h-1q-19 -19 -42 -19q-9 0 -14.5 5.5 t-5.5 12.5q-11 8 -11 33z" />
<glyph unicode="o" horiz-adv-x="472" d="M-10 56q0 41 11 56q2 3 10.5 9t8.5 9q0 2 -4 18q0 7 4 13t11 13t10 11q6 8 21 34t26 39q23 27 71 75q4 4 15.5 16t20 20.5t19.5 18.5t20.5 15t17.5 5q2 0 6 -1t7 -1q6 0 14.5 12.5t19.5 12.5q47 -21 87 -36q21 0 37 -10.5t24.5 -24.5t14 -37t7.5 -39t3 -39q0 -36 -5 -61 q-2 -10 -9.5 -27.5t-9.5 -26.5q-11 -46 -41.5 -78.5t-80.5 -61.5q-3 -2 -22.5 -14t-26.5 -16t-20.5 -10.5t-23.5 -9.5q-25 -7 -38 -16q-32 -22 -79 -22q-23 0 -46.5 18t-32.5 21q-10 3 -17 8.5t-11.5 15t-6.5 15.5t-4.5 19t-3.5 18l-1 12v4q0 4 1 4h1q-5 8 -5 19zM103 39 q0 -10 19 -10q18 0 39.5 7.5t34.5 14.5t35 21q2 2 18.5 7t20.5 13l23 42q9 17 17 55t12 49q2 8 5 11q-3 1 -4.5 4.5t-1.5 10v7.5q1 1 1 4q0 2 -1 5t-2.5 6t-1.5 4l-6 -2q-51 -35 -111 -98t-80 -98h1l-1 -1v1q-17 -30 -17 -53z" />
<glyph unicode="p" horiz-adv-x="455" d="M-75 -352q0 14 3 25q6 25 9.5 49.5t7 56t6.5 49.5q48 212 149 438q-63 -42 -86 -42q-28 0 -28 51q0 44 31 74t75 44q48 15 53 15l6 -1q21 13 28 13q2 0 6.5 -2t7.5 -2q4 0 10 1t8 1q18 -2 34.5 -5t27.5 -5.5t27 -8.5l24 -9t28 -11.5t29 -12.5q20 -6 30 -22.5t15.5 -37 t9.5 -26.5q4 -7 4 -15q0 -7 -4 -16q-6 -14 -23 -88q0 -3 -13 -33t-34 -61t-37 -31q-1 0 -5 2.5t-6 2.5q-4 0 -9 -3t-7 -3q-4 0 -6 5q-40 -30 -47 -35q-2 -1 -15.5 -11.5t-22 -16t-22 -14t-25 -13t-21.5 -5.5q-22 -3 -25 -8q-10 -18 -26.5 -81t-37.5 -88q-5 -7 -8.5 -13.5 t-6.5 -14.5t-5 -13q-6 -12 -16 -48t-22.5 -55t-35.5 -19q-35 0 -35 43zM149 25q1 1 5.5 3t5.5 3t4.5 3t4 2.5l3 3l3.5 3.5t2 3.5t1.5 5t1 5.5t0.5 6l30 24q31 24 31 30l-3 6q0 9 17.5 18.5t17.5 14.5q0 8 2.5 12.5t7.5 10t7 8.5l14 38q18 32 26 60v3l1 2q0 1 -11 7t-32 11.5 t-40 5.5q-6 0 -10 -1.5t-6 -6t-2.5 -7t-1.5 -10t-1 -8.5q-10 -51 -29 -122q-8 -26 -25.5 -70.5t-23.5 -63.5z" />
<glyph unicode="q" horiz-adv-x="409" d="M-66 45q0 4 4 9t4 7q-1 1 -1 4t0.5 6t2 4.5l3 3t4 2.5t3.5 1.5t4 0.5h4h4h3q-1 1 -3 2.5t-2.5 2.5t-1.5 2t-1.5 2.5t-0.5 4v6.5q0 2 2 4t4.5 2.5t5.5 1.5t4 3q0 4 -3.5 10.5t-3.5 8.5l2 3t6 6.5t7 3.5q2 0 5 -2t4 -2q2 0 5.5 4t4.5 6q-4 0 -4 5q0 7 1.5 14t3 12.5t6 12.5 t6.5 10t9 11t8 9l9.5 9.5l8.5 8.5q9 9 27.5 31.5t29.5 32.5q4 4 6.5 11t5.5 11q8 8 19 18t36 30.5t50.5 33.5t44.5 13l22 -1q18 0 42.5 -7.5t24.5 -22.5q-3 -3 -23 -13q6 -2 8 -2q4 0 8 3q-3 -2 -8.5 -6.5t-9 -7t-9 -5t-10.5 -2.5l-12 1q-72 0 -209 -225q-5 -8 -21.5 -32.5 t-24 -37.5t-15.5 -32.5t-8 -34.5q0 -4 7 -4q23 0 46 8t36.5 15.5t39 25.5t35.5 24q12 6 19 18.5t12 31t8 25.5q12 29 28 56.5t31.5 52.5t23.5 44q0 20 11.5 31.5t31.5 11.5q4 0 13 -6.5t16 -13t7 -7.5q3 -21 5 -24q5 -8 5 -19q0 -32 -28.5 -86t-33.5 -78q-2 -11 -9.5 -29.5 t-9.5 -27.5q-36 -132 -72 -238q-4 -7 -4 -14l1 -8q0 -14 -4.5 -29t-9.5 -24.5t-13 -24.5t-11 -21q-8 -17 -21 -75l-2.5 -17.5t-5.5 -37.5t-8.5 -37t-11.5 -17q-3 1 -13 3t-13 3v26l6 213v18q0 25 16 41q-3 -3 -5 -3q-6 0 -6 20q0 16 1 18q1 5 7.5 57.5t16.5 76.5 q-33 -33 -61.5 -49t-69.5 -16q-45 0 -63 28q-12 18 -24 45t-12 37q1 1 1 5q0 1 -2 5t-2 11z" />
<glyph unicode="r" horiz-adv-x="278" d="M-10 12q0 7 2 12l2 5v1l1 13q25 95 29 119l1 3v1q1 1 1 7l4 13l2 2t2 3l1.5 3t1 4t0.5 5.5t1 8t1 10t1 13t2 16.5v2q1 4 3 23t4.5 29.5t10 26.5t19.5 28l2 6q2 4 7.5 7.5t14.5 20.5l3 1q10 10 21 10q2 0 4.5 -0.5t3.5 -0.5t3 0.5t3 0.5q5 0 12 -4.5t13 -9.5t7 -6l12 -13 q12 -12 13 -12l2 -2q8 0 57 27l1 1q59 27 92 27q6 0 9 -1q26 -2 36 -21q4 -4 4 -21v-4q-3 -10 -13 -14q-22 -11 -35 -16t-16 -5t-10.5 -4t-24.5 -16q-58 -19 -121 -104q-8 -8 -15 -26q-7 -7 -11 -33l-1 -1l-4 -8l-0.5 -2.5l-1.5 -7.5t-2.5 -11.5t-3.5 -14t-4 -16l-4 -17 t-4.5 -16.5t-5.5 -15t-5 -13v-6l-1 -5l2 -5v-7q-4 -28 -15 -50q0 -2 -1.5 -4.5t-5.5 -5.5t-9 -3l-12 4q0 -22 -28 -22q-4 0 -10.5 4.5t-12.5 4.5l-7.5 15t-5.5 10l-3 6q-3 5 -6 8l-1 3q-3 20 -6 23l-1 4z" />
<glyph unicode="s" horiz-adv-x="338" d="M-127 -36q0 2 1 5t3 6.5t2 4.5q13 34 40.5 56t67.5 42t58 34q6 5 25.5 19t32 24.5t22.5 22.5q10 11 15 21t6.5 15t2.5 19.5t2 23.5q0 12 4 26t6 20.5t10.5 26t9.5 21.5q6 14 14.5 45.5t14.5 41.5q46 46 63 47q5 0 10 -3q11 -6 29.5 -20.5t34 -23.5t28.5 -9q2 -2 5.5 -5 t5.5 -5t3.5 -5.5t1.5 -8.5q0 -30 -12.5 -56t-30.5 -44t-36.5 -35t-31 -39t-12.5 -47q3 -24 15.5 -80t15.5 -86l-5 -12l-15 -27.5t-20 -33t-25 -28t-27 -11.5q-63 0 -102 10q-7 2 -19 11.5t-14 10.5q-18 10 -26 17q-9 7 -18 22.5t-15.5 27t-9.5 11.5l-2 -1q-1 -1 -3 -1 q-6 -4 -31.5 -25.5t-44 -33t-31.5 -11.5q-2 0 -10 9.5t-8 10.5zM29 58q14 -10 25 -10q4 0 11.5 3t12.5 3q4 0 11 -7t10 -7q1 0 5 1t6 1q12 0 35.5 -9t32.5 -9q2 0 6 1.5t7 1.5v31q0 31 -27 104z" />
<glyph unicode="t" horiz-adv-x="348" d="M38 332q0 11 5.5 18.5t13 10.5t14.5 4t12.5 0l5.5 -1q9 1 25 -1t23 -2q11 0 22.5 27t24.5 67t20 55q6 10 11 35t12 41t21 16q5 0 13.5 -4.5t11.5 -4.5t7.5 1t6.5 1q19 0 40.5 -11.5t21.5 -27.5q0 -4 -29 -67q-7 -17 -15 -37.5t-16 -42t-14 -37.5q8 -1 24 -1 q26 0 70.5 10.5t58.5 10.5q6 0 17 -20q-3 -8 -23 -18q0 -1 2 -3.5t2 -4.5q0 -9 -11.5 -16t-28 -13t-20.5 -8q-7 -10 -20 -18t-24 -11.5t-31 -9.5t-27 -8q-23 -9 -40 -18q-6 -15 -17.5 -37t-22 -44t-16.5 -39q-4 -11 -17 -39.5t-22.5 -53t-9.5 -36.5q0 -28 -5 -34v1 q-4 -5 -10.5 -26.5t-14.5 -39t-17 -17.5q-10 0 -16.5 4t-9 14t-3.5 14.5t-1 19.5l1 15q0 4 1.5 13.5t1.5 15.5q0 3 -2.5 8.5t-2.5 10.5t2 13.5t2 12.5q0 3 -1 7.5t-1 5.5q0 36 9.5 72t28.5 85t23 62q-1 3 -33.5 37t-32.5 43z" />
<glyph unicode="u" horiz-adv-x="385" d="M-23 45q0 40 0.5 55.5t8.5 44t24 50.5q7 10 14.5 31.5t15.5 31.5q-1 -1 -2 -1h-1q7 22 27 53q6 9 17 39.5t24 50.5t29 20q12 0 25.5 -19t13.5 -39q0 -10 -5 -26.5t-5 -24.5l5 -32q0 -14 -17 -52.5t-20 -49.5q-4 -12 -15.5 -35.5t-19 -43t-7.5 -35.5q0 -5 3.5 -8t6.5 -3 q1 1 4 2q19 9 32.5 19t23 24t14 22.5t12 27.5t10.5 27q2 6 12 32t15.5 39.5t15.5 32.5t19 28t18 9q11 0 28 -13.5t24 -15.5l-2 -1q-1 -1 -3 -1h21q8 0 12.5 -22t4.5 -31q0 -18 -18 -113q32 14 39 14q2 0 5.5 -2t8 -4.5t7.5 -3.5q5 -15 5 -29q0 -33 -21.5 -49.5t-41.5 -16.5 q-18 0 -50 10q-5 1 -10.5 5.5t-8 8.5t-7 11t-6.5 9q-7 -10 -29 -47.5t-38 -55.5q-5 -5 -11 -9t-11 -6t-14 -4.5t-13 -4.5q-30 -14 -43 -14q-36 0 -52 15q-4 3 -26 30l-11 11l-14 14t-11 12.5t-9.5 16.5t-2.5 16z" />
<glyph unicode="v" horiz-adv-x="446" d="M20 87v117l25 132l18 63l4 7q5 40 20 44l16 -1l6 -2h20l17 -3l14 -9l16 -24v-64l-20 -130q126 92 245 151l9 6q8 5 18 11.5t24.5 15.5t30.5 17.5t33 16.5t34.5 14.5t32.5 9.5l5 2l14 -1l5 -3v-26l-5 -3v-3l-8 -12l-18 -11v-2l-4 -2v-10l-4 -2l-8 -14l-12 -7l-8 -13 l-14 -12q-14 -11 -36.5 -29t-31.5 -25l-32 -26l-5 -10l-18 -14l-2 -4l-119 -117l-54 -39q-86 -68 -86 -87q-1 -2 -7 -9t-14.5 -17.5t-12.5 -15.5l2 -9v-2q-1 -2 -2 -6t-2.5 -8t-5 -8t-8.5 -6l-3 -1h-5h-7t-7.5 0.5t-9 1.5t-8 3.5t-7 5.5t-5 8t-3.5 11q-9 24 -9 25h1l-4 7 q-5 56 -5 118z" />
<glyph unicode="w" horiz-adv-x="532" d="M45 110v163q0 21 1 32l5 60q8 75 52 75q18 0 36 -23.5t18 -45.5l-2 -73q0 -13 2 -39q18 52 45 83t74 31q76 0 76 -154v-67l-1 -22l1 -11q10 22 39.5 82.5t44.5 94.5q55 121 85 170q4 6 17.5 32.5t25.5 41.5q0 2 7 15t20 28t25 18l13 -19l1 -2q0 -6 -4 -16.5t-4 -17.5 q0 -11 -10.5 -28t-12.5 -24q-2 -13 -26.5 -67t-24.5 -69v-7q0 -15 -13 -48.5t-14 -38.5q-1 -4 -12.5 -30t-11.5 -43q0 -2 1 -4v-2q-1 -8 -7 -24q-4 -9 -14 -36.5t-20.5 -52.5t-25.5 -51t-36 -42t-46 -16q-18 0 -46 14q-16 8 -44.5 58.5t-28.5 91.5l1 23v49q-5 -12 -5 -20v-9 q0 -8 -6.5 -27t-6.5 -25v-8q0 -22 -15 -71q-19 -57 -31.5 -74.5t-38.5 -17.5q-10 0 -34 19q-49 40 -49 144z" />
<glyph unicode="x" horiz-adv-x="348" d="M-34 -65q0 11 8 27q29 55 101 149q2 3 12 14.5t16.5 20.5t6.5 13q0 5 -14 38q-29 85 -29 139l1 41q0 22 22 35t43 13q11 0 21.5 -10t19.5 -31.5t14 -34.5t12 -40l8 -27q9 10 28.5 33.5t34.5 40t31 30.5q4 4 14 13.5t15 13t14.5 9.5t19.5 8t23 2q14 0 24 -31q2 -16 2 -26 q0 -16 -19 -40.5t-56 -62.5t-51 -54q-4 -5 -18 -20t-21 -24.5t-7 -14.5q0 -4 1 -5q30 -78 60 -144q2 -5 9 -15t9 -16q1 -6 12.5 -28.5t11.5 -28.5q0 -2 -6.5 -12.5t-7.5 -10.5l-4 1l-5 -4q-14 0 -35.5 8.5t-35.5 27.5q-35 40 -98 136l-21 -27l-34 -43q-28 -35 -48 -55l-6 -9 q-5 -8 -11 -15.5t-17.5 -14t-23.5 -6.5q-26 0 -26 37z" />
<glyph unicode="y" horiz-adv-x="472" d="M-11 126l9 35l-1 18q0 9 3 15q4 7 7 11.5t4.5 5.5t2.5 2t1 3q0 27 52 91q42 65 91 65q21 0 37 -15.5t18 -38.5q0 -20 -22 -44t-24 -33q-4 -17 -31.5 -74t-27.5 -74q32 9 89 57q10 6 21.5 21.5t20.5 21.5q24 18 68 81q7 10 12.5 31t10.5 30q14 26 58 26q13 0 58 -21 q9 -15 9 -17q0 -8 -8 -27q-15 -163 -72 -286q-1 -2 -14 -41q-1 -4 -4.5 -11.5t-5.5 -13.5t-2 -10v-7q-2 -20 -36 -92q0 -1 -5.5 -19t-13.5 -38t-20 -38q-5 -6 -14 -6q-4 0 -8 3v-6q0 -6 -3.5 -10.5t-3.5 -5.5v-5q0 -12 -17.5 -20.5t-21.5 -24.5h2q11 0 14 10 q-3 -12 -16.5 -31.5t-13.5 -22.5q0 -2 1 -6q2 -2 2 -4q0 -6 -5 -17.5t-6 -14.5q-3 -19 -9.5 -24t-32.5 -5q-27 0 -44.5 15t-20.5 41q0 18 17 93q0 1 3.5 11t7 20.5t9.5 24.5t11.5 25t12.5 18.5t13 7.5q10 0 36 66t40 113q1 3 5.5 22t9.5 27q2 6 8.5 9.5t6.5 9.5q0 11 -1 14 q0 2 3 6t3 5q-33 -31 -49 -45t-49 -32t-61 -18q-7 0 -8 1q-3 0 -28 19.5t-51.5 54.5t-26.5 68z" />
<glyph unicode="z" horiz-adv-x="504" d="M-150 -507q0 75 43 135q77 119 179 219q7 7 33 34.5t42 40.5q11 9 29 29.5t25 26.5q-12 0 -13 -10q1 7 1 26q0 6 -18 20t-18 24q0 11 11 20q-14 22 -32.5 38t-28 25.5t-9.5 20.5q0 10 20.5 30.5t32.5 24.5q5 1 17.5 5t16.5 5.5t14.5 4.5t15 5t13.5 5t13.5 5.5t12.5 6 t14.5 7.5t14 8.5t15.5 9.5q13 9 30 29.5t17 29.5q0 6 -3 8t-15 2l-160 -36q-31 0 -83.5 23.5t-72.5 27.5q-3 1 -9.5 2t-11 2.5t-9.5 4.5q-7 1 -25.5 25t-18.5 30q0 2 2 6t5 9t4 8l-8 -2q15 9 31 28q4 4 9 15.5t10.5 18.5t14.5 7q28 0 50.5 -11t37.5 -26.5t29 -31.5t33 -27 t42 -11q8 0 9 1q80 13 159 30q23 0 68.5 -18.5t45.5 -42.5q0 -35 -0.5 -51t-7.5 -43.5t-22 -38.5l-22 -16.5t-23.5 -17.5t-20 -14t-23 -14.5t-21.5 -10.5t-25 -10q-3 -2 -13 -7.5t-15 -8.5t-9.5 -11t-4.5 -18q0 -5 9 -11.5t9 -12.5l-1 -3q0 -6 29 -29t35 -23q5 0 15 6 q81 31 116 50q53 29 63 29l20 -12q0 -2 1 -3v-2q0 -11 -24 -32q-80 -73 -206 -122q-8 -4 -26.5 -45t-18.5 -51l2 -9q0 -8 -11 -28l1 -7q0 -11 -4 -15q-3 -3 -21 -22.5t-32 -32.5t-21 -17t-12 -19.5t-8 -19.5q-11 -16 -35 -48q-5 -7 -21.5 -26t-26 -32t-9.5 -21l2 -1 q0 -10 -26.5 -35t-69 -48t-77.5 -23t-52.5 13t-17.5 46zM-66 -451q0 -9 9 -9q17 0 27 10q28 23 58.5 55t44.5 49.5l50 62.5q22 27 57 109l29 69q-9 -3 -35 -26q-122 -106 -161 -180q-10 -20 -31.5 -52t-30.5 -48q-17 -28 -17 -40z" />
<glyph unicode="{" horiz-adv-x="329" d="M2 309l1 3q0 9 3 12v6q1 12 9 20q-3 3 -3 11q0 4 2.5 8.5t6.5 7t8 2.5h1q25 50 41 66l15 21l20 20l4 6t7.5 13.5t3.5 12.5q0 2 -3 14t-3 22q0 9 13 22q0 1 -1.5 6t-1.5 10l1 15q1 4 3.5 8t4.5 5l2 2l-0.5 1t-1.5 3.5t-1 5.5l10 15l4 2q-7 1 -7 13l1 6q29 60 105 106 q32 32 63 37q7 0 17 -5l1 3q17 0 25 -8l14 3q15 0 21 -9l15 -5l3 -4q21 -12 28 -24l6 -5l3 -10l-6 -8q-7 -26 -32 -26l-28 3q-11 0 -19.5 -5t-20.5 -15.5t-20 -15.5l-11 -3l-4 1q-9 -3 -12 -3q0 -13 6 -27.5t11 -19.5q3 0 9.5 -1.5t15.5 -9.5t9 -21q0 -17 -18 -40l1 -3 q1 -3 1 -6l-5 -11l-33 -32q-10 -13 -38.5 -46.5t-41.5 -52.5l-33 -37q0 -10 -6 -28q4 -8 4 -13q0 -18 -26 -27l9 -23v-10q0 -6 9 -24.5t16 -25.5q1 -2 11.5 -9.5t18.5 -18.5t8 -25l-6 -34l-9 -12q-1 -5 -3 -27t-7 -35v-3q0 -18 -19 -18v-17q-1 -5 -1 -19.5t-1 -25.5l-3 -27 l9 -31l1 -11l-3 -34l11 -9l3 -3q7 -4 7 -14q0 -5 -2 -9l4 -10l-1 -12l16 -20l3 -2q2 -2 5.5 -6t7 -8.5t6 -11.5t2.5 -14q0 -14 -11 -23t-24.5 -14t-14.5 -6l-3 5l-5 -3l-5 -9l-17 -7q-32 8 -52.5 35t-27.5 62l2 22q0 10 10 20q-3 3 -5 12q-23 119 -25 140l4 27v33l-7 4 l-8 15q0 13 7.5 28.5t12.5 20.5q-12 18 -13 21v1q0 6 -4 13l-5 20l-8 8l-1 1q-6 12 -9.5 33t-5.5 27v11l2 5l-3 2l-4 8q-1 3 -7.5 18.5t-7.5 27.5z" />
<glyph unicode="|" horiz-adv-x="622" d="M191 -224q-1 16 4.5 43.5t6.5 40.5q0 4 2.5 32.5t6 64.5t7.5 67q1 5 9 31.5t8 45.5t7.5 39t7.5 25q0 2 2 14.5t4.5 27t6.5 26.5q0 6 5 31t11 58t9 52v2q7 26 16.5 92t11.5 79l-2 26q1 7 4 20t3 18v20q0 13 3.5 34t3.5 29v15q0 11 6 29q6 31 8.5 40.5t10 24t19.5 18 t33 3.5l7 -8q16 -4 32.5 -16t16.5 -27v-6l-8 -8q-4 -7 -8 -60l1 -22l-9 -41l1 -14l-6 -39q-10 -44 -21.5 -132.5t-23.5 -138.5q0 -17 -7 -51t-7 -47v-15l-14 -79v-14q0 -17 -8.5 -52t-8.5 -41v-4q-3 -11 -5 -33t-5 -33q0 -23 -11.5 -69t-11.5 -56t3 -19v-2q0 -40 -18 -52.5 t-50 -12.5l-6 6q-23 2 -38 25l2 2z" />
<glyph unicode="}" horiz-adv-x="346" d="M-106 -231l6 8q7 26 32 26l28 -3q10 0 19 4.5t21.5 16t18.5 15.5l12 3l4 -1q2 0 6.5 1.5t5.5 1.5q0 13 -6 27.5t-11 19.5q-17 6 -25.5 13t-8.5 19q0 21 18 39q0 1 -1 3.5t-1 6.5l5 11l33 32q10 14 38.5 47t40.5 52l34 37l2 10.5t4 17.5q-4 4 -4 13q0 20 26 27l-9 23v10 q0 7 -9 25t-16 25q-1 0 -6.5 4t-10 8t-10 10t-8.5 14t-3 17l6 34l9 12q1 5 3 27t7 35v3q0 9 6.5 13.5t12.5 4.5v17q0 30 2 45l3 27l-9 31l-1 11l3 34l-11 9l-2.5 1.5t-5 5.5t-2.5 10q0 5 2 9l-4 10l1 12l-16 20l-7 7.5t-12 16t-5 18.5q0 14 11.5 23.5t25 14t13.5 5.5l3 -5 l5 3l5 9l16 7q61 -16 81 -97l-2 -22q0 -10 -10 -20l5 -12q23 -119 25 -140l-4 -27v-33l7 -4l8 -15q0 -13 -7.5 -29t-12.5 -21q11 -15 13 -20v-2q0 -2 0.5 -4.5l0.5 -2.5l8 -25l8 -8l1 -1q4 -10 6.5 -21t4.5 -21.5t4 -17.5v-11l-2 -5l3 -2l4 -8q1 -4 7 -19t8 -27l-1 -3 l-3 -12v-6q-1 -12 -9 -20q3 -3 3 -11q0 -9 -5.5 -13.5t-11.5 -4.5h-1q-25 -50 -41 -66l-15 -21l-20 -21q-15 -22 -15 -31q0 -2 3 -14.5t3 -21.5q0 -6 -2.5 -11t-6 -8t-4.5 -4q0 -1 1.5 -6t1.5 -9l-1 -16q-2 -6 -10 -14l1.5 -3t1.5 -7l-14 -17l1.5 -1.5t3.5 -4.5t2 -7l-1 -6 q-28 -59 -105 -106q-32 -32 -63 -37q-7 0 -17 5l-1 -3q-20 0 -25 8l-14 -3q-16 0 -21 9l-16 5l-2 4q-20 10 -29 24l-5 5z" />
<glyph unicode="~" horiz-adv-x="589" d="M8 77l3 36l16 37l33 47l49 58q84 80 122 118v94l8 38l10 30l25 37l29 27l28 18l35 15l28 3h33l25 -5l29 -19l24 -27l11 -16l15 -32l2 -25l-5 -18l-12 -23l-27 -31q0 4 -16 -16l-25 -31l-3 -2q-2 0 -11 -10t-9 -15q-1 0 -14 -10t-15 -12l-4 -7l-9 -7q-4 -5 -6 -7t-8 -7.5 t-13 -12.5l8 -17q9 -9 21.5 -33t19.5 -27l2 -2q2 -7 6 -11q8 -14 12 -19q37 8 94 27l75 8l13 -26l-12 -9q-12 -9 -19 -16q-9 -3 -19 -13l-4 -2l-6 -4l-30 -38l-6 9q4 -16 5 -17l-4 -4l-10 -7q7 -12 19 -25q1 -1 11 -14l30 -38l1 -16l-2 -4l-13 -8h-10l-1 1q-1 -1 -3 -3.5 l-2 -2.5l-15 -11l-9 -3q-2 -2 -4 -3.5t-3 -2.5l-10 -4l-14 1l-20 8l-42 47q-4 4 -4 6l-7 -3q-8 -2 -15.5 -5.5t-8.5 -8.5l-7 -6q-3 -2 -30.5 -10.5t-32.5 -21.5l-5 -3l-26 -10l-35 -6q-17 5 -116 5l-31 11l-10 3l-18 10l-24 18l-21 27l-12 23zM161 103l33 2l44 10l38 13 l22 2l26 17l-4 9l-9 -2v13l-18 31l-9 8v9l-6 8l-11 -2l-2 -2l-19 -6l-8 -9v-6h-7v-6l-6 -4v-3l-32 -27l-12 -17l-13 -13l-6 -12zM302 422h3l91 89v7h-5l-34 -7l-29 -16l-23 -22l-3 -28v-23zM517 120z" />
<glyph unicode="&#xa1;" horiz-adv-x="328" d="M55 -38q0 5 1.5 11t4 13.5l3.5 10.5q38 189 75 291q2 7 9.5 32.5t13 39.5t14.5 33t19.5 28.5t22.5 9.5t21 -12q18 -18 18 -48q0 -4 -9 -31q-5 -18 -11.5 -54t-13.5 -55l1 2v-4q-2 -18 -12 -51.5t-11 -38.5l-13 -56q-3 -9 -5 -25t-3 -20t-3 -16.5t-3.5 -20t-4 -21t-5 -22 t-6.5 -20t-8.5 -19t-9.5 -14t-12 -10t-14 -3.5q-59 0 -59 70zM186 573l12 36q0 10 13.5 22.5t24.5 15.5l2 -0.5t4 -0.5t6 4t10 8.5t11 5.5q4 0 9 -0.5t7 -0.5q9 0 22.5 -15.5t17.5 -15.5q11 -12 11 -33q0 -19 -6 -39t-22.5 -36.5t-40.5 -12.5h6l-23 3h-2q-3 2 -20.5 10.5 t-22.5 19.5q-1 4 -10 11.5t-9 17.5zM224 233q0 1 1 2q0 -1 -1 -2z" />
<glyph unicode="&#xa2;" horiz-adv-x="455" d="M19 233q0 39 7 60q1 3 6.5 8.5t11 14t7.5 20.5l5 9q21 19 23 61l4 11q1 1 5 4.5t5.5 4.5t5 4.5t5.5 7t6 9t8 12.5t9.5 17t12.5 23l12 8q25 0 31 6l17 7q44 0 84 -19l19 -9l68 149l19 37l9 13l16 6l4 -1l10 -20l-7 -20v-10l-3 -7l-5 -24l2 -12l-6 -29l-2 -16l-27 -81v-4 l-4 -21l1 -6q16 -12 38.5 -35.5t30.5 -30.5l4 -11v-17l-15 -15q-1 0 -10 -2t-12 -2q-5 0 -66 25l-25 -76l-33 -87l-44 -100q84 22 116 50q1 1 6.5 5t8.5 7.5t8.5 10t9.5 16.5t7 22l29 1l16 -46l-1 -12l-16 -30l-7 -7l-10 -4q-119 -97 -213 -116l-15 -34l-45 -74l-13 -35 l-17 -24l-6 -2l-18 -19l-17 -4l-5 3l-1 -1l-21 11l-4 24v16q12 39 40.5 109t31.5 78l-9 11q-82 82 -82 182zM130 170q0 -62 16 -80l14 37q10 23 53 123t67 153q-24 10 -27 10q-40 0 -85 -114q-38 -100 -38 -129z" />
<glyph unicode="&#xa3;" horiz-adv-x="630" d="M-56 32q10 5 53.5 33.5t70.5 37.5l4 24l9 12q13 5 26 23.5t20 36.5t15 39.5t9 24.5v52q0 5 2 15q-10 2 -15 2q-17 0 -34 8t-27 15t-13 6q-29 0 -45 17t-16 46l5 11q17 14 51 14q19 0 57 -4t51 -4q9 0 13 1q17 76 17 95q13 74 53 115.5t100 41.5q52 0 87.5 -21t49.5 -57 v-10l-28 -89l-27 -3q-17 27 -41.5 40.5t-65.5 21.5q-1 -1 -5 -14.5t-8 -46t-4 -70.5q0 -2 0.5 -5t0.5 -4l114 -22h3l7 -1q24 2 24 -18q0 -7 -5 -19q1 -1 1 -4q0 -10 -8 -16t-13.5 -7t-17.5 -3l1 -6l-12 -5h2l-3 -30l-106 9q0 -1 0.5 -5t0.5 -6q0 -33 -18.5 -70t-62.5 -102 q4 0 45 -9q5 -1 44 -10t72.5 -14.5t60.5 -5.5q92 0 123 81l6 8l26 17l19 -3q20 -21 30 -42q10 -25 10 -44q0 -40 -31 -70.5t-70 -44t-74 -13.5q-38 0 -130.5 14t-136.5 14q-49 0 -80 -11l-88 -21l-10 28q3 2 8 4.5l7 3.5q-3 1 -8 1q-26 0 -88 -11z" />
<glyph unicode="&#xa4;" horiz-adv-x="299" />
<glyph unicode="&#xa5;" horiz-adv-x="585" d="M-8 178q0 11 5 21q7 15 47 30t76 26.5t36 17.5q0 7 -6 31t-6 37q0 59 5 90q0 5 1 17t6 36t13 44.5t25 36t39 15.5q33 0 50.5 -33t17.5 -78q0 -29 -9 -112q35 31 72.5 67t81.5 80t70 69q74 74 87 74q9 0 16 -7t8 -19l-3 -11v-1l1 -5q0 -5 -9.5 -25t-16.5 -25q8 -1 8 -15 q0 -10 -3 -13l-35 -40q-14 -15 -39 -60q-13 -23 -47 -60.5t-47 -60.5l50 1q110 0 125 -40v2q3 -6 3 -12t-3 -11t-9 -8.5t-10 -5t-11.5 -4t-9.5 -3.5h-3q0 -10 -10.5 -14.5t-37.5 -10.5q-13 -2 -20 -4l-72 -7q-14 -3 -40.5 -6t-42.5 -5.5t-29.5 -13.5t-13.5 -31 q19 2 54.5 8.5t65 10t54.5 3.5q31 0 31 -19q0 -11 -26 -31q-4 -3 -7.5 -8.5t-5.5 -7.5q-32 -21 -54 -33q-5 -3 -14 -11.5t-16 -11.5q-23 -11 -69 -23t-61 -17q-5 -1 -6.5 -2.5t-2 -6.5t-1.5 -8q-5 -14 -22.5 -46t-23.5 -51q0 -2 -4.5 -31t-13 -49.5t-21.5 -20.5 q-14 0 -24.5 12.5t-10.5 27.5v6q0 4 -2.5 14.5t-2.5 16.5q0 18 5.5 58t5.5 60q0 2 -10.5 4.5t-15.5 2.5q-2 0 -8 -1.5t-10 -1.5q-20 0 -32.5 19.5t-12.5 38.5q0 11 4 19.5t13.5 15t16 11t22 8.5t21 5.5t23 5t18.5 3.5q2 0 7 18.5t5 23.5q-80 -18 -100 -18q-31 0 -55 14 t-24 38z" />
<glyph unicode="&#xa7;" horiz-adv-x="454" d="M-121 -72q0 12 2 16q5 21 17 33q13 10 44 10q10 0 32.5 -10.5t32.5 -13.5q53 -15 178 -15q37 0 44 38l1 1q2 8 2 13q0 4 -2 14v2q0 12 -7 23l-5 6q-5 6 -16 15t-27 19l-1 1q-13 9 -25 17q-1 0 -8 1t-14.5 3.5t-12.5 7.5q-11 7 -19.5 22t-8.5 27q0 9 7 23.5t7 16.5l1 1 q0 1 -0.5 4.5l-1.5 10.5t-1 16q0 13 7.5 22.5t18.5 15.5t12 7q2 2 12 9.5t24.5 21.5t28.5 31h1q3 15 3 16v3q0 9 3 12q-5 9 -30 17v-1q-1 0 -5 3.5t-9 12.5t-6 20v2q0 7 5.5 18t5.5 13l1 1q6 31 20 51t26 26.5t37 15t36 14.5q2 0 3.5 2t6 6t10.5 7l24 24q8 3 19 4.5t12 2.5 l1 1q6 1 15 1q50 0 73 -40q6 -9 6 -22q0 -8 -2 -12v-1q-5 -15 -22 -15q0 -9 -39 -15h-2q-14 0 -24 4t-22.5 13.5t-15.5 11.5l-10 -8q-11 -8 -23 -19t-15 -19q0 -5 4 -23v-4q12 -12 29.5 -33.5t31.5 -33.5l20 -14q11 -10 17 -12.5t37 -9.5q8 -4 15 -13l8 -9v-1q4 -6 4 -18 q0 -58 -22 -95q-5 -7 -9.5 -15.5t-7 -12t-12 -8t-28.5 -10.5q-16 0 -21 -2.5t-6 -11.5t-3 -13q-2 -2 -3.5 -9t-2.5 -8h1q-2 -6 -5 -10.5t-3 -5.5q9 -11 18 -35.5t9 -40.5q0 -12 -1 -18h-1q-8 -24 -46.5 -67.5t-86.5 -67.5l-1 -1q-2 -1 -19 -9t-23 -10t-21.5 -5.5t-31.5 -4.5 h-1q-10 0 -28.5 6t-27.5 6q2 -1 2 -3q0 -9 -25 -9l-62 5q-24 6 -26 7h-4q-43 13 -60 27h-1q-12 12 -12 33zM211 225q0 -8 3 -11.5t6 -4t9 -0.5h2q6 -1 25 -1q25 0 47 4t34 10t12 12v5t-1 4.5t-1.5 3.5t-3.5 3.5t-5 4t-7 5.5t-9 8q-8 8 -34 22q-2 1 -6 1q-25 0 -48 -25 t-23 -41z" />
<glyph unicode="&#xa8;" horiz-adv-x="398" d="M52 786q0 26 16 47t41 21q10 0 21 -7t17 -9q20 -8 34.5 -32t14.5 -45q0 -51 -58 -51q-21 0 -53.5 21t-32.5 55zM217 790q0 16 14 38.5t38 22.5l18 -5h6q14 0 29 -20t23 -40q2 -14 2 -17q0 -19 -13 -34.5t-35 -15.5q-33 0 -57.5 21t-24.5 50z" />
<glyph unicode="&#xa9;" horiz-adv-x="622" d="M39 401v-1v1zM39 400h1q2 0 2 17q0 2 -0.5 9t-0.5 12q3 9 3 15l9 30q2 3 7.5 16t19 33t43.5 60l43 45q2 2 6.5 4.5t6.5 4.5l9 9q5 3 17 9.5t16.5 8.5t13 5t18.5 4l11 6q5 0 7.5 0.5t6 2t17 6t33.5 9.5l13 2l6 1q10 0 15 -2l13 1q24 -19 41 -19q-1 -1 -1 -2q0 -5 5.5 -11 t11.5 -10t17.5 -10.5t17.5 -10.5l21 -14l22 -22l9 -12l1 -3v-1q1 0 2 -1l9 -13q1 -1 3 -3.5t4 -4.5q14 -28 23 -81l2 -11v-1l1 -1l4 -1q0 -5 -1 -8l-3 -14l1 -3q1 0 2 -1q0 -3 -2 -7.5t-6 -13t-6 -14.5l-12 -28q-25 -34 -42 -51l1 -3q-2 -1 -2.5 -2.5l-0.5 -1.5l-25 -14 q-15 -15 -42 -27l-25 -12l-28 -8q-8 -5 -43 -12l-31 -5q-6 0 -15 -3q-35 0 -70 6q-24 5 -34.5 7.5t-32.5 10.5t-41.5 23t-40.5 38q-1 2 -4 6.5t-6.5 10.5t-9 19t-10.5 31zM131 414q0 -9 1 -11v-8q0 -3 -0.5 -6.5t-0.5 -5t0.5 -4.5t2 -6t4.5 -7.5t8.5 -10.5t12.5 -15 q26 -26 100 -26h6h2t2 0.5t7.5 1t17.5 1.5l25 3l37 11l14 7t20 10.5t18 12.5l26 30q1 1 4 6t11 19t17 30v5q6 16 6 34q0 27 -12 53l-14 27q-5 4 -15 14.5t-18 16.5l-26 19l-40 16q-11 -7 -25 -7l-32 -1q-4 0 -10 -3.5t-11 -7.5t-15 -11.5t-16 -12.5q-4 -1 -15 -10.5 t-25.5 -27.5t-23.5 -37q-2 -3 -14 -20.5t-20.5 -37.5t-8.5 -41zM198 440q0 8 1 15.5t2 12t4 11t4 8.5t5.5 9l4.5 7q3 5 10.5 19.5t16.5 23.5l10 14q2 2 5 6.5t4.5 6.5t4.5 5.5t5.5 5t6 3.5t8 2.5t9.5 0.5q1 0 2 -1q2 0 3 -1l8.5 -5t17.5 -10.5t16.5 -14.5t7.5 -18 q0 -13 -19 -13l-16 4q-10 0 -25.5 -22t-28 -53t-12.5 -53q0 -12 5 -16.5t16 -4.5q12 0 31.5 6.5t39 18t28.5 22.5q1 2 2.5 4.5t2 4.5t1.5 3.5t2 2.5t2 1q9 0 13 -1l3 -13l1 -9q0 -6 -2.5 -10.5t-5 -6.5t-7 -5l-4.5 -3q-3 -2 -31.5 -22t-48.5 -30t-38 -10q-13 0 -28.5 17.5 t-26 42.5t-10.5 45z" />
<glyph unicode="&#xaa;" horiz-adv-x="343" />
<glyph unicode="&#xab;" horiz-adv-x="516" d="M45 164q0 22 14.5 49.5t28.5 38.5l43 40q14 12 40 33.5t30 24.5q49 39 74 39q20 0 32 -12t12 -31q0 -15 -10 -29.5t-15.5 -19t-25.5 -20.5q-4 -3 -16.5 -12.5t-20.5 -15.5t-20 -15.5t-20 -16.5t-15.5 -14.5t-11.5 -13t-4 -9.5q0 -7 11.5 -18.5t29.5 -25.5t23 -19 q22 -20 22 -51q0 -14 -9.5 -24t-23.5 -10l-7 1q-19 -7 -22 -7q-39 0 -89 49t-50 89zM242 173q0 20 6 38t21 36.5t25.5 28.5t35.5 32t34 30q44 44 72 44q16 0 27 -8.5t15 -18t8 -26.5v-4q0 -22 -17 -44t-53 -52t-44 -38q0 -1 3 -4t4 -5q5 -7 17.5 -22t19.5 -24t13 -22.5 t6 -26.5q0 -6 -5.5 -14t-11.5 -8q-7 0 -22.5 -10t-25.5 -10q-59 17 -72 34l-37 40q-19 19 -19 54z" />
<glyph unicode="&#xac;" horiz-adv-x="701" />
<glyph unicode="&#xad;" horiz-adv-x="415" d="M26 185q0 5 1 6q8 16 19 24.5t17 10.5t25.5 3.5t24.5 2.5q111 16 222 16q31 0 47 -10q8 -10 8 -17q0 -5 -4 -9t-11 -7.5t-10 -5.5q1 1 -1 0l-2 -2q-52 -48 -96 -49h-4l-1 1q-2 0 -3 -1q-52 -27 -98 -27h-19q-12 0 -17 -1l-36 4q-3 0 -11 -1.5t-13 -1.5q-13 0 -25 16 t-12 29v6z" />
<glyph unicode="&#xae;" horiz-adv-x="601" d="M37 401v-1v1zM37 400h1q2 0 2 17q0 2 -0.5 9t-0.5 12q3 9 3 15l9 30q2 3 7.5 16t19 33t43.5 60l43 45q1 1 3.5 2.5l5 3t4.5 3.5l9 9q5 3 12.5 7t11 6t9 5t10 4.5t10 2.5t12.5 2l11 6q5 0 7.5 0.5t6 2t17 6t33.5 9.5l13 2l6 1q10 0 15 -2l13 1q24 -19 41 -19q-1 -1 -1 -2 q0 -5 5.5 -11t11.5 -10t17.5 -10.5t17.5 -10.5l21 -14l22 -22q1 -1 2.5 -3.5t3 -4.5t3.5 -4l1 -3l2 -2l9 -13q1 -1 3 -3.5t4 -4.5q14 -28 23 -81l2 -11q0 -2 1 -2l4 -1q0 -5 -1 -8l-3 -14l1 -3q1 0 2 -1q0 -3 -2 -7.5t-6 -13t-6 -14.5l-12 -28q-25 -34 -42 -51l1 -3 q-2 -1 -2.5 -2.5l-0.5 -1.5l-25 -14q-15 -15 -42 -27l-25 -12l-28 -8q-8 -5 -43 -12l-31 -5q-6 0 -15 -3q-35 0 -70 6q-24 5 -34.5 7.5t-32.5 10.5t-41.5 23t-40.5 38q-1 2 -5.5 8.5t-11 21t-13.5 37.5zM129 382q0 -10 28 -42q26 -26 100 -26h6h2t2 0.5t7.5 1t17.5 1.5l25 3 l37 11l14 7t20 10.5t18 12.5l26 30q1 1 2.5 3t4 6.5t5.5 10t8.5 15t11.5 20.5v5q6 16 6 34q0 27 -12 53l-14 27q-5 4 -15 14.5t-18 16.5l-26 19l-40 16q-11 -7 -25 -7l-32 -1q-4 0 -10 -3.5t-11 -7.5t-15 -11.5t-16 -12.5q-4 -1 -15 -10.5t-25.5 -27.5t-23.5 -37 q-1 -2 -13.5 -20.5t-21 -38t-8.5 -40.5q0 -9 1 -11q0 -6 -0.5 -12t-0.5 -9zM188 372q0 31 6 51q1 11 3.5 25t7.5 36.5t11 40t16 30.5t21 13l7 -1q5 0 24 11q31 17 62 17q22 0 36 -15t14 -36q0 -20 -13.5 -33.5t-36 -25t-29.5 -18.5q-4 -13 -8 -14q15 -9 43.5 -23.5 t38.5 -20.5q1 -1 8 -5t9.5 -6t5.5 -6.5t3 -9.5t-8.5 -8t-14.5 -3q-15 0 -62.5 26t-60.5 26l-13 -6q-13 -7 -13 -10v-3q0 -6 -2 -12.5t-5.5 -15.5t-4.5 -14q-9 -27 -21 -27q-13 0 -18.5 12t-5.5 25zM270 487l19 7h1q0 1 5 3q6 1 17.5 9t22 20.5t10.5 22.5q-28 -6 -44.5 -17.5 t-28.5 -36.5z" />
<glyph unicode="&#xaf;" horiz-adv-x="238" d="M32 116q0 14 3 38t3 28v4l-1 3l2 8q21 73 30 91q6 13 17 38.5t20.5 45.5t19.5 36q2 3 17 33t30.5 56.5t39.5 50t45 23.5q50 0 73 -47q1 -3 1 -12q0 -25 -18.5 -62t-39.5 -61q-28 -33 -61 -104t-46 -92q-20 -44 -20 -93v-11q0 -12 7 -41t13 -35q3 -3 14.5 -13t18 -19.5 t6.5 -20.5q0 -10 -9.5 -18t-23.5 -8q-11 0 -32 7.5t-48.5 32t-38.5 59.5q-22 32 -22 83z" />
<glyph unicode="&#xb0;" horiz-adv-x="0" />
<glyph unicode="&#xb1;" horiz-adv-x="461" />
<glyph unicode="&#xb4;" horiz-adv-x="333" d="M53 738q0 32 71.5 81.5t128.5 49.5q3 0 9 -1.5t12 -5.5t6 -10q0 -9 -9.5 -21.5t-9.5 -13.5q0 -4 4.5 -8t4.5 -5q0 -2 -8 -14t-23.5 -29t-34 -33t-43.5 -27.5t-49 -11.5q-59 0 -59 49z" />
<glyph unicode="&#xb5;" horiz-adv-x="389" d="M-90 -189q0 26 12 75.5t12 73.5l-1 15q0 11 3.5 25t9.5 31.5t8 26.5q23 84 64 202q26 77 40 99q6 9 12.5 28t13 30.5t17.5 11.5q18 0 45 -24.5t27 -43.5q0 -8 -6 -24.5t-6 -26.5q0 -4 5 -12.5t5 -13.5q0 -28 -40 -108q-9 -17 -19 -55q-3 -9 -11.5 -29t-11.5 -36q2 0 5 -2 t5 -2t19 10q18 8 31.5 23t18 23.5t15 34t12.5 30.5q2 6 12 32t15.5 39.5t15.5 32.5t19 28t18 9q11 0 28 -13.5t24 -15.5l-2 -1q-1 0 -3 -1h21q6 0 12 -21t6 -33q0 -16 -3 -34t-8.5 -43t-7.5 -35q24 13 39 13q4 0 12 -4.5t10 -9.5q4 -15 4 -31q-7 -18 -13 -28.5t-18.5 -20.5 t-29.5 -10q-12 0 -52 10q-5 1 -10.5 5.5t-8 8.5t-7 11t-6.5 9q-29 -53 -56 -89q-42 -52 -103 -52q-32 0 -55 17q-7 -9 -7 -17l1 -12v-2q0 1 -4 1q-9 0 -24 -41q-4 -9 -10.5 -32.5t-11.5 -37t-17.5 -25.5t-29.5 -12q-35 0 -35 43z" />
<glyph unicode="&#xb6;" horiz-adv-x="374" />
<glyph unicode="&#xb7;" horiz-adv-x="211" d="M13 242l3 6l5 21l7 5l1 8l4 8l22 24l12 8l12 2l25 -7l28 -5l11 -7l1 -3h6l8 -7l8 -14l4 1l10 -7l11 -15l3 -7l5 -35l-1 -14l1 -6l-5 -4l-6 -16l-13 -7l-13 -4l-6 -8l-14 -6l-25 3l-27 9l-36 25l-6 16v-9l-6 6l-3 9l-19 9z" />
<glyph unicode="&#xb8;" horiz-adv-x="400" />
<glyph unicode="&#xba;" horiz-adv-x="353" />
<glyph unicode="&#xbb;" horiz-adv-x="542" d="M-2 90q0 19 15 40.5t32 33.5q35 25 80 53q-28 22 -51 53.5t-23 56.5q0 6 5 14t11 8q7 0 22.5 10.5t24.5 10.5q8 0 19 -8t16 -8q7 -1 12 -5t12 -12t9 -10q1 -1 16 -15t22 -22t18 -22.5t16.5 -28.5t5.5 -28q0 -10 -17 -37q-3 -5 -8.5 -8.5t-13.5 -7.5t-11 -6 q-78 -66 -92 -78q-46 -41 -70 -41q-20 0 -35 18t-15 39zM158 53q0 16 5.5 30t18.5 25.5t23.5 20t32.5 18t33.5 14.5t37 14t33.5 12q-91 71 -91 145q0 20 18.5 37.5t34.5 17.5q9 0 17 -4.5t15.5 -11.5t10.5 -9l80 -51q18 -13 39.5 -43.5t21.5 -54.5v-5q1 -3 1 -15 q0 -9 -2 -25q-3 -16 -40 -47t-68 -31l-9 1l-12 -6l-77 -18q-6 -1 -19.5 -10t-19.5 -9h-4l-1 1l-4 -3l-10 -5l-13 -6.5t-15 -6t-14 -2.5q-11 0 -17 8t-6 19z" />
<glyph unicode="&#xbf;" horiz-adv-x="475" d="M7 31v1q0 8 4 25t4 25q2 4 4.5 11.5t4.5 10.5q10 11 28 36q2 2 13.5 12.5t18.5 19.5l31 30q7 10 25 26q39 33 55.5 48t41 43t36.5 53q9 20 32.5 42.5t47.5 22.5q27 0 27 -31l3 -5q0 -6 -1 -10.5t-4 -10t-4 -8.5q-48 -94 -93 -150l-1 -1q-9 -11 -34 -39t-42.5 -50 t-21.5 -38q0 -23 5 -29l10 -6q2 -2 2 -3l1 -1l-2 -2l1 -1q1 0 2.5 -0.5t2.5 -0.5v2l5 -2q5 -2 6 -2q3 -7 14 -7q21 0 60 26t65 28h1q12 0 25 -12t16 -13q9 -9 9 -18q0 -4 -2 -10q0 -10 -19 -33t-49 -48.5t-78 -45t-97 -19.5q-55 0 -102 39.5t-51 94.5zM297 548q0 18 24 60 q6 6 19.5 14.5t23.5 17.5q1 0 5 2t8 2.5t13 0.5h6q11 -4 17 -7.5t12.5 -9t12.5 -9.5q3 -3 8.5 -12.5t5.5 -10.5l1 -8l3.5 -3.5t3.5 -4t2 -1.5l3 -16q-10 -23 -28 -48l-6 -5l-4 -2l-2 -1l-1 -2q-2 -2 -8.5 -7t-9.5 -8q-3 -2 -8 -5t-8 -5h-1q-3 -2 -6 -2q-24 0 -41 8h-2v-3 q-2 0 -4.5 1t-3.5 2l-1 1h1l-5 3l-1 3l-8 3q-11 11 -11 24l-1 -1l-3 5l-2 3z" />
<glyph unicode="&#xc0;" horiz-adv-x="399" d="M-4 -29q0 15 5.5 37t11.5 39.5t16.5 45.5t14.5 41q9 24 9 25l-3 17q1 14 8.5 29.5t16.5 23.5q9 6 19 36.5t17 40.5q9 18 88 193q53 125 88 125q32 0 48 -11l6 -2l11 -7q36 -23 42 -80l2 -24q0 -101 -15 -179q-2 -8 -4.5 -34.5t-6.5 -35.5l1 1q-3 -4 -3 -13q0 -6 4.5 -15 t4.5 -16q0 -9 -6.5 -26t-6.5 -45v-4v-1q1 -12 5.5 -56.5t4.5 -67.5q0 -39 -13.5 -77t-30.5 -38q-4 0 -8 3t-6.5 8t-5 11t-4.5 13.5t-3 12.5t-2.5 11t-1.5 8q-3 13 -8.5 43.5t-10 53t-6.5 24.5q-3 2 -22.5 26t-24.5 24l-6 -1l-17 -2q-18 -1 -36 -5t-19 -11q-23 -76 -29 -87 q-5 -5 -12 -34t-21.5 -52.5t-39.5 -23.5q-19 0 -35 17t-16 39zM179 797q0 21 12 29t39 8q18 0 45 -24l67 -59q5 -4 15 -12.5t17 -14t16.5 -14t16 -15t13 -13.5t9.5 -12t3 -9q0 -16 -13 -23.5t-26 -7.5q-15 0 -35.5 7.5t-39.5 18t-35 23.5q-6 5 -31.5 23.5t-37 28.5 t-23.5 28.5t-12 37.5zM196 245q66 0 66 6l2 47q4 41 4 92l-1 36q-55 -131 -71 -181zM364 132q0 -2 1 -3v1q-1 1 -1 2z" />
<glyph unicode="&#xc1;" horiz-adv-x="413" d="M-4 -29q0 15 5.5 37t11.5 39.5t16.5 45.5t14.5 41q9 24 9 25l-3 17q1 14 8.5 29.5t16.5 23.5q9 6 19 36.5t17 40.5q9 18 88 193q53 125 88 125q32 0 48 -11l6 -2l11 -7q36 -23 42 -80l2 -24q0 -101 -15 -179q-2 -8 -4.5 -34.5t-6.5 -35.5l1 1q-3 -4 -3 -13q0 -6 4.5 -15 t4.5 -16q0 -9 -6.5 -26t-6.5 -45v-4v-1q1 -12 5.5 -56.5t4.5 -67.5q0 -39 -13.5 -77t-30.5 -38q-4 0 -8 3t-6.5 8t-5 11t-4.5 13.5t-3 12.5t-2.5 11t-1.5 8q-3 13 -8.5 43.5t-10 53t-6.5 24.5q-3 2 -22.5 26t-24.5 24l-6 -1l-17 -2q-18 -1 -36 -5t-19 -11q-23 -76 -29 -87 q-5 -5 -12 -34t-21.5 -52.5t-39.5 -23.5q-19 0 -35 17t-16 39zM196 245q66 0 66 6l2 47q4 41 4 92l-1 36q-55 -131 -71 -181zM247 738q0 12 13 29t34.5 34.5t47 33t54 25t51.5 9.5q3 0 9 -1.5t12 -5.5t6 -10q0 -2 -1 -3.5l-2 -3l-2 -3t-1 -2.5q1 0 2 1q-2 -7 -3 -8v4 q-1 -2 -2 -6t-3 -7t-5 -4q-2 0 -2 -3q0 -4 4.5 -8t4.5 -5t-4 -8t-12.5 -17.5t-19 -22.5t-24.5 -24t-29 -21.5t-33.5 -15.5t-35.5 -6q0 -2 -14.5 -0.5t-29.5 13.5t-15 36zM364 132q0 -2 1 -3v1q-1 1 -1 2z" />
<glyph unicode="&#xc2;" horiz-adv-x="413" d="M-4 -29q0 15 5.5 37t11.5 39.5t16.5 45.5t14.5 41q9 24 9 25l-3 17q1 14 8.5 29.5t16.5 23.5q9 6 19 36.5t17 40.5q9 18 88 193q53 125 88 125q32 0 48 -11l6 -2l11 -7q36 -23 42 -80l2 -24q0 -101 -15 -179q-2 -8 -4.5 -34.5t-6.5 -35.5l1 1q-3 -4 -3 -13q0 -6 4.5 -15 t4.5 -16q0 -9 -6.5 -26t-6.5 -45v-4v-1q1 -12 5.5 -56.5t4.5 -67.5q0 -39 -13.5 -77t-30.5 -38q-4 0 -8 3t-6.5 8t-5 11t-4.5 13.5t-3 12.5t-2.5 11t-1.5 8q-3 13 -8.5 43.5t-10 53t-6.5 24.5q-3 2 -22.5 26t-24.5 24l-6 -1l-17 -2q-18 -1 -36 -5t-19 -11q-23 -76 -29 -87 q-5 -5 -12 -34t-21.5 -52.5t-39.5 -23.5q-19 0 -35 17t-16 39zM177 702q0 17 30.5 60.5t69.5 81.5t59 38q12 0 22 -7q22 -15 38.5 -34.5t25.5 -36t22.5 -40t24.5 -39.5q2 -10 2 -13q0 -13 -9 -24t-22 -11q-17 0 -34 19t-34 48.5t-25 38.5q-6 -7 -13.5 -16.5t-14 -17t-14 -16 t-15.5 -18t-17 -18.5q-1 -1 -4.5 -6.5t-6 -9t-8 -9t-10 -8.5t-11 -5.5t-13.5 -2.5t-14.5 4t-14 10.5t-10.5 15t-4 16.5zM196 245q66 0 66 6l2 47q4 41 4 92l-1 36q-55 -131 -71 -181zM364 132q0 -2 1 -3v1q-1 1 -1 2z" />
<glyph unicode="&#xc3;" horiz-adv-x="413" d="M-4 -29q0 15 5.5 37t11.5 39.5t16.5 45.5t14.5 41q9 24 9 25l-3 17q1 14 8.5 29.5t16.5 23.5q9 6 19 36.5t17 40.5q9 18 88 193q53 125 88 125q32 0 48 -11l6 -2l11 -7q36 -23 42 -80l2 -24q0 -101 -15 -179q-2 -8 -4.5 -34.5t-6.5 -35.5l1 1q-3 -4 -3 -13q0 -6 4.5 -15 t4.5 -16q0 -9 -6.5 -26t-6.5 -45v-4v-1q1 -12 5.5 -56.5t4.5 -67.5q0 -39 -13.5 -77t-30.5 -38q-4 0 -8 3t-6.5 8t-5 11t-4.5 13.5t-3 12.5t-2.5 11t-1.5 8q-3 13 -8.5 43.5t-10 53t-6.5 24.5q-3 2 -22.5 26t-24.5 24l-6 -1l-17 -2q-18 -1 -36 -5t-19 -11q-23 -76 -29 -87 q-5 -5 -12 -34t-21.5 -52.5t-39.5 -23.5q-19 0 -35 17t-16 39zM187 725l1 6q-1 1 -1 6q0 18 5 28q11 24 22.5 39.5t23.5 21t19 7t19 1.5h3l26 -5l11 -5l31 -21l23 -24l4 -11v3q2 -8 5 -11h3q12 4 15 7l38 45q9 10 17 16.5t14 8t10 1.5t7.5 -1t4.5 -1l3 1q3 0 11 -2h3l9 -5 l6 -19q-2 -5 -6 -11v-2q-5 -11 -19 -28q-5 -10 -17 -33l1 -6l-14 -22l-12 -10q-1 -1 -4.5 -3.5t-6.5 -4.5t-5 -4q-15 -7 -46 -7h-1q-45 3 -91 34l-4 2q-2 2 -6 4l-1 1q-8 3 -10 4l-0.5 -2t-0.5 -4q-4 -15 -14.5 -22.5t-22.5 -7.5q-6 0 -10 1h-2l-9 2h-6q-7 2 -12 6.5t-7 9 t-7 17.5zM196 245q66 0 66 6l2 47q4 41 4 92l-1 36q-55 -131 -71 -181zM364 132q0 -2 1 -3v1q-1 1 -1 2z" />
<glyph unicode="&#xc4;" horiz-adv-x="413" d="M-4 -29q0 15 5.5 37t11.5 39.5t16.5 45.5t14.5 41q9 24 9 25l-3 17q1 14 8.5 29.5t16.5 23.5q9 6 19 36.5t17 40.5q9 18 88 193q53 125 88 125q32 0 48 -11l6 -2l11 -7q36 -23 42 -80l2 -24q0 -101 -15 -179q-2 -8 -4.5 -34.5t-6.5 -35.5l1 1q-3 -4 -3 -13q0 -6 4.5 -15 t4.5 -16q0 -9 -6.5 -26t-6.5 -45v-4v-1q1 -12 5.5 -56.5t4.5 -67.5q0 -39 -13.5 -77t-30.5 -38q-4 0 -8 3t-6.5 8t-5 11t-4.5 13.5t-3 12.5t-2.5 11t-1.5 8q-3 13 -8.5 43.5t-10 53t-6.5 24.5q-3 2 -22.5 26t-24.5 24l-6 -1l-17 -2q-18 -1 -36 -5t-19 -11q-23 -76 -29 -87 q-5 -5 -12 -34t-21.5 -52.5t-39.5 -23.5q-19 0 -35 17t-16 39zM174 722q0 26 16 47t41 21q10 0 21 -7t17 -9q20 -8 34.5 -32t14.5 -45q0 -51 -58 -51q-21 0 -53.5 21t-32.5 55zM196 245q66 0 66 6l2 47q4 41 4 92l-1 36q-55 -131 -71 -181zM339 726q0 9 5 22.5t18 26 t29 12.5l18 -5h6q10 0 21 -11t18.5 -24t12.5 -25q2 -14 2 -17q0 -9 -3 -17.5t-9 -16t-15.5 -12t-20.5 -4.5q-33 0 -57.5 21t-24.5 50zM364 132q0 -2 1 -3v1q-1 1 -1 2z" />
<glyph unicode="&#xc5;" horiz-adv-x="413" d="M-4 -29q0 15 5.5 37t11.5 39.5t16.5 45.5t14.5 41q9 24 9 25l-3 17q1 14 8.5 29.5t16.5 23.5q9 6 19 36.5t17 40.5q9 18 88 193q53 125 88 125q32 0 48 -11l6 -2l11 -7q36 -23 42 -80l2 -24q0 -101 -15 -179q-2 -8 -4.5 -34.5t-6.5 -35.5l1 1q-3 -4 -3 -13q0 -6 4.5 -15 t4.5 -16q0 -9 -6.5 -26t-6.5 -45v-4v-1q1 -12 5.5 -56.5t4.5 -67.5q0 -39 -13.5 -77t-30.5 -38q-4 0 -8 3t-6.5 8t-5 11t-4.5 13.5t-3 12.5t-2.5 11t-1.5 8q-3 13 -8.5 43.5t-10 53t-6.5 24.5q-3 2 -22.5 26t-24.5 24l-6 -1l-17 -2q-18 -1 -36 -5t-19 -11q-23 -76 -29 -87 q-5 -5 -12 -34t-21.5 -52.5t-39.5 -23.5q-19 0 -35 17t-16 39zM196 245q66 0 66 6l2 47q4 41 4 92l-1 36q-55 -131 -71 -181zM242 747q0 4 2 22l9 20v6l5 6q19 39 37 50l29 15l20 6l31 -7q5 -5 15 -11l10 -11l6 -4.5t12.5 -11.5t11.5 -15l11 -24q1 -3 2.5 -8.5t1.5 -7.5 q0 -31 -9 -55l-7 -7q-15 -17 -46.5 -34t-45.5 -17q-7 0 -9 2q-1 0 -8.5 -1.5t-9.5 -1.5q-5 0 -22 6.5t-20 9.5q-18 18 -22 30t-4 43zM312 738q0 -18 9 -18q0 3 30 19q25 13 25 29q0 29 -21 29q-3 0 -13 -10l-13 -15q-17 -11 -17 -34zM364 132q0 -2 1 -3v1q-1 1 -1 2z" />
<glyph unicode="&#xc6;" horiz-adv-x="689" d="M13 23q0 28 16 68.5t18 61.5q7 44 19 62q2 3 8.5 6.5t6.5 4.5q4 4 17 39q24 49 79.5 156.5t67.5 130.5q1 2 6.5 13.5t7.5 14.5t7.5 12.5t8.5 13t9 10t11.5 9t13 5t15.5 2.5q30 0 52 -21t32 -42.5t12 -21.5q7 0 73.5 8.5t111.5 8.5q3 0 6.5 -0.5t4.5 -0.5q7 0 37 3t52 3 q47 -6 62 -34q1 -2 1 -8q0 -8 -8.5 -14t-24 -10.5t-29 -7.5t-33.5 -6.5t-27 -4.5q-71 -17 -145 -17q-8 0 -17.5 -5.5t-15 -10.5t-16 -16t-11.5 -12q-10 -47 -10 -62q0 -5 3 -8q4 -4 9.5 -18t12.5 -25.5t14 -11.5q18 0 47.5 8.5t44.5 8.5q71 0 71 -42q0 -11 -11 -21.5 t-24 -12.5q-24 -4 -66 -14t-52 -10h-14q-22 0 -46 -28q-10 -12 -10 -65q0 -71 115 -71q11 0 21 3.5t16 3.5q3 0 8 -2q24 -6 24 -51q-2 -11 -6 -16q-11 -13 -55.5 -25.5t-80.5 -12.5q-108 0 -156 98q-9 19 -14.5 50.5t-6.5 37.5q-1 7 -18.5 17.5t-26.5 10.5q-14 0 -102 -88 q-8 -8 -20 -35t-27.5 -45.5t-38.5 -18.5q-14 0 -21.5 13.5t-7.5 31.5zM210 267l35 8q13 2 21 10t11 23.5t3.5 25t0 32.5t-0.5 27l-1 24l1 12q-52 -106 -70 -162z" />
<glyph unicode="&#xc7;" horiz-adv-x="377" d="M-1 122v38l9 49l7 13l1 8l6 17q1 3 14 26.5t19 36.5l5 7l1.5 1.5t1.5 0.5q9 20 36 54l19 23l1 4l34 40q6 8 18.5 23.5t15.5 19.5l15 11l30 34l7 4l17 13l6 8l9 6h9l23 11l55 9h12l31 -14l7 -5l3 -5l1 1v0l1 -1l10 -5l13 -8l12 -17l13 -28l-2 -4h1l3 -17l5 -35l-10 -6v-7 l-3 -3l1 -3q-9 -4 -13 -9l-3 1l-10 -4l-5 5l-3 -2l-12 7h-6q-6 -2 -12 -2h-7l-11 4l-5 5q0 1 -2.5 2.5t-2.5 4.5l-9 2l-12 -17l-14 -16l-3 -7l-6 -7l-18 -11l-8 -14l-10 -9l-40 -53q-7 -14 -44 -69l-8 -23l-26 -56l-3 -20l-5 -19v-37l9 -14l14 -8l44 -10l44 4l11 -1l14 1 l9 -4l9 -13l1 -16l-2 -12l-11 -11l1 -2l-13 -6l-33 -10l-14 -3l-3 -3l-16 -2l-16 -1l8 -3l14 -7l17 -18l13 -29l1 -10l-2 -8l-15 -11l-7 -7q-12 -7 -49 -26l-86 -33h-19l-8 2l-19 8l-3 3l3 24q13 8 40 21t33 16l-2 2l-2 -2l-1 2l-8 5l-1 -1l-10 6l-7 12l-2 22l2 8l19 35 q-5 3 -15 7t-12 5l-44 35l-20 25l-19 41l-2 17z" />
<glyph unicode="&#xc8;" horiz-adv-x="474" d="M53 173q0 79 22 145q3 9 10.5 31t12 38.5t4.5 25.5q-12 21 -12 31q0 2 2 7.5t2 7.5q15 40 29 48q7 3 30 26q0 2 -1 3v2q0 17 16.5 26.5t34.5 9.5q3 0 15.5 -2t18.5 -2l75 3l114 -3q14 2 15 2q91 0 122 -27q3 -7 3 -14q0 -17 -18.5 -23.5t-44.5 -8t-33 -5.5 q-5 -3 -23.5 -10t-54.5 -14.5t-67 -7.5q-9 0 -23 -9q-35 -26 -49 -38.5t-29.5 -35t-22.5 -51.5q57 3 58 3l27 -1l16 1q4 0 15 -2t18 -2t18.5 2.5t17.5 2.5q30 0 30 -26q0 -16 -11 -28.5t-31.5 -20t-36 -11.5t-38 -8t-24.5 -4q-1 0 -18.5 -1t-33 -4t-24.5 -11q-8 -7 -18 -21 t-10 -19q0 -29 4.5 -45t10 -18.5t14 -4t11.5 -3.5q16 -16 20 -16q21 0 96 17l29 7q9 0 14 -3.5t6 -8t3 -16.5q-3 0 -3 -13q-24 -92 -147 -92q-37 0 -65.5 13t-44 29.5t-26.5 45t-15 45.5t-8 45q-1 9 -2 13zM196 787q0 21 12 29t39 8q18 0 45 -24l67 -59q2 -2 20.5 -17 t26 -22t20 -18.5t18 -19.5t5.5 -13q0 -16 -13 -23.5t-26 -7.5q-47 0 -110 49q-6 5 -31.5 23.5t-37 28.5t-23.5 28.5t-12 37.5z" />
<glyph unicode="&#xc9;" horiz-adv-x="474" d="M53 173q0 79 22 145q3 9 10.5 31t12 38.5t4.5 25.5q-12 21 -12 31q0 2 2 7.5t2 7.5q15 40 29 48q7 3 30 26q0 2 -1 3v2q0 17 16.5 26.5t34.5 9.5q3 0 15.5 -2t18.5 -2l75 3l114 -3q14 2 15 2q91 0 122 -27q3 -7 3 -14q0 -17 -18.5 -23.5t-44.5 -8t-33 -5.5 q-5 -3 -23.5 -10t-54.5 -14.5t-67 -7.5q-9 0 -23 -9q-35 -26 -49 -38.5t-29.5 -35t-22.5 -51.5q57 3 58 3l27 -1l16 1q4 0 15 -2t18 -2t18.5 2.5t17.5 2.5q30 0 30 -26q0 -16 -11 -28.5t-31.5 -20t-36 -11.5t-38 -8t-24.5 -4q-1 0 -18.5 -1t-33 -4t-24.5 -11q-8 -7 -18 -21 t-10 -19q0 -29 4.5 -45t10 -18.5t14 -4t11.5 -3.5q16 -16 20 -16q21 0 96 17l29 7q9 0 14 -3.5t6 -8t3 -16.5q-3 0 -3 -13q-24 -92 -147 -92q-37 0 -65.5 13t-44 29.5t-26.5 45t-15 45.5t-8 45q-1 9 -2 13zM295 738q0 32 71.5 81.5t128.5 49.5q3 0 9 -1.5t12 -5.5t6 -10 q0 -3 -3 -7t-3 -5q1 0 2 1q-2 -7 -3 -8v4q-1 -2 -2 -6t-3 -7t-5 -4q-2 0 -2 -3q0 -4 4.5 -8t4.5 -5q0 -2 -8 -14t-23.5 -29t-34 -33t-43.5 -27.5t-49 -11.5q0 -2 -14.5 -0.5t-29.5 13.5t-15 36z" />
<glyph unicode="&#xca;" horiz-adv-x="474" d="M53 173q0 79 22 145q3 9 10.5 31t12 38.5t4.5 25.5q-12 21 -12 31q0 2 2 7.5t2 7.5q15 40 29 48q7 3 30 26q0 2 -1 3v2q0 17 16.5 26.5t34.5 9.5q3 0 15.5 -2t18.5 -2l75 3l114 -3q14 2 15 2q91 0 122 -27q3 -7 3 -14q0 -17 -18.5 -23.5t-44.5 -8t-33 -5.5 q-5 -3 -23.5 -10t-54.5 -14.5t-67 -7.5q-9 0 -23 -9q-35 -26 -49 -38.5t-29.5 -35t-22.5 -51.5q57 3 58 3l27 -1l16 1q4 0 15 -2t18 -2t18.5 2.5t17.5 2.5q30 0 30 -26q0 -16 -11 -28.5t-31.5 -20t-36 -11.5t-38 -8t-24.5 -4q-1 0 -18.5 -1t-33 -4t-24.5 -11q-8 -7 -18 -21 t-10 -19q0 -29 4.5 -45t10 -18.5t14 -4t11.5 -3.5q16 -16 20 -16q21 0 96 17l29 7q9 0 14 -3.5t6 -8t3 -16.5q-3 0 -3 -13q-24 -92 -147 -92q-37 0 -65.5 13t-44 29.5t-26.5 45t-15 45.5t-8 45q-1 9 -2 13zM226 702q0 28 64.5 104t94.5 76q12 0 22 -7q28 -19 46 -43 t35.5 -57t29.5 -50q2 -10 2 -13q0 -13 -9 -24t-22 -11q-17 0 -34 19t-34 48.5t-25 38.5q-8 -9 -21.5 -26t-26 -31.5t-26.5 -28.5q-1 -1 -4.5 -6.5t-6 -9t-8 -9t-10 -8.5t-11 -5.5t-13.5 -2.5q-15 0 -29 14.5t-14 31.5z" />
<glyph unicode="&#xcb;" horiz-adv-x="474" d="M53 173q0 79 22 145q3 9 10.5 31t12 38.5t4.5 25.5q-12 21 -12 31q0 2 2 7.5t2 7.5q15 40 29 48q7 3 30 26q0 2 -1 3v2q0 17 16.5 26.5t34.5 9.5q3 0 15.5 -2t18.5 -2l75 3l114 -3q14 2 15 2q91 0 122 -27q3 -7 3 -14q0 -17 -18.5 -23.5t-44.5 -8t-33 -5.5 q-5 -3 -23.5 -10t-54.5 -14.5t-67 -7.5q-9 0 -23 -9q-35 -26 -49 -38.5t-29.5 -35t-22.5 -51.5q57 3 58 3l27 -1l16 1q4 0 15 -2t18 -2t18.5 2.5t17.5 2.5q30 0 30 -26q0 -16 -11 -28.5t-31.5 -20t-36 -11.5t-38 -8t-24.5 -4q-1 0 -18.5 -1t-33 -4t-24.5 -11q-8 -7 -18 -21 t-10 -19q0 -29 4.5 -45t10 -18.5t14 -4t11.5 -3.5q16 -16 20 -16q21 0 96 17l29 7q9 0 14 -3.5t6 -8t3 -16.5q-3 0 -3 -13q-24 -92 -147 -92q-37 0 -65.5 13t-44 29.5t-26.5 45t-15 45.5t-8 45q-1 9 -2 13zM174 708q0 26 16 47t41 21q10 0 21 -7t17 -9q20 -8 34.5 -32 t14.5 -45q0 -51 -58 -51q-21 0 -53.5 21t-32.5 55zM339 712q0 16 14 38.5t38 22.5l18 -5h6q14 0 29 -20t23 -40q2 -14 2 -17q0 -19 -13 -34.5t-35 -15.5q-33 0 -57.5 21t-24.5 50z" />
<glyph unicode="&#xcc;" horiz-adv-x="250" d="M34 119q0 19 4 44.5t7.5 42t12 50t11.5 45.5l7 17q38 124 83 203q7 16 26.5 35t45.5 19q37 0 44 -53v-7q0 -37 -17 -79q-59 -136 -90 -249q-2 -8 -8.5 -25.5t-11 -34t-6.5 -32.5q-1 -4 -3.5 -23.5t-5 -31t-6.5 -31t-9.5 -31.5t-13 -25t-18 -19t-22.5 -6q-7 0 -12.5 2.5 t-8.5 8t-5 10.5t-2.5 15t-0.5 16v18v17l2 42zM106 771q0 21 12 29t39 8q18 0 45 -24l67 -59q2 -2 20.5 -17t26 -22t20 -18.5t18 -19.5t5.5 -13q0 -16 -13 -23.5t-26 -7.5q-47 0 -110 49q-6 5 -31.5 23.5t-37 28.5t-23.5 28.5t-12 37.5z" />
<glyph unicode="&#xcd;" horiz-adv-x="250" d="M34 119q0 19 4 44.5t7.5 42t12 50t11.5 45.5l7 17q38 124 83 203q7 16 26.5 35t45.5 19q37 0 44 -53v-7q0 -37 -17 -79q-59 -136 -90 -249q-2 -8 -8.5 -25.5t-11 -34t-6.5 -32.5q-1 -4 -3.5 -23.5t-5 -31t-6.5 -31t-9.5 -31.5t-13 -25t-18 -19t-22.5 -6q-7 0 -12.5 2.5 t-8.5 8t-5 10.5t-2.5 15t-0.5 16v18v17l2 42zM186 738q0 32 71.5 81.5t128.5 49.5q3 0 9 -1.5t12 -5.5t6 -10q0 -3 -3 -7t-3 -5q1 0 2 1q-2 -7 -3 -8v4q-1 -2 -2 -6t-3 -7t-5 -4q-2 0 -2 -3q0 -4 4.5 -8t4.5 -5q0 -2 -8 -14t-23.5 -29t-34 -33t-43.5 -27.5t-49 -11.5 q0 -2 -14.5 -0.5t-29.5 13.5t-15 36z" />
<glyph unicode="&#xce;" horiz-adv-x="250" d="M34 119q0 19 4 44.5t7.5 42t12 50t11.5 45.5l7 17q38 124 83 203q7 16 26.5 35t45.5 19q37 0 44 -53v-7q0 -37 -17 -79q-59 -136 -90 -249q-2 -8 -8.5 -25.5t-11 -34t-6.5 -32.5q-1 -4 -3.5 -23.5t-5 -31t-6.5 -31t-9.5 -31.5t-13 -25t-18 -19t-22.5 -6q-7 0 -12.5 2.5 t-8.5 8t-5 10.5t-2.5 15t-0.5 16v18v17l2 42zM116 702q0 28 64.5 104t94.5 76q12 0 22 -7q28 -19 46 -43t35.5 -57t29.5 -50q2 -10 2 -13q0 -13 -9 -24t-22 -11q-17 0 -34 19t-34 48.5t-25 38.5q-8 -9 -21.5 -26t-26 -31.5t-26.5 -28.5q-1 -1 -4.5 -6.5t-6 -9t-8 -9 t-10 -8.5t-11 -5.5t-13.5 -2.5q-15 0 -29 14.5t-14 31.5z" />
<glyph unicode="&#xcf;" horiz-adv-x="250" d="M34 119q0 19 4 44.5t7.5 42t12 50t11.5 45.5l7 17q38 124 83 203q7 16 26.5 35t45.5 19q37 0 44 -53v-7q0 -37 -17 -79q-59 -136 -90 -249q-2 -8 -8.5 -25.5t-11 -34t-6.5 -32.5q-1 -4 -3.5 -23.5t-5 -31t-6.5 -31t-9.5 -31.5t-13 -25t-18 -19t-22.5 -6q-7 0 -12.5 2.5 t-8.5 8t-5 10.5t-2.5 15t-0.5 16v18v17l2 42zM174 708q0 26 16 47t41 21q10 0 21 -7t17 -9q20 -8 34.5 -32t14.5 -45q0 -51 -58 -51q-21 0 -53.5 21t-32.5 55zM339 712q0 16 14 38.5t38 22.5l18 -5h6q14 0 29 -20t23 -40q2 -14 2 -17q0 -19 -13 -34.5t-35 -15.5 q-33 0 -57.5 21t-24.5 50z" />
<glyph unicode="&#xd0;" horiz-adv-x="479" d="M-47 275q0 16 5.5 27.5t13 17.5t20.5 9.5t22.5 4.5t25 2t21.5 2q2 0 6.5 29.5t10 68.5t8.5 54q1 6 1 25.5t5 33t18 20.5q2 1 29 20t45 19q12 0 27.5 4.5t25.5 4.5q3 0 4 -1q20 -10 55 -16q13 -2 33 -11.5t40.5 -23t36.5 -26.5q9 -10 17.5 -21.5t20.5 -30t15 -22.5 q9 -18 16 -67t7 -75q0 -14 -7 -54q-11 -61 -95 -149t-198 -135q-4 -1 -11.5 -1.5t-9.5 -1.5q0 -1 -7 -3.5t-18 -5.5t-18 -3l-22 5q-4 0 -9.5 -0.5t-7.5 -0.5q-4 0 -9 3t-6 3q-2 0 -2 -1v-1q-3 0 -6 3t-4 3l-11 -1q-29 0 -29 22q0 17 11 41t11 38l-1 23q0 41 15 116l-31 3 l-23 -2q-13 0 -27 16.5t-14 34.5zM146 82q34 15 65 32.5t68 44.5t61.5 62t29.5 73q1 3 1 13q0 38 -23 82.5t-57.5 75t-65.5 30.5q-4 0 -15.5 -6.5t-11.5 -9.5l1 -6q-2 -14 -3.5 -38.5t-3.5 -47.5t-4 -38h62h7.5h9.5h9.5t10 -1t9.5 -2t9 -3t6.5 -4.5t5 -6t1.5 -8.5 q0 -3 -2 -6.5t-6 -6.5t-7.5 -5t-8 -4.5t-6.5 -3.5q-1 0 -12 -8.5t-23 -16.5t-29 -15t-30 -7q-2 0 -3.5 0.5l-1.5 0.5q-8 0 -18 -24.5t-17.5 -65.5t-7.5 -80z" />
<glyph unicode="&#xd1;" horiz-adv-x="612" d="M17 -27q0 4 1.5 7.5t1.5 5.5l-2 17q0 24 13 61q4 13 8.5 39t7.5 39q13 53 32 155t30 149q13 58 29 74q14 15 34 15q24 0 45.5 -21.5t31.5 -46.5q9 -21 28 -59l24 -48q3 -7 25 -63t36 -76q5 -13 21.5 -48t19.5 -35q20 0 21 19t12 55.5t12 43.5q2 9 24 127.5t39 179.5 q1 4 7 29.5t10 35.5t12.5 26.5t22 23.5t31.5 7q26 0 30 -28l-9 -45q-2 -8 -2 -24t-1 -24q-4 -20 -5 -57.5t-3 -53.5q-1 -12 -8.5 -44t-7.5 -47l2 -15q0 -2 -3 -26q-5 -26 -11 -80.5t-12 -83.5q-2 -10 -6 -33.5t-8.5 -41t-12.5 -31.5q-11 -18 -37 -26t-31 -13 q-34 -34 -57 -34q-9 0 -17 2.5t-14.5 9t-10.5 11t-10.5 13.5t-9.5 12q-41 49 -56 73l-51 93q-11 16 -24.5 51.5t-19.5 46.5q-5 -17 -20.5 -71t-25.5 -94t-18 -83l-1 -6q-2 -7 -3.5 -13t-4.5 -15.5t-6.5 -17.5t-8.5 -17.5t-11 -17t-13 -13.5t-15.5 -9.5t-18.5 -3.5 q-13 0 -24.5 12.5t-11.5 31.5zM187 725l1 6q-1 1 -1 6q0 18 5 28q15 32 32 48.5t26.5 18.5t25.5 2h3l26 -5l11 -5l31 -21l23 -24l4 -11v3q2 -8 5 -11h3q12 4 15 7l38 45q9 10 17 16.5t14 8t10 1.5t7.5 -1t4.5 -1l3 1q3 0 11 -2h3l9 -5l6 -19q-2 -5 -6 -11v-2q-5 -11 -19 -28 q-5 -10 -17 -33l1 -6l-14 -22l-12 -10l-16 -12q-15 -7 -46 -7h-1q-45 3 -91 34l-4 2q-2 2 -6 4l-1 1q-8 3 -10 4v-2q-1 -2 -1 -4q-4 -15 -14.5 -22.5t-22.5 -7.5q-6 0 -10 1h-2l-9 2h-6q-10 3 -14.5 9t-11.5 24z" />
<glyph unicode="&#xd2;" horiz-adv-x="564" d="M26 160q0 79 49.5 181.5t123.5 155.5q10 6 27.5 11.5t24.5 9.5q4 4 36 15t51 11q18 0 35 -8.5t27 -18t28 -29.5q3 -3 33.5 -32t40.5 -49q26 -39 41 -113q1 -6 1.5 -19t2.5 -22.5t7 -18.5q0 -33 -12 -71t-37 -76.5t-58.5 -69t-82 -50t-103.5 -19.5q-54 2 -107 27 t-90.5 74.5t-37.5 110.5zM140 139q0 -44 35 -61.5t77 -17.5q56 0 84 19t63 66v-1q20 25 29 67q6 22 6 47q0 38 -15.5 69t-31.5 46.5t-50 42.5q-13 -6 -28 -6l-15 1q-10 0 -14 -4q-52 -41 -96 -118t-44 -150zM208 752q0 21 12 29t39 8q18 0 45 -24l67 -59q2 -2 20.5 -17 t26 -22t20 -18.5t18 -19.5t5.5 -13q0 -16 -13 -23.5t-26 -7.5q-47 0 -110 49q-6 5 -31.5 23.5t-37 28.5t-23.5 28.5t-12 37.5z" />
<glyph unicode="&#xd3;" horiz-adv-x="564" d="M26 160q0 79 49.5 181.5t123.5 155.5q10 6 27.5 11.5t24.5 9.5q4 4 36 15t51 11q18 0 35 -8.5t27 -18t28 -29.5q3 -3 33.5 -32t40.5 -49q26 -39 41 -113q1 -6 1.5 -19t2.5 -22.5t7 -18.5q0 -33 -12 -71t-37 -76.5t-58.5 -69t-82 -50t-103.5 -19.5q-54 2 -107 27 t-90.5 74.5t-37.5 110.5zM140 139q0 -44 35 -61.5t77 -17.5q56 0 84 19t63 66v-1q20 25 29 67q6 22 6 47q0 38 -15.5 69t-31.5 46.5t-50 42.5q-13 -6 -28 -6l-15 1q-10 0 -14 -4q-52 -41 -96 -118t-44 -150zM238 642q0 32 71.5 81.5t128.5 49.5q3 0 9 -1.5t12 -5.5t6 -10 q0 -3 -3 -7t-3 -5q1 0 2 1q-2 -7 -3 -8v4q-1 -2 -2 -6t-3 -7t-5 -4q-2 0 -2 -3q0 -4 4.5 -8t4.5 -5q0 -2 -8 -14t-23.5 -29t-34 -33t-43.5 -27.5t-49 -11.5q0 -2 -14.5 -0.5t-29.5 13.5t-15 36z" />
<glyph unicode="&#xd4;" horiz-adv-x="564" d="M26 160q0 79 49.5 181.5t123.5 155.5q10 6 27.5 11.5t24.5 9.5q4 4 36 15t51 11q18 0 35 -8.5t27 -18t28 -29.5q3 -3 33.5 -32t40.5 -49q26 -39 41 -113q1 -6 1.5 -19t2.5 -22.5t7 -18.5q0 -33 -12 -71t-37 -76.5t-58.5 -69t-82 -50t-103.5 -19.5q-54 2 -107 27 t-90.5 74.5t-37.5 110.5zM140 139q0 -44 35 -61.5t77 -17.5q56 0 84 19t63 66v-1q20 25 29 67q6 22 6 47q0 38 -15.5 69t-31.5 46.5t-50 42.5q-13 -6 -28 -6l-15 1q-10 0 -14 -4q-52 -41 -96 -118t-44 -150zM203 669q0 28 64.5 104t94.5 76q12 0 22 -7q28 -19 46 -43 t35.5 -57t29.5 -50q2 -10 2 -13q0 -13 -9 -24t-22 -11q-17 0 -34 19t-34 48.5t-25 38.5q-8 -9 -21.5 -26t-26 -31.5t-26.5 -28.5q-1 -1 -4.5 -6.5t-6 -9t-8 -9t-10 -8.5t-11 -5.5t-13.5 -2.5q-15 0 -29 14.5t-14 31.5z" />
<glyph unicode="&#xd5;" horiz-adv-x="564" d="M26 160q0 79 49.5 181.5t123.5 155.5q10 6 27.5 11.5t24.5 9.5q4 4 36 15t51 11q18 0 35 -8.5t27 -18t28 -29.5q3 -3 33.5 -32t40.5 -49q26 -39 41 -113q1 -6 1.5 -19t2.5 -22.5t7 -18.5q0 -33 -12 -71t-37 -76.5t-58.5 -69t-82 -50t-103.5 -19.5q-54 2 -107 27 t-90.5 74.5t-37.5 110.5zM140 139q0 -44 35 -61.5t77 -17.5q56 0 84 19t63 66v-1q20 25 29 67q6 22 6 47q0 38 -15.5 69t-31.5 46.5t-50 42.5q-13 -6 -28 -6l-15 1q-10 0 -14 -4q-52 -41 -96 -118t-44 -150zM187 725l1 6q-1 1 -1 6q0 18 5 28q15 32 32 48.5t26.5 18.5 t25.5 2h3l26 -5l11 -5l31 -21l23 -24l4 -11v3q2 -8 5 -11h3q12 4 15 7l38 45q9 10 17 16.5t14 8t10 1.5t7.5 -1t4.5 -1l3 1q3 0 11 -2h3l9 -5l6 -19q-2 -5 -6 -11v-2q-5 -11 -19 -28q-5 -10 -17 -33l1 -6l-14 -22l-12 -10l-16 -12q-15 -7 -46 -7h-1q-45 3 -91 34l-4 2 q-2 2 -6 4l-1 1q-8 3 -10 4v-2q-1 -2 -1 -4q-4 -15 -14.5 -22.5t-22.5 -7.5q-6 0 -10 1h-2l-9 2h-6q-10 3 -14.5 9t-11.5 24z" />
<glyph unicode="&#xd6;" horiz-adv-x="564" d="M26 160q0 79 49.5 181.5t123.5 155.5q10 6 27.5 11.5t24.5 9.5q4 4 36 15t51 11q18 0 35 -8.5t27 -18t28 -29.5q3 -3 33.5 -32t40.5 -49q26 -39 41 -113q1 -6 1.5 -19t2.5 -22.5t7 -18.5q0 -33 -12 -71t-37 -76.5t-58.5 -69t-82 -50t-103.5 -19.5q-54 2 -107 27 t-90.5 74.5t-37.5 110.5zM140 139q0 -44 35 -61.5t77 -17.5q56 0 84 19t63 66v-1q20 25 29 67q6 22 6 47q0 38 -15.5 69t-31.5 46.5t-50 42.5q-13 -6 -28 -6l-15 1q-10 0 -14 -4q-52 -41 -96 -118t-44 -150zM174 708q0 26 16 47t41 21q10 0 21 -7t17 -9q20 -8 34.5 -32 t14.5 -45q0 -51 -58 -51q-21 0 -53.5 21t-32.5 55zM339 712q0 16 14 38.5t38 22.5l18 -5h6q14 0 29 -20t23 -40q2 -14 2 -17q0 -19 -13 -34.5t-35 -15.5q-33 0 -57.5 21t-24.5 50z" />
<glyph unicode="&#xd8;" horiz-adv-x="549" d="M37 187q0 20 11 55.5t12 44.5q4 16 11.5 31t19 33.5t16.5 28.5q48 84 98 117l-1 -1q65 41 119 44q11 0 26 -13t19 -13q2 0 6.5 3l10.5 7l9 6q11 7 20.5 26t21.5 32.5t33 13.5q18 0 29 -17.5t11 -41.5q0 -21 -15 -46t-15 -32l2 -18q-1 -2 -1 -8q0 -4 4 -7q9 -5 19.5 -25 t17.5 -26q12 -26 23 -79q1 -7 4 -19t5 -22t3 -19q0 -34 -26 -122q-11 -30 -38 -57q-24 -33 -73 -60q-5 -3 -19 -12t-20 -12.5t-18 -9t-23 -7.5t-24 -2q-12 0 -34 -5t-33 -5q-6 0 -16 2.5t-12 2.5q-7 0 -17 -22q-22 -71 -45 -71q-31 0 -31 34l5 59v12q0 4 2.5 11t2.5 9t-2 4 q-98 62 -98 196zM139 145q0 -50 33 -71l50 125q63 126 108 221l-6 -1l-22 2q-15 0 -27 -8t-25 -25t-15 -19q-11 -12 -21 -28t-16 -28.5t-14.5 -32t-14.5 -30.5q-30 -55 -30 -105zM260 51q6 2 33 5.5t43 12.5q41 22 62 51t35 75q1 2 3 5.5t3 6t1 5.5v3q5 28 5 45q0 50 -34 97 l-50 -95q-5 -11 -23 -39t-24 -44q-7 -19 -26.5 -61.5t-27.5 -66.5z" />
<glyph unicode="&#xd9;" horiz-adv-x="521" d="M50 217q-3 47 12 131q4 27 13.5 58t22 60t29 49t33.5 21q3 0 8.5 -2t5.5 -4q-1 0 -2 1q10 -10 10.5 -10t-0.5 2q4 -3 4 -9l-2 -18q1 -10 10 -20q12 -13 19.5 -24t12.5 -26t6 -35t-4 -63.5t-3 -66.5q2 -14 2 -16v-4.5t0.5 -4t0.5 -3.5v-4q0 -14 6 -36t14 -27q5 -3 9.5 -13 t8.5 -19.5t13.5 -18t23.5 -9.5l-3 -1l9 -1q10 0 18.5 7.5t13 14t10.5 18.5q22 41 40.5 100.5t15.5 105.5q-1 11 -8 30t-9 28q0 5 1.5 8.5t4 8t3.5 8.5q10 24 33.5 62.5t31.5 59.5v-3q0 -5 1 -6q2 3 4 7t4.5 7.5t4.5 6.5h-1h-1q2 1 6.5 4t8.5 5t8 2q1 0 11 -1.5t16 -1.5 q2 0 10 4.5t13 5.5q6 1 14.5 -5t15.5 -16.5t8 -21.5q0 -2 -3 -39q-7 -28 -19 -84l1 1q-16 -97 -82 -227q-30 -61 -48.5 -90t-52.5 -65q-55 -55 -87 -62h-12q-5 0 -17.5 -3.5t-18.5 -3.5q-41 -3 -98 36t-70 100q-3 11 -11 34.5t-12.5 41.5t-6.5 36zM172 733q0 21 12 29t39 8 q18 0 45 -24l67 -59q2 -2 20.5 -17t26 -22t20 -18.5t18 -19.5t5.5 -13q0 -11 -7.5 -18.5t-15.5 -10t-16 -2.5q-22 0 -53 14.5t-57 34.5q-6 5 -31.5 23.5t-37 28.5t-23.5 28.5t-12 37.5zM464 555q0 1 1 2q0 -1 -1 -2zM474 566q1 0 2 1q-1 0 -2 -1z" />
<glyph unicode="&#xda;" horiz-adv-x="521" d="M50 217q-3 47 12 131q4 27 13.5 58t22 60t29 49t33.5 21q3 0 8.5 -2t5.5 -4q-1 0 -2 1q10 -10 10.5 -10t-0.5 2q4 -3 4 -9l-2 -18q1 -10 10 -20q12 -13 19.5 -24t12.5 -26t6 -35t-4 -63.5t-3 -66.5q2 -14 2 -16v-4.5t0.5 -4t0.5 -3.5v-4q0 -14 6 -36t14 -27q5 -3 9.5 -13 t8.5 -19.5t13.5 -18t23.5 -9.5l-3 -1l9 -1q10 0 18.5 7.5t13 14t10.5 18.5q22 41 40.5 100.5t15.5 105.5q-1 11 -8 30t-9 28q0 5 1.5 8.5t4 8t3.5 8.5q10 24 33.5 62.5t31.5 59.5v-3q0 -5 1 -6q2 3 4 7t4.5 7.5t4.5 6.5h-1h-1q2 1 6.5 4t8.5 5t8 2q1 0 11 -1.5t16 -1.5 q2 0 10 4.5t13 5.5q6 1 14.5 -5t15.5 -16.5t8 -21.5q0 -2 -3 -39q-7 -28 -19 -84l1 1q-16 -97 -82 -227q-30 -61 -48.5 -90t-52.5 -65q-55 -55 -87 -62h-12q-5 0 -17.5 -3.5t-18.5 -3.5q-41 -3 -98 36t-70 100q-3 11 -11 34.5t-12.5 41.5t-6.5 36zM226 642q0 12 13 29 t34.5 34.5t47 33t54 25t51.5 9.5q3 0 9 -1.5t12 -5.5t6 -10q-1 -4 -6 -12q1 0 2 1q-2 -7 -3 -8v4q-1 -2 -2 -6t-3 -7t-5 -4q-2 0 -2 -3q0 -4 4.5 -8t4.5 -5t-4 -8t-12.5 -17.5t-19 -22.5t-24.5 -24t-29.5 -21.5t-33.5 -15.5t-35 -6q0 -2 -14.5 -0.5t-29.5 13.5t-15 36z M464 555q0 1 1 2q0 -1 -1 -2zM474 566q1 0 2 1q-1 0 -2 -1z" />
<glyph unicode="&#xdb;" horiz-adv-x="521" d="M50 217q-3 47 12 131q4 27 13.5 58t22 60t29 49t33.5 21q3 0 8.5 -2t5.5 -4q-1 0 -2 1q10 -10 10.5 -10t-0.5 2q4 -3 4 -9l-2 -18q1 -10 10 -20q12 -13 19.5 -24t12.5 -26t6 -35t-4 -63.5t-3 -66.5q2 -14 2 -16v-4.5t0.5 -4t0.5 -3.5v-4q0 -14 6 -36t14 -27q5 -3 9.5 -13 t8.5 -19.5t13.5 -18t23.5 -9.5l-3 -1l9 -1q10 0 18.5 7.5t13 14t10.5 18.5q22 41 40.5 100.5t15.5 105.5q-1 11 -8 30t-9 28q0 5 1.5 8.5t4 8t3.5 8.5q10 24 33.5 62.5t31.5 59.5v-3q0 -5 1 -6q2 3 4 7t4.5 7.5t4.5 6.5h-1h-1q2 1 6.5 4t8.5 5t8 2q1 0 11 -1.5t16 -1.5 q2 0 10 4.5t13 5.5q6 1 14.5 -5t15.5 -16.5t8 -21.5q0 -2 -3 -39q-7 -28 -19 -84l1 1q-16 -97 -82 -227q-30 -61 -48.5 -90t-52.5 -65q-55 -55 -87 -62h-12q-5 0 -17.5 -3.5t-18.5 -3.5q-41 -3 -98 36t-70 100q-3 11 -11 34.5t-12.5 41.5t-6.5 36zM184 631q0 17 30.5 60.5 t69.5 81.5t59 38q12 0 22 -7q28 -19 46 -43t35.5 -57t29.5 -50q2 -10 2 -13q0 -13 -9 -24t-22 -11q-17 0 -34 19t-34 48.5t-25 38.5q-8 -9 -21.5 -26t-26 -31.5t-26.5 -28.5q-1 -1 -4.5 -6.5t-6 -9t-8 -9t-10 -8.5t-11 -5.5t-13.5 -2.5q-15 0 -29 14.5t-14 31.5zM464 555 q0 1 1 2q0 -1 -1 -2zM474 566q1 0 2 1q-1 0 -2 -1z" />
<glyph unicode="&#xdc;" horiz-adv-x="521" d="M50 217q-3 47 12 131q4 27 13.5 58t22 60t29 49t33.5 21q3 0 8.5 -2t5.5 -4q-1 0 -2 1q10 -10 10.5 -10t-0.5 2q4 -3 4 -9l-2 -18q1 -10 10 -20q12 -13 19.5 -24t12.5 -26t6 -35t-4 -63.5t-3 -66.5q2 -14 2 -16v-4.5t0.5 -4t0.5 -3.5v-4q0 -14 6 -36t14 -27q5 -3 9.5 -13 t8.5 -19.5t13.5 -18t23.5 -9.5l-3 -1l9 -1q10 0 18.5 7.5t13 14t10.5 18.5q22 41 40.5 100.5t15.5 105.5q-1 11 -8 30t-9 28q0 5 1.5 8.5t4 8t3.5 8.5q10 24 33.5 62.5t31.5 59.5v-3q0 -5 1 -6q2 3 4 7t4.5 7.5t4.5 6.5h-1h-1q2 1 6.5 4t8.5 5t8 2q1 0 11 -1.5t16 -1.5 q2 0 10 4.5t13 5.5q6 1 14.5 -5t15.5 -16.5t8 -21.5q0 -2 -3 -39q-7 -28 -19 -84l1 1q-16 -97 -82 -227q-30 -61 -48.5 -90t-52.5 -65q-55 -55 -87 -62h-12q-5 0 -17.5 -3.5t-18.5 -3.5q-41 -3 -98 36t-70 100q-3 11 -11 34.5t-12.5 41.5t-6.5 36zM174 708q0 26 16 47t41 21 q10 0 21 -7t17 -9q20 -8 34.5 -32t14.5 -45q0 -51 -58 -51q-11 0 -30 7.5t-37.5 26t-18.5 42.5zM339 712q0 16 14 38.5t38 22.5l18 -5h6q14 0 29 -20t23 -40q2 -14 2 -17q0 -19 -13 -34.5t-35 -15.5q-33 0 -57.5 21t-24.5 50zM464 555q0 1 1 2q0 -1 -1 -2zM474 566q1 0 2 1 q-1 0 -2 -1z" />
<glyph unicode="&#xdd;" horiz-adv-x="600" d="M32 461q0 22 13 37t33 18q3 0 6 -2t5 -2l8 2q18 0 59 -46t68 -105q8 18 21.5 37.5t22.5 31.5t28 34.5t26 30.5q72 89 122 127q1 0 9.5 7t15.5 12t15.5 9.5t13.5 4.5q4 0 22 -11q1 -16 -9 -32q-40 -70 -179 -276q-2 -3 -14.5 -32t-26.5 -36q-17 -30 -19 -37 q-9 -55 -22 -136q-16 -109 -28.5 -134t-55.5 -25q-61 0 -61 110q0 36 13.5 106t13.5 103q0 7 -2 9l-19 24q-79 98 -79 171zM168 642q0 32 71.5 81.5t128.5 49.5q3 0 9 -1.5t12 -5.5t6 -10q0 -3 -3 -7t-3 -5q1 0 2 1q-2 -7 -3 -8v4q-1 -2 -2 -6t-3 -7t-5 -4q-2 0 -2 -3 q0 -4 4.5 -8t4.5 -5q0 -2 -8 -14t-23.5 -29t-34 -33t-43.5 -27.5t-49 -11.5q0 -2 -14.5 -0.5t-29.5 13.5t-15 36z" />
<glyph unicode="&#xde;" horiz-adv-x="412" d="M34 120l1 39q5 23 13 67l1 1q9 17 19 82l2 4q2 0 4.5 8t6 20.5t5.5 17.5v1l17 51v7q0 4 1 5l2 7q13 18 17 33q8 16 13 21v4l2 6l21 36l5 5q1 0 3 3.5l4 7l2 3.5l23 22l26 11l12 1l20 -7l6 -5l11 -18v-77l-14 -34q-5 -9 -11.5 -25t-9.5 -22q26 -27 37 -39q0 -5 4 -5 q9 -11 25.5 -31.5t20.5 -25.5q4 -7 5 -7q5 -8 14.5 -23.5t11.5 -19.5q4 -14 8 -17q1 -1 1 -2q4 -9 4 -12q0 -5 1 -5v-2l1 -5q-1 -1 1 -4q1 -2 1 -3l4 -26v-3l-2 -22l-10 -27l-12 -16l-17 -15l-20 -11l-26 -9l-51 1q-1 1 -8.5 3t-8.5 3h-4l-19 7l-7 4l3 -1l-7 9v-1 q-8 3 -4.5 14t0.5 12l1 4l16 11l18 -2q18 -2 20 -2q26 0 32 12v5q0 16 -13.5 46t-30.5 47l-12 18v1l-3 2q-1 0 -1 1q-1 1 -4 6.5t-6 10.5l-3 4q-12 -32 -17.5 -48t-8 -25.5t-5.5 -18.5q-11 -14 -9 -29q-1 -2 -3.5 -9t-4.5 -13t-5.5 -24t-7.5 -46q-4 -13 -13 -63l-15 -38 l-16 -19l-20 -12h-14l-11 6l-8 12l-3 46l1 6l-1 5v34q1 3 1 8q0 9 1 12q-1 0 -1 1z" />
<glyph unicode="&#xdf;" horiz-adv-x="526" d="M2 -106l1 7q25 264 111 538q50 161 185 161q31 0 70 -12q31 -10 75.5 -55.5t44.5 -102.5q0 -34 -23.5 -62t-53.5 -44q46 -31 71.5 -65t36.5 -83v-6q0 -46 -43 -89q-83 -83 -165 -93q-5 -1 -24.5 -5.5t-30.5 -4.5l-7 1q-2 0 -7 -1.5t-9 -1.5q-67 9 -84 18t-17 40 q0 41 25 41q7 0 13 -7.5t7 -8.5q19 -12 46 -12q19 0 42.5 3.5t54 12.5t50.5 30t20 51q0 29 -21.5 46.5t-50.5 17.5q-6 0 -30 -7.5t-31 -7.5q-5 0 -17 5q-51 26 -51 65q0 3 1.5 8.5t4 12.5t3.5 11q3 10 9.5 17.5t13.5 12.5t9 8q8 12 38 12l7 -2q6 0 22 13q-4 -2 0 2l9 9 q40 39 41 49q0 22 -14.5 35.5t-40.5 13.5q-56 0 -78 -70q-21 -56 -49.5 -157.5t-46.5 -150.5q-9 -26 -14.5 -56t-10.5 -71t-7 -56q-2 -7 -9.5 -18t-9.5 -15q-5 -10 -8 -15.5t-10.5 -10.5t-18.5 -5q-21 0 -21 22q-1 0 -1 -1q-7 26 -7 33z" />
<glyph unicode="&#xe0;" d="M-25 19q0 23 11 57l9 10q10 3 14 10t13.5 27.5t25.5 43.5l33 49q5 4 18.5 25.5t35.5 39.5q49 66 82 97t62 31q22 0 47 -25q11 -1 23.5 -11t38.5 -16q9 0 29 -15q27 -19 27 -43l-8 -23v-1l-4 -32l-4 -9q-9 -9 -25 -64q-4 -15 -12.5 -34.5t-15.5 -44.5t-13 -67l-13 -84 q-1 -3 -1 -13q0 -16 2 -21l-28 -11q-2 6 -19 21q-17 16 -22.5 32.5t-5.5 45.5q0 18 2 40q-11 -11 -64 -59q-8 -17 -27.5 -31t-69.5 -39q-23 -26 -50 -26q-17 0 -32 14.5t-21 35.5q-3 8 -20.5 36t-17.5 54zM64 7q0 -8 7 -8q6 0 18 10t32.5 29.5t36.5 32.5q3 4 71 72 q0 8 19 37t32 39q18 45 20 45q0 12 -10 12q-8 0 -31 -20q-7 -4 -14.5 -10t-19.5 -19t-22 -24.5t-32.5 -37.5t-41.5 -47q-1 -2 -13 -20t-22.5 -34.5t-20 -33.5t-9.5 -23zM179 598q0 21 12 29t39 8q18 0 45 -24l67 -59q2 -2 20.5 -17t26 -22t20 -18.5t18 -19.5t5.5 -13 q0 -16 -13 -23.5t-26 -7.5q-47 0 -110 49q-6 5 -31.5 23.5t-37 28.5t-23.5 28.5t-12 37.5z" />
<glyph unicode="&#xe1;" d="M-25 19q0 23 11 57l9 10q10 3 14 10t13.5 27.5t25.5 43.5l33 49q5 4 18.5 25.5t35.5 39.5q49 66 82 97t62 31q22 0 47 -25q11 -1 23.5 -11t38.5 -16q9 0 29 -15q27 -19 27 -43l-8 -23v-1l-4 -32l-4 -9q-9 -9 -25 -64q-4 -15 -12.5 -34.5t-15.5 -44.5t-13 -67l-13 -84 q-1 -3 -1 -13q0 -16 2 -21l-28 -11q-2 6 -19 21q-17 16 -22.5 32.5t-5.5 45.5q0 18 2 40q-11 -11 -64 -59q-8 -17 -27.5 -31t-69.5 -39q-23 -26 -50 -26q-17 0 -32 14.5t-21 35.5q-3 8 -20.5 36t-17.5 54zM64 7q0 -8 7 -8q6 0 18 10t32.5 29.5t36.5 32.5q3 4 71 72 q0 8 19 37t32 39q18 45 20 45q0 12 -10 12q-8 0 -31 -20q-7 -4 -14.5 -10t-19.5 -19t-22 -24.5t-32.5 -37.5t-41.5 -47q-1 -2 -13 -20t-22.5 -34.5t-20 -33.5t-9.5 -23zM247 505q0 32 71.5 81.5t128.5 49.5q3 0 9 -1.5t12 -5.5t6 -10q0 -3 -3 -7t-3 -5q1 0 2 1q-2 -7 -3 -8 v4q-1 -2 -2 -6t-3 -7t-5 -4q-2 0 -2 -3q0 -4 4.5 -8t4.5 -5q0 -2 -8 -14t-23.5 -29t-34 -33t-43.5 -27.5t-49 -11.5q0 -2 -14.5 -0.5t-29.5 13.5t-15 36z" />
<glyph unicode="&#xe2;" d="M-25 19q0 23 11 57l9 10q10 3 14 10t13.5 27.5t25.5 43.5l33 49q5 4 18.5 25.5t35.5 39.5q49 66 82 97t62 31q22 0 47 -25q11 -1 23.5 -11t38.5 -16q9 0 29 -15q27 -19 27 -43l-8 -23v-1l-4 -32l-4 -9q-9 -9 -25 -64q-4 -15 -12.5 -34.5t-15.5 -44.5t-13 -67l-13 -84 q-1 -3 -1 -13q0 -16 2 -21l-28 -11q-2 6 -19 21q-17 16 -22.5 32.5t-5.5 45.5q0 18 2 40q-11 -11 -64 -59q-8 -17 -27.5 -31t-69.5 -39q-23 -26 -50 -26q-17 0 -32 14.5t-21 35.5q-3 8 -20.5 36t-17.5 54zM64 7q0 -8 7 -8q6 0 18 10t32.5 29.5t36.5 32.5q3 4 71 72 q0 8 19 37t32 39q18 45 20 45q0 12 -10 12q-8 0 -31 -20q-7 -4 -14.5 -10t-19.5 -19t-22 -24.5t-32.5 -37.5t-41.5 -47q-1 -2 -13 -20t-22.5 -34.5t-20 -33.5t-9.5 -23zM142 465q0 28 64 104t95 76q12 0 22 -7q28 -19 46 -43t35.5 -57t29.5 -50q2 -10 2 -13q0 -13 -9 -24 t-22 -11q-17 0 -34 19t-34 48.5t-25 38.5q-8 -9 -21.5 -26t-26 -31.5t-26.5 -28.5q-1 -1 -4.5 -6.5t-6 -9t-8 -9t-10 -8.5t-11 -5.5t-13.5 -2.5q-15 0 -29 14.5t-14 31.5z" />
<glyph unicode="&#xe3;" d="M-25 19q0 23 11 57l9 10q10 3 14 10t13.5 27.5t25.5 43.5l33 49q5 4 18.5 25.5t35.5 39.5q49 66 82 97t62 31q22 0 47 -25q11 -1 23.5 -11t38.5 -16q9 0 29 -15q27 -19 27 -43l-8 -23v-1l-4 -32l-4 -9q-9 -9 -25 -64q-4 -15 -12.5 -34.5t-15.5 -44.5t-13 -67l-13 -84 q-1 -3 -1 -13q0 -16 2 -21l-28 -11q-2 6 -19 21q-17 16 -22.5 32.5t-5.5 45.5q0 18 2 40q-11 -11 -64 -59q-8 -17 -27.5 -31t-69.5 -39q-23 -26 -50 -26q-17 0 -32 14.5t-21 35.5q-3 8 -20.5 36t-17.5 54zM64 7q0 -8 7 -8q6 0 18 10t32.5 29.5t36.5 32.5q3 4 71 72 q0 8 19 37t32 39q18 45 20 45q0 12 -10 12q-8 0 -31 -20q-7 -4 -14.5 -10t-19.5 -19t-22 -24.5t-32.5 -37.5t-41.5 -47q-1 -2 -13 -20t-22.5 -34.5t-20 -33.5t-9.5 -23zM163 481l1 6q-1 1 -1 6q0 18 5 28q15 32 32 48.5t26.5 18.5t25.5 2h3l26 -5l11 -5l31 -21l23 -24l4 -11 v3q2 -8 5 -11h3q12 4 15 7l38 45q9 10 17 16.5t14 8t10 1.5t7.5 -1t4.5 -1l3 1q3 0 11 -2h3l9 -5l6 -19q-2 -5 -6 -11v-2q-5 -11 -19 -28q-5 -10 -17 -33l1 -6l-14 -22l-12 -10l-16 -12q-15 -7 -46 -7h-1q-45 3 -91 34l-4 2q-2 2 -6 4l-1 1q-8 3 -10 4v-2q-1 -2 -1 -4 q-4 -15 -14.5 -22.5t-22.5 -7.5q-6 0 -10 1h-2l-9 2h-6q-10 3 -14.5 9t-11.5 24z" />
<glyph unicode="&#xe4;" d="M-25 19q0 23 11 57l9 10q10 3 14 10t13.5 27.5t25.5 43.5l33 49q5 4 18.5 25.5t35.5 39.5q49 66 82 97t62 31q22 0 47 -25q11 -1 23.5 -11t38.5 -16q9 0 29 -15q27 -19 27 -43l-8 -23v-1l-4 -32l-4 -9q-9 -9 -25 -64q-4 -15 -12.5 -34.5t-15.5 -44.5t-13 -67l-13 -84 q-1 -3 -1 -13q0 -16 2 -21l-28 -11q-2 6 -19 21q-17 16 -22.5 32.5t-5.5 45.5q0 18 2 40q-11 -11 -64 -59q-8 -17 -27.5 -31t-69.5 -39q-23 -26 -50 -26q-17 0 -32 14.5t-21 35.5q-3 8 -20.5 36t-17.5 54zM64 7q0 -8 7 -8q6 0 18 10t32.5 29.5t36.5 32.5q3 4 71 72 q0 8 19 37t32 39q18 45 20 45q0 12 -10 12q-8 0 -31 -20q-7 -4 -14.5 -10t-19.5 -19t-22 -24.5t-32.5 -37.5t-41.5 -47q-1 -2 -13 -20t-22.5 -34.5t-20 -33.5t-9.5 -23zM176 516q0 26 16 47t41 21q10 0 21 -7t17 -9q20 -8 34.5 -32t14.5 -45q0 -51 -58 -51q-21 0 -53.5 21 t-32.5 55zM341 520q0 16 14 38.5t38 22.5l18 -5h6q14 0 29 -20t23 -40q2 -14 2 -17q0 -19 -13 -34.5t-35 -15.5q-33 0 -57.5 21t-24.5 50z" />
<glyph unicode="&#xe5;" d="M-25 19q0 23 11 57l9 10q10 3 14 10t13.5 27.5t25.5 43.5l33 49q5 4 18.5 25.5t35.5 39.5q49 66 82 97t62 31q22 0 47 -25q11 -1 23.5 -11t38.5 -16q9 0 29 -15q27 -19 27 -43l-8 -23v-1l-4 -32l-4 -9q-9 -9 -25 -64q-4 -15 -12.5 -34.5t-15.5 -44.5t-13 -67l-13 -84 q-1 -3 -1 -13q0 -16 2 -21l-28 -11q-2 6 -19 21q-17 16 -22.5 32.5t-5.5 45.5q0 18 2 40q-11 -11 -64 -59q-8 -17 -27.5 -31t-69.5 -39q-23 -26 -50 -26q-17 0 -32 14.5t-21 35.5q-3 8 -20.5 36t-17.5 54zM64 7q0 -8 7 -8q6 0 18 10t32.5 29.5t36.5 32.5q3 4 71 72 q0 8 19 37t32 39q18 45 20 45q0 12 -10 12q-8 0 -31 -20q-7 -4 -14.5 -10t-19.5 -19t-22 -24.5t-32.5 -37.5t-41.5 -47q-1 -2 -13 -20t-22.5 -34.5t-20 -33.5t-9.5 -23zM222 534q0 4 2 22l9 20v6l5 6q19 39 37 50l29 15l20 6l31 -7q5 -5 15 -11l10 -11l6 -4.5t12.5 -11.5 t11.5 -15l11 -24q1 -3 1.5 -6t1.5 -5.5t1 -4.5q0 -31 -9 -55l-7 -7q-15 -17 -46.5 -34t-45.5 -17q-7 0 -9 2q-1 0 -8.5 -1.5t-9.5 -1.5q-5 0 -22 6.5t-20 9.5q-18 18 -22 30t-4 43zM292 525q0 -18 9 -18q0 3 30 19q25 13 25 29q0 29 -21 29q-3 0 -13 -10l-13 -15 q-17 -11 -17 -34z" />
<glyph unicode="&#xe6;" horiz-adv-x="804" d="M-5 19q0 18 11 56l7 9q8 4 12.5 9t8 12t14 26.5t24.5 41.5l29 43q7 5 19.5 24.5t34.5 40.5q32 43 55.5 69t46.5 42t42 16q21 0 47 -24q10 -1 22.5 -11t38.5 -17q1 0 3 -1t3 -1t9.5 -4t20.5 -13.5t17 -20.5q2 2 33 36q7 4 20 11t16 9q9 3 10 12l15 12h8q5 0 14.5 -6 t11.5 -10l51 -8q3 0 8.5 -1t6.5 -1h4q16 -5 34.5 -14.5t37.5 -23.5t32 -33.5t13 -40.5q0 -88 -91 -127q-52 -23 -99 -23q-66 0 -93 13q-28 -50 -28 -75q0 -3 11 -19q9 -15 15 -18t29 -5l7 -2q13 -13 37 -13q31 0 88 27q21 10 42.5 24t34 22t17.5 8q9 0 14 -4l8 -15 q-2 -24 -13 -42q0 -1 -2 -3q-98 -115 -213 -115q-17 0 -34.5 7t-32.5 18.5t-29.5 25.5t-25.5 27.5t-19 24.5t-12 18l-5 6l-12 -80q-1 -3 -1 -11q0 -15 2 -20l-27 -13q-4 4 -11 12.5t-9.5 11t-7.5 8.5t-6.5 8.5l-4.5 7.5t-3.5 8.5t-2.5 8.5t-2 10t-0.5 11t-0.5 14q0 17 2 39 q-14 -15 -64 -58q-8 -17 -27.5 -31t-69.5 -39q-25 -27 -50 -27q-17 0 -32 14.5t-21 34.5v1q-3 8 -20.5 36.5t-17.5 54.5zM84 7q0 -9 7 -9q4 0 10.5 4t14.5 11.5t17 16.5t21.5 20.5t23.5 20.5q4 5 9 10.5t23 22.5t39 38q0 8 19 37t32 39q18 46 20 46q0 11 -10 11 q-3 0 -6.5 -1.5t-11.5 -8t-13 -9.5q-37 -27 -130 -139q-7 -9 -21 -30t-29 -46.5t-15 -33.5zM488 163q20 -6 21 -6q10 0 50 25q19 12 32 23t20.5 22t10.5 16t6 17t4 13q-12 12 -18 12l-29 -18q-24 -14 -39 -28.5t-32.5 -40t-25.5 -35.5z" />
<glyph unicode="&#xe7;" horiz-adv-x="457" d="M29 154q0 31 17 76l2 3q15 37 71 91q26 24 41.5 32.5t49.5 19.5q18 8 30 8t31 -11t33 -32l8 -10l-3 -21l-8.5 -8.5t-12.5 -10.5q-18 -6 -19 -10l-6 -3l-9 -3l-18 -9q-14 -16 -28 -43q-17 -23 -36 -58q-14 -21 -14 -30v-13.5v-11t-0.5 -8.5t0 -6.5t0.5 -5t1.5 -3t2.5 -1.5 t3.5 -1.5t5 -0.5h6.5q6 0 12.5 0.5t11 1.5t13 3.5t14 4t18.5 6t21 6.5l35 11q53 25 71 34q5 4 21 4q3 0 10 2.5t13.5 4.5t8.5 2l12 -5l3 -6l4 -10q0 -5 -1.5 -7.5t-6 -6.5t-5.5 -5l-10 -24q0 -2 -1.5 -6t-2.5 -6l-10 -10l-9 -12l-17 -12l-12 -11l-29 -16q-14 -11 -52 -27v-4 l1 4q0 -4 -1 -5l1 -3v-1l1 -9q0 -2 -1.5 -11t-1.5 -13v-13q1 -2 1 -10l1 -1.5t2.5 -4.5l3.5 -7t3 -9t1 -9v-10q0 -26 -20 -55l-7 -5l-39 -12q-2 0 -10.5 -2t-9.5 -2q-2 -1 -5 -1h-8l-19 -2q-6 2 -29 4h-1l-3 -1q-3 0 -7.5 -0.5t-7.5 -0.5l-11 -2h-23l-9 3l-8 17q4 16 17 16 q4 0 10.5 -2t12.5 -2l-1 2l12 5q27 2 36 12q35 21 39 23v4q0 1 1 2q0 5 -4 6l-7 13q0 24 -9 26q3 0 -2 7.5t-11 15.5t-6 10l1 11q0 1 -1 2q-1 0 -10 -2t-14 -2q-8 0 -12 4t-20 12.5t-29.5 20.5t-20.5 31h-1l-5 10q-6 11 -17 27v1q-3 6 -3 11l1 9q0 2 -1.5 6.5t-4 10 t-3.5 7.5q-2 5 -2 22z" />
<glyph unicode="&#xe8;" horiz-adv-x="423" d="M-10 177q0 13 6.5 33t11.5 28q10 10 20 30.5t15 28.5q7 11 24 25.5t23 22.5q32 40 81 67q1 1 9.5 12t17.5 11q2 0 32.5 -13t62.5 -13q38 -4 79.5 -40.5t41.5 -77.5q0 -47 -33.5 -81t-77.5 -48.5t-90 -14.5q-39 0 -62 6q-2 0 -8.5 3t-9.5 3q-2 0 -9.5 -12t-14 -28.5 t-6.5 -27.5q0 -12 4 -20.5t14.5 -14t16 -7t21.5 -6.5q4 -1 16 -8t25 -7q43 0 103 33q8 5 26.5 18.5t32.5 21.5t22 8q21 0 21 -23q0 -45 -73.5 -100.5t-146.5 -55.5q-72 0 -133.5 80.5t-61.5 166.5zM127 202q14 -6 21 -6t35 14.5t57.5 43t29.5 55.5q0 5 -5.5 9.5t-10.5 4.5 t-10 -3t-11 -7.5t-9 -6.5q-13 -7 -23.5 -15.5t-22 -21.5t-17 -20t-18 -24.5t-16.5 -22.5zM158 598q0 21 12 29t39 8q18 0 45 -24l67 -59q2 -2 20.5 -17t26 -22t20 -18.5t18 -19.5t5.5 -13q0 -16 -13 -23.5t-26 -7.5q-47 0 -110 49q-6 5 -31.5 23.5t-37 28.5t-23.5 28.5 t-12 37.5z" />
<glyph unicode="&#xe9;" horiz-adv-x="423" d="M-10 177q0 13 6.5 33t11.5 28q10 10 20 30.5t15 28.5q7 11 24 25.5t23 22.5q32 40 81 67q1 1 9.5 12t17.5 11q2 0 32.5 -13t62.5 -13q38 -4 79.5 -40.5t41.5 -77.5q0 -47 -33.5 -81t-77.5 -48.5t-90 -14.5q-39 0 -62 6q-2 0 -8.5 3t-9.5 3q-2 0 -9.5 -12t-14 -28.5 t-6.5 -27.5q0 -12 4 -20.5t14.5 -14t16 -7t21.5 -6.5q4 -1 16 -8t25 -7q43 0 103 33q8 5 26.5 18.5t32.5 21.5t22 8q21 0 21 -23q0 -45 -73.5 -100.5t-146.5 -55.5q-72 0 -133.5 80.5t-61.5 166.5zM127 202q14 -6 21 -6t35 14.5t57.5 43t29.5 55.5q0 5 -5.5 9.5t-10.5 4.5 t-10 -3t-11 -7.5t-9 -6.5q-13 -7 -23.5 -15.5t-22 -21.5t-17 -20t-18 -24.5t-16.5 -22.5zM140 505q0 32 71.5 81.5t128.5 49.5q3 0 9 -1.5t12 -5.5t6 -10q0 -3 -3 -7t-3 -5q1 0 2 1q-2 -7 -3 -8v4q-1 -2 -2 -6t-3 -7t-5 -4q-2 0 -2 -3q0 -4 4.5 -8t4.5 -5q0 -2 -8 -14 t-23.5 -29t-34 -33t-43.5 -27.5t-49 -11.5q0 -2 -14.5 -0.5t-29.5 13.5t-15 36z" />
<glyph unicode="&#xea;" horiz-adv-x="423" d="M-10 177q0 13 6.5 33t11.5 28q10 10 20 30.5t15 28.5q7 11 24 25.5t23 22.5q32 40 81 67q1 1 9.5 12t17.5 11q2 0 32.5 -13t62.5 -13q38 -4 79.5 -40.5t41.5 -77.5q0 -47 -33.5 -81t-77.5 -48.5t-90 -14.5q-39 0 -62 6q-2 0 -8.5 3t-9.5 3q-2 0 -9.5 -12t-14 -28.5 t-6.5 -27.5q0 -12 4 -20.5t14.5 -14t16 -7t21.5 -6.5q4 -1 16 -8t25 -7q43 0 103 33q8 5 26.5 18.5t32.5 21.5t22 8q21 0 21 -23q0 -45 -73.5 -100.5t-146.5 -55.5q-72 0 -133.5 80.5t-61.5 166.5zM73 478q0 28 64.5 104t94.5 76q12 0 22 -7q28 -19 46 -43t35.5 -57 t29.5 -50q2 -10 2 -13q0 -13 -9 -24t-22 -11q-17 0 -34 19t-34 48.5t-25 38.5q-8 -9 -21.5 -26t-26 -31.5t-26.5 -28.5q-1 -1 -4.5 -6.5t-6 -9t-8 -9t-10 -8.5t-11 -5.5t-13.5 -2.5q-15 0 -29 14.5t-14 31.5zM127 202q14 -6 21 -6t35 14.5t57.5 43t29.5 55.5q0 5 -5.5 9.5 t-10.5 4.5t-10 -3t-11 -7.5t-9 -6.5q-13 -7 -23.5 -15.5t-22 -21.5t-17 -20t-18 -24.5t-16.5 -22.5z" />
<glyph unicode="&#xeb;" horiz-adv-x="423" d="M-10 177q0 13 6.5 33t11.5 28q10 10 20 30.5t15 28.5q7 11 24 25.5t23 22.5q32 40 81 67q1 1 9.5 12t17.5 11q2 0 32.5 -13t62.5 -13q38 -4 79.5 -40.5t41.5 -77.5q0 -47 -33.5 -81t-77.5 -48.5t-90 -14.5q-39 0 -62 6q-2 0 -8.5 3t-9.5 3q-2 0 -9.5 -12t-14 -28.5 t-6.5 -27.5q0 -12 4 -20.5t14.5 -14t16 -7t21.5 -6.5q4 -1 16 -8t25 -7q43 0 103 33q8 5 26.5 18.5t32.5 21.5t22 8q21 0 21 -23q0 -45 -73.5 -100.5t-146.5 -55.5q-72 0 -133.5 80.5t-61.5 166.5zM73 530q0 26 16 47t41 21q10 0 21 -7t17 -9q20 -8 34.5 -32t14.5 -45 q0 -51 -58 -51q-21 0 -53.5 21t-32.5 55zM127 202q14 -6 21 -6t35 14.5t57.5 43t29.5 55.5q0 5 -5.5 9.5t-10.5 4.5t-10 -3t-11 -7.5t-9 -6.5q-13 -7 -23.5 -15.5t-22 -21.5t-17 -20t-18 -24.5t-16.5 -22.5zM238 534q0 16 14 38.5t38 22.5l18 -5h6q14 0 29 -20t23 -40 q2 -14 2 -17q0 -19 -13 -34.5t-35 -15.5q-33 0 -57.5 21t-24.5 50z" />
<glyph unicode="&#xec;" horiz-adv-x="235" d="M12 51q0 47 9 66q65 163 117 163l9 -1l10 2q20 -3 33.5 -25.5t13.5 -41.5q0 -22 -9 -41q-32 -66 -33 -132q35 6 56 11q16 -20 16 -23q0 -13 -25 -50q-12 -12 -21 -15q-10 -4 -25 -14.5t-28.5 -17t-29.5 -6.5q-9 0 -25 7q-68 28 -68 118zM80 497q0 21 12 29t39 8 q12 0 45 -24l67 -59q7 -6 20.5 -17.5t24.5 -21t22 -19.5t17 -18.5t6 -13.5q0 -16 -13 -23.5t-26 -7.5q-22 0 -54.5 15t-55.5 34q-6 5 -31.5 23.5t-37 28.5t-23.5 28.5t-12 37.5z" />
<glyph unicode="&#xed;" horiz-adv-x="235" d="M12 51q0 47 9 66q65 163 117 163l9 -1l10 2q20 -3 33.5 -25.5t13.5 -41.5q0 -22 -9 -41q-32 -66 -33 -132q35 6 56 11q16 -20 16 -23q0 -13 -25 -50q-12 -12 -21 -15q-10 -4 -25 -14.5t-28.5 -17t-29.5 -6.5q-9 0 -25 7q-68 28 -68 118zM113 437q0 32 71.5 81.5 t128.5 49.5q3 0 9 -1.5t12 -5.5t6 -10q0 -9 -9.5 -21.5t-9.5 -13.5q0 -4 4.5 -8t4.5 -5q0 -2 -8 -14t-23.5 -29t-34 -33t-43.5 -27.5t-49 -11.5q-59 0 -59 49z" />
<glyph unicode="&#xee;" horiz-adv-x="235" d="M12 51q0 47 9 66q65 163 117 163l9 -1l10 2q20 -3 33.5 -25.5t13.5 -41.5q0 -22 -9 -41q-32 -66 -33 -132q35 6 56 11q16 -20 16 -23q0 -13 -25 -50q-12 -12 -21 -15q-10 -4 -25 -14.5t-28.5 -17t-29.5 -6.5q-9 0 -25 7q-68 28 -68 118zM55 394q2 20 23 47l24 31 q32 42 57 67q6 5 15 15q5 2 14.5 9.5t12.5 9.5l6 1q21 0 33 -10l12 -7q4 -4 12 -10.5t14.5 -12.5t10.5 -14l35 -69q3 -5 8 -12.5l7 -10.5l8 -11l3 -9q0 -7 -7 -26q-12 -12 -24 -12q-17 0 -27 7q-10 10 -45 65l-21 32l-1 1l-38 -43q-11 -14 -34 -41l-8 -9q-10 -7 -10 -14 l-8 -10q-16 -10 -27 -10h-2q-17 3 -25.5 11t-16.5 30z" />
<glyph unicode="&#xef;" horiz-adv-x="235" d="M12 51q0 47 9 66q65 163 117 163l9 -1l10 2q20 -3 33.5 -25.5t13.5 -41.5q0 -22 -9 -41q-32 -66 -33 -132q35 6 56 11q16 -20 16 -23q0 -13 -25 -50q-12 -12 -21 -15q-10 -4 -25 -14.5t-28.5 -17t-29.5 -6.5q-9 0 -25 7q-68 28 -68 118zM69 480q0 26 16 47t41 21 q10 0 21 -7t17 -9q20 -8 34.5 -32t14.5 -45q0 -51 -58 -51q-21 0 -53.5 21t-32.5 55zM234 484q0 16 14 38.5t38 22.5l18 -5h6q14 0 29 -20t23 -40q2 -14 2 -17q0 -19 -13 -34.5t-35 -15.5q-33 0 -57.5 21t-24.5 50z" />
<glyph unicode="&#xf0;" horiz-adv-x="524" d="M2 234q0 16 8 24q3 21 22.5 54t41.5 40q18 6 37 6q62 0 140 -58q-14 28 -21 84t-7 95q0 5 -1 6q-4 -1 -12.5 -3.5t-12.5 -4.5q-7 -1 -27 -17t-31 -16q-9 0 -16 6.5t-7 14.5q0 29 99 96l-1 178l14 4q6 1 15 3q3 0 8 1.5t7 1.5q6 0 12.5 -29.5t13.5 -66t14 -47.5 q84 42 104 42t30.5 -13t10.5 -35q0 -26 -83 -59l-20 -8v-4l-1 -2q0 -4 2.5 -9l4.5 -9l3 -4l-2 -8q0 -1 4 -8.5t5 -12.5q4 -16 13 -69.5t19.5 -90.5t28.5 -67q29 -46 29 -68l-1 -14q0 -21 27.5 -65t27.5 -73q0 -25 -21 -45t-39 -23q0 -13 -6 -21.5t-12 -11.5l-6 -3 q-12 -6 -21.5 -15t-18.5 -13t-30 -4q-29 0 -92 39q-4 3 -17.5 11t-20 12.5t-14.5 12t-12 14.5q-7 13 -22.5 24t-23.5 19q-9 9 -25 25.5t-29 29.5t-25 24q1 0 2 -1l-8 13v-3q-16 28 -19 28q-2 0 -7 9.5t-10 22.5t-5 20q0 2 1 3v1q0 1 -4.5 6.5t-8.5 14t-4 16.5zM59 113 q1 0 1 -1zM90 254q6 -11 16.5 -35.5t19.5 -37.5l89 -95q77 -96 168 -106q4 -1 10.5 -4.5t8.5 -3.5t7 3q-5 5 -11.5 22.5t-12.5 26.5q-7 10 -27 33.5t-31 41t-11 30.5q-11 30 -23.5 47.5t-40.5 31.5q-12 5 -35.5 20t-42.5 22.5t-41 7.5q-5 0 -14 -2.5t-16 -2.5l-12 2 q-1 0 -1 -1z" />
<glyph unicode="&#xf1;" horiz-adv-x="471" d="M11 14q0 7 9 46q2 11 7 38t9.5 46.5t10.5 27.5q14 14 20.5 41t10.5 65t8 56q7 33 28.5 66.5t41.5 33.5q21 0 42 -19.5t21 -40.5q0 -6 -3 -14q-6 -14 -11 -30.5t-11 -35.5t-10 -31q4 6 27 24q36 36 42 43q4 5 19 24t26 30t21 15q9 0 23.5 11t24.5 11q13 0 47 -16 q45 -28 45 -67q0 -10 -6 -32q-5 -24 -22.5 -93.5t-26.5 -120.5t-9 -99q0 -17 22 -76q0 -1 4 -10t4 -12q0 -11 -7.5 -17.5t-16.5 -6.5q-1 0 -5.5 1t-7.5 1q-1 0 -5 -1t-6 -1q-15 0 -28.5 8t-20 17t-16.5 24q-4 4 -16 25.5t-12 26.5v13q3 12 3 28l-2 56q0 13 3 27 q31 126 36 156q-103 -127 -148 -235q-16 -39 -47 -82.5t-62 -43.5q-6 0 -11 4.5t-7.5 12.5t-4 15t-2.5 15.5t-2 10.5q-3 13 -16 32.5t-13 32.5zM142 531l1 6q-1 1 -1 6q0 18 5 28q15 32 32 48.5t26.5 18.5t25.5 2h3l26 -5l11 -5l31 -21l23 -24l4 -11v3q2 -8 5 -11h3 q12 4 15 7l38 45q9 10 17 16.5t14 8t10 1.5t7.5 -1t4.5 -1l3 1q3 0 11 -2h3l9 -5l6 -19q-2 -5 -6 -11v-2q-5 -11 -19 -28q-5 -10 -17 -33l1 -6l-14 -22l-12 -10q-1 -1 -4.5 -3.5t-6.5 -4.5t-5 -4q-15 -7 -46 -7h-1q-45 3 -91 34l-4 2q-2 2 -6 4l-1 1q-8 3 -10 4l-1 -2v-4 q-8 -30 -37 -30q-6 0 -10 1h-2l-9 2h-6q-10 3 -14.5 9t-11.5 24z" />
<glyph unicode="&#xf2;" horiz-adv-x="472" d="M-10 56q0 41 11 56q2 3 10.5 9t8.5 9q0 2 -4 18q0 7 4 13t11 13t10 11q6 8 21 34t26 39q23 27 71 75q4 4 15.5 16t20 20.5t19.5 18.5t20.5 15t17.5 5q2 0 6 -1t7 -1q6 0 14.5 12.5t19.5 12.5q47 -21 87 -36q21 0 37 -10.5t24.5 -24.5t14 -37t7.5 -39t3 -39q0 -36 -5 -61 q-2 -10 -9.5 -27.5t-9.5 -26.5q-11 -46 -41.5 -78.5t-80.5 -61.5q-3 -2 -22.5 -14t-26.5 -16t-20.5 -10.5t-23.5 -9.5q-25 -7 -38 -16q-32 -22 -79 -22q-23 0 -46.5 18t-32.5 21q-10 3 -17 8.5t-11.5 15t-6.5 15.5t-4.5 19t-3.5 18l-1 12v4q0 4 1 4h1q-5 8 -5 19zM103 39 q0 -10 19 -10q18 0 39.5 7.5t34.5 14.5t35 21q2 2 18.5 7t20.5 13l23 42q9 17 17 55t12 49q2 8 5 11q-3 1 -4.5 4.5t-1.5 10v7.5q1 1 1 4q0 2 -1 5t-2.5 6t-1.5 4l-6 -2q-51 -35 -111 -98q-21 -22 -31.5 -34t-29 -35.5t-27.5 -43.5t-9 -38zM179 626q0 21 12 29t39 8 q18 0 45 -24l67 -59q2 -2 20.5 -17t26 -22t20 -18.5t18 -19.5t5.5 -13q0 -11 -7.5 -18.5t-15.5 -10t-16 -2.5q-22 0 -53 14.5t-57 34.5q-7 6 -18 14t-20 14.5t-19.5 14.5t-18.5 16.5t-14.5 17.5t-10 19.5t-3.5 21.5z" />
<glyph unicode="&#xf3;" horiz-adv-x="472" d="M-10 56q0 41 11 56q2 3 10.5 9t8.5 9q0 2 -4 18q0 7 4 13t11 13t10 11q6 8 21 34t26 39q23 27 71 75q4 4 15.5 16t20 20.5t19.5 18.5t20.5 15t17.5 5q2 0 6 -1t7 -1q6 0 14.5 12.5t19.5 12.5q47 -21 87 -36q21 0 37 -10.5t24.5 -24.5t14 -37t7.5 -39t3 -39q0 -36 -5 -61 q-2 -10 -9.5 -27.5t-9.5 -26.5q-11 -46 -41.5 -78.5t-80.5 -61.5q-3 -2 -22.5 -14t-26.5 -16t-20.5 -10.5t-23.5 -9.5q-25 -7 -38 -16q-32 -22 -79 -22q-23 0 -46.5 18t-32.5 21q-10 3 -17 8.5t-11.5 15t-6.5 15.5t-4.5 19t-3.5 18l-1 12v4q0 4 1 4h1q-5 8 -5 19zM103 39 q0 -10 19 -10q18 0 39.5 7.5t34.5 14.5t35 21q2 2 18.5 7t20.5 13l23 42q9 17 17 55t12 49q2 8 5 11q-3 1 -4.5 4.5t-1.5 10v7.5q1 1 1 4q0 2 -1 5t-2.5 6t-1.5 4l-6 -2q-51 -35 -111 -98q-21 -22 -31.5 -34t-29 -35.5t-27.5 -43.5t-9 -38zM212 505q0 12 13 29t34.5 34.5 t47 33t54 25t51.5 9.5q3 0 9 -1.5t12 -5.5t6 -10q-1 -4 -6 -12q1 0 2 1q-2 -7 -3 -8v4q-1 -2 -2 -6t-3 -7t-5 -4q-2 0 -2 -3q0 -4 4.5 -8t4.5 -5q0 -2 -8 -14t-23.5 -29t-34 -33t-43.5 -27.5t-49 -11.5q0 -2 -14.5 -0.5t-29.5 13.5t-15 36z" />
<glyph unicode="&#xf4;" horiz-adv-x="472" d="M-10 56q0 41 11 56q2 3 10.5 9t8.5 9q0 2 -4 18q0 7 4 13t11 13t10 11q6 8 21 34t26 39q23 27 71 75q4 4 15.5 16t20 20.5t19.5 18.5t20.5 15t17.5 5q2 0 6 -1t7 -1q6 0 14.5 12.5t19.5 12.5q47 -21 87 -36q21 0 37 -10.5t24.5 -24.5t14 -37t7.5 -39t3 -39q0 -36 -5 -61 q-2 -10 -9.5 -27.5t-9.5 -26.5q-11 -46 -41.5 -78.5t-80.5 -61.5q-3 -2 -22.5 -14t-26.5 -16t-20.5 -10.5t-23.5 -9.5q-25 -7 -38 -16q-32 -22 -79 -22q-23 0 -46.5 18t-32.5 21q-10 3 -17 8.5t-11.5 15t-6.5 15.5t-4.5 19t-3.5 18l-1 12v4q0 4 1 4h1q-5 8 -5 19zM103 39 q0 -10 19 -10q18 0 39.5 7.5t34.5 14.5t35 21q2 2 18.5 7t20.5 13l23 42q9 17 17 55t12 49q2 8 5 11q-3 1 -4.5 4.5t-1.5 10v7.5q1 1 1 4q0 2 -1 5t-2.5 6t-1.5 4l-6 -2q-51 -35 -111 -98q-21 -22 -31.5 -34t-29 -35.5t-27.5 -43.5t-9 -38zM137 478q0 10 12 31.5t31.5 46.5 t41 48t42 38.5t32.5 15.5t22 -7q28 -19 46 -43t35.5 -57t29.5 -50q2 -10 2 -13q0 -13 -9 -24t-22 -11q-17 0 -34 19t-34 48.5t-25 38.5q-8 -9 -21.5 -26t-26 -31.5t-26.5 -28.5q-1 -1 -4.5 -6.5t-6 -9t-8 -9t-10 -8.5t-11 -5.5t-13.5 -2.5q-15 0 -29 14.5t-14 31.5z" />
<glyph unicode="&#xf5;" horiz-adv-x="472" d="M-10 56q0 41 11 56q2 3 10.5 9t8.5 9q0 2 -4 18q0 7 4 13t11 13t10 11q6 8 21 34t26 39q23 27 71 75q4 4 15.5 16t20 20.5t19.5 18.5t20.5 15t17.5 5q2 0 6 -1t7 -1q6 0 14.5 12.5t19.5 12.5q47 -21 87 -36q21 0 37 -10.5t24.5 -24.5t14 -37t7.5 -39t3 -39q0 -36 -5 -61 q-2 -10 -9.5 -27.5t-9.5 -26.5q-11 -46 -41.5 -78.5t-80.5 -61.5q-3 -2 -22.5 -14t-26.5 -16t-20.5 -10.5t-23.5 -9.5q-25 -7 -38 -16q-32 -22 -79 -22q-23 0 -46.5 18t-32.5 21q-10 3 -17 8.5t-11.5 15t-6.5 15.5t-4.5 19t-3.5 18l-1 12v4q0 4 1 4h1q-5 8 -5 19zM103 39 q0 -10 19 -10q18 0 39.5 7.5t34.5 14.5t35 21q2 2 18.5 7t20.5 13l23 42q9 17 17 55t12 49q2 8 5 11q-3 1 -4.5 4.5t-1.5 10v7.5q1 1 1 4q0 2 -1 5t-2.5 6t-1.5 4l-6 -2q-51 -35 -111 -98q-21 -22 -31.5 -34t-29 -35.5t-27.5 -43.5t-9 -38zM163 513l1 6q-1 1 -1 6q0 18 5 28 q11 24 22.5 39.5t23.5 21t19 7t19 1.5h3l26 -5l11 -5l31 -21l23 -24l4 -11v3q2 -8 5 -11h3q12 4 15 7l38 45q9 10 17 16.5t14 8t10 1.5t7.5 -1t4.5 -1l3 1q3 0 11 -2h3l9 -5l6 -19q-2 -5 -6 -11v-2q-5 -11 -19 -28q-5 -10 -17 -33l1 -6l-14 -22l-12 -10q-1 -1 -4.5 -3.5 t-6.5 -4.5t-5 -4q-15 -7 -46 -7h-1q-45 3 -91 34l-4 2q-2 2 -6 4l-1 1q-8 3 -10 4l-0.5 -2t-0.5 -4q-4 -15 -14.5 -22.5t-22.5 -7.5q-6 0 -10 1h-2l-9 2h-6q-10 3 -14.5 9t-11.5 24z" />
<glyph unicode="&#xf6;" horiz-adv-x="472" d="M-10 56q0 41 11 56q2 3 10.5 9t8.5 9q0 2 -4 18q0 7 4 13t11 13t10 11q6 8 21 34t26 39q23 27 71 75q4 4 15.5 16t20 20.5t19.5 18.5t20.5 15t17.5 5q2 0 6 -1t7 -1q6 0 14.5 12.5t19.5 12.5q47 -21 87 -36q21 0 37 -10.5t24.5 -24.5t14 -37t7.5 -39t3 -39q0 -36 -5 -61 q-2 -10 -9.5 -27.5t-9.5 -26.5q-11 -46 -41.5 -78.5t-80.5 -61.5q-3 -2 -22.5 -14t-26.5 -16t-20.5 -10.5t-23.5 -9.5q-25 -7 -38 -16q-32 -22 -79 -22q-23 0 -46.5 18t-32.5 21q-10 3 -17 8.5t-11.5 15t-6.5 15.5t-4.5 19t-3.5 18l-1 12v4q0 4 1 4h1q-5 8 -5 19zM103 39 q0 -10 19 -10q18 0 39.5 7.5t34.5 14.5t35 21q2 2 18.5 7t20.5 13l23 42q9 17 17 55t12 49q2 8 5 11q-3 1 -4.5 4.5t-1.5 10v7.5q1 1 1 4q0 2 -1 5t-2.5 6t-1.5 4l-6 -2q-51 -35 -111 -98q-21 -22 -31.5 -34t-29 -35.5t-27.5 -43.5t-9 -38zM176 530q0 26 16 47t41 21 q7 0 13.5 -3t12.5 -7t12 -6q20 -8 34.5 -32t14.5 -45q0 -51 -58 -51q-21 0 -53.5 21t-32.5 55zM341 534q0 9 5 22.5t18 26t29 12.5l18 -5h6q10 0 21 -11t18.5 -24t12.5 -25q2 -14 2 -17q0 -19 -13 -34.5t-35 -15.5q-33 0 -57.5 21t-24.5 50z" />
<glyph unicode="&#xf7;" horiz-adv-x="0" />
<glyph unicode="&#xf8;" horiz-adv-x="549" d="M37 187q0 20 11 55.5t12 44.5q4 16 11.5 31t19 33.5t16.5 28.5q48 84 98 117l-1 -1q65 41 119 44q11 0 26 -13t19 -13q2 0 6.5 3l10.5 7l9 6q11 7 20.5 26t21.5 32.5t33 13.5q18 0 29 -17.5t11 -41.5q0 -21 -15 -46t-15 -32l2 -18q-1 -2 -1 -8q0 -4 4 -7q9 -5 19.5 -25 t17.5 -26q12 -26 23 -79q1 -7 4 -19t5 -22t3 -19q0 -34 -26 -122q-11 -30 -38 -57q-24 -33 -73 -60q-5 -3 -19 -12t-20 -12.5t-18 -9t-23 -7.5t-24 -2q-12 0 -34 -5t-33 -5q-6 0 -16 2.5t-12 2.5q-7 0 -17 -22q-22 -71 -45 -71q-31 0 -31 34l5 59v12q0 4 2.5 11t2.5 9t-2 4 q-98 62 -98 196zM139 145q0 -50 33 -71l50 125q63 126 108 221l-6 -1l-22 2q-15 0 -27 -8t-25 -25t-15 -19q-11 -12 -21 -28t-16 -28.5t-14.5 -32t-14.5 -30.5q-30 -55 -30 -105zM260 51q6 2 33 5.5t43 12.5q41 22 62 51t35 75q1 2 3 5.5t3 6t1 5.5v3q5 28 5 45q0 50 -34 97 l-50 -95q-5 -11 -23 -39t-24 -44q-7 -19 -26.5 -61.5t-27.5 -66.5z" />
<glyph unicode="&#xf9;" horiz-adv-x="385" d="M-23 45q0 40 0.5 55.5t8.5 44t24 50.5q7 10 14.5 31.5t15.5 31.5q-1 -1 -2 -1h-1q7 22 27 53q6 9 17 39.5t24 50.5t29 20q12 0 25.5 -19t13.5 -39q0 -10 -5 -26.5t-5 -24.5l5 -32q0 -14 -17 -52.5t-20 -49.5q-4 -12 -15.5 -35.5t-19 -43t-7.5 -35.5q0 -5 3.5 -8t6.5 -3 q1 1 4 2q19 9 32.5 19t23 24t14 22.5t12 27.5t10.5 27q2 6 12 32t15.5 39.5t15.5 32.5t19 28t18 9q11 0 28 -13.5t24 -15.5l-2 -1q-1 -1 -3 -1h21q8 0 12.5 -22t4.5 -31q0 -18 -18 -113q32 14 39 14q2 0 5.5 -2t8 -4.5t7.5 -3.5q5 -15 5 -29q0 -33 -21.5 -49.5t-41.5 -16.5 q-18 0 -50 10q-5 1 -10.5 5.5t-8 8.5t-7 11t-6.5 9q-7 -10 -29 -47.5t-38 -55.5q-5 -5 -11 -9t-11 -6t-14 -4.5t-13 -4.5q-30 -14 -43 -14q-36 0 -52 15q-4 3 -26 30l-11 11l-14 14t-11 12.5t-9.5 16.5t-2.5 16zM101 598q0 21 12 29t39 8q18 0 45 -24l67 -59q2 -2 20.5 -17 t26 -22t20 -18.5t18 -19.5t5.5 -13q0 -16 -13 -23.5t-26 -7.5q-47 0 -110 49q-6 5 -31.5 23.5t-37 28.5t-23.5 28.5t-12 37.5z" />
<glyph unicode="&#xfa;" horiz-adv-x="385" d="M-23 45q0 40 0.5 55.5t8.5 44t24 50.5q7 10 14.5 31.5t15.5 31.5q-1 -1 -2 -1h-1q7 22 27 53q6 9 17 39.5t24 50.5t29 20q12 0 25.5 -19t13.5 -39q0 -10 -5 -26.5t-5 -24.5l5 -32q0 -14 -17 -52.5t-20 -49.5q-4 -12 -15.5 -35.5t-19 -43t-7.5 -35.5q0 -5 3.5 -8t6.5 -3 q1 1 4 2q19 9 32.5 19t23 24t14 22.5t12 27.5t10.5 27q2 6 12 32t15.5 39.5t15.5 32.5t19 28t18 9q11 0 28 -13.5t24 -15.5l-2 -1q-1 -1 -3 -1h21q8 0 12.5 -22t4.5 -31q0 -18 -18 -113q32 14 39 14q2 0 5.5 -2t8 -4.5t7.5 -3.5q5 -15 5 -29q0 -33 -21.5 -49.5t-41.5 -16.5 q-18 0 -50 10q-5 1 -10.5 5.5t-8 8.5t-7 11t-6.5 9q-7 -10 -29 -47.5t-38 -55.5q-5 -5 -11 -9t-11 -6t-14 -4.5t-13 -4.5q-30 -14 -43 -14q-36 0 -52 15q-4 3 -26 30l-11 11l-14 14t-11 12.5t-9.5 16.5t-2.5 16zM175 505q0 32 71.5 81.5t128.5 49.5q3 0 9 -1.5t12 -5.5 t6 -10q0 -3 -3 -7t-3 -5q1 0 2 1q-2 -7 -3 -8v4q-1 -2 -2 -6t-3 -7t-5 -4q-2 0 -2 -3q0 -4 4.5 -8t4.5 -5q0 -2 -8 -14t-23.5 -29t-34 -33t-43.5 -27.5t-49 -11.5q0 -2 -14.5 -0.5t-29.5 13.5t-15 36z" />
<glyph unicode="&#xfb;" horiz-adv-x="385" d="M-23 45q0 40 0.5 55.5t8.5 44t24 50.5q7 10 14.5 31.5t15.5 31.5q-1 -1 -2 -1h-1q7 22 27 53q6 9 17 39.5t24 50.5t29 20q12 0 25.5 -19t13.5 -39q0 -10 -5 -26.5t-5 -24.5l5 -32q0 -14 -17 -52.5t-20 -49.5q-4 -12 -15.5 -35.5t-19 -43t-7.5 -35.5q0 -5 3.5 -8t6.5 -3 q1 1 4 2q19 9 32.5 19t23 24t14 22.5t12 27.5t10.5 27q2 6 12 32t15.5 39.5t15.5 32.5t19 28t18 9q11 0 28 -13.5t24 -15.5l-2 -1q-1 -1 -3 -1h21q8 0 12.5 -22t4.5 -31q0 -18 -18 -113q32 14 39 14q2 0 5.5 -2t8 -4.5t7.5 -3.5q5 -15 5 -29q0 -33 -21.5 -49.5t-41.5 -16.5 q-18 0 -50 10q-5 1 -10.5 5.5t-8 8.5t-7 11t-6.5 9q-7 -10 -29 -47.5t-38 -55.5q-5 -5 -11 -9t-11 -6t-14 -4.5t-13 -4.5q-30 -14 -43 -14q-36 0 -52 15q-4 3 -26 30l-11 11l-14 14t-11 12.5t-9.5 16.5t-2.5 16zM37 478q0 28 64.5 104t94.5 76q12 0 22 -7q28 -19 46 -43 t35.5 -57t29.5 -50q2 -10 2 -13q0 -13 -9 -24t-22 -11q-17 0 -34 19t-34 48.5t-25 38.5q-8 -9 -21.5 -26t-26 -31.5t-26.5 -28.5q-1 -1 -4.5 -6.5t-6 -9t-8 -9t-10 -8.5t-11 -5.5t-13.5 -2.5q-15 0 -29 14.5t-14 31.5z" />
<glyph unicode="&#xfc;" horiz-adv-x="385" d="M-23 45q0 40 0.5 55.5t8.5 44t24 50.5q7 10 14.5 31.5t15.5 31.5q-1 -1 -2 -1h-1q7 22 27 53q6 9 17 39.5t24 50.5t29 20q12 0 25.5 -19t13.5 -39q0 -10 -5 -26.5t-5 -24.5l5 -32q0 -14 -17 -52.5t-20 -49.5q-4 -12 -15.5 -35.5t-19 -43t-7.5 -35.5q0 -5 3.5 -8t6.5 -3 q1 1 4 2q19 9 32.5 19t23 24t14 22.5t12 27.5t10.5 27q2 6 12 32t15.5 39.5t15.5 32.5t19 28t18 9q11 0 28 -13.5t24 -15.5l-2 -1q-1 -1 -3 -1h21q8 0 12.5 -22t4.5 -31q0 -18 -18 -113q32 14 39 14q2 0 5.5 -2t8 -4.5t7.5 -3.5q5 -15 5 -29q0 -33 -21.5 -49.5t-41.5 -16.5 q-18 0 -50 10q-5 1 -10.5 5.5t-8 8.5t-7 11t-6.5 9q-7 -10 -29 -47.5t-38 -55.5q-5 -5 -11 -9t-11 -6t-14 -4.5t-13 -4.5q-30 -14 -43 -14q-36 0 -52 15q-4 3 -26 30l-11 11l-14 14t-11 12.5t-9.5 16.5t-2.5 16zM78 548q0 26 16 47t41 21q10 0 21 -7t17 -9q20 -8 34.5 -32 t14.5 -45q0 -51 -58 -51q-21 0 -53.5 21t-32.5 55zM243 552q0 16 14 38.5t38 22.5l18 -5h6q14 0 29 -20t23 -40q2 -14 2 -17q0 -19 -13 -34.5t-35 -15.5q-33 0 -57.5 21t-24.5 50z" />
<glyph unicode="&#xfd;" horiz-adv-x="479" d="M-11 126l9 35l-1 18q0 9 3 15q4 7 7 11.5t4.5 5.5t2.5 2t1 3q0 27 52 91q42 65 91 65q21 0 37 -15.5t18 -38.5q0 -20 -22 -44t-24 -33q-4 -17 -31.5 -74t-27.5 -74q32 9 89 57q10 6 21.5 21.5t20.5 21.5q24 18 68 81q7 10 12.5 31t10.5 30q14 26 58 26q13 0 58 -21 q9 -15 9 -17q0 -8 -8 -27q-15 -163 -72 -286q-1 -2 -14 -41q-1 -4 -4.5 -11.5t-5.5 -13.5t-2 -10v-7q-2 -20 -36 -92q0 -1 -5.5 -19t-13.5 -38t-20 -38q-5 -6 -14 -6q-4 0 -8 3v-6q0 -6 -3.5 -10.5t-3.5 -5.5v-5q0 -12 -17.5 -20.5t-21.5 -24.5h2q11 0 14 10 q-3 -12 -16.5 -31.5t-13.5 -22.5q0 -2 1 -6q2 -2 2 -4q0 -6 -5 -17.5t-6 -14.5q-3 -19 -9.5 -24t-32.5 -5q-27 0 -44.5 15t-20.5 41q0 18 17 93q0 1 3.5 11t7 20.5t9.5 24.5t11.5 25t12.5 18.5t13 7.5q10 0 36 66t40 113q1 3 5.5 22t9.5 27q2 6 8.5 9.5t6.5 9.5q0 11 -1 14 q0 2 3 6t3 5q-33 -31 -49 -45t-49 -32t-61 -18q-7 0 -8 1q-3 0 -28 19.5t-51.5 54.5t-26.5 68zM217 505q0 32 71.5 81.5t128.5 49.5q3 0 9 -1.5t12 -5.5t6 -10q0 -3 -3 -7t-3 -5q1 0 2 1q-2 -7 -3 -8v4q-1 -2 -2 -6t-3 -7t-5 -4q-2 0 -2 -3q0 -4 4.5 -8t4.5 -5q0 -2 -8 -14 t-23.5 -29t-34 -33t-43.5 -27.5t-49 -11.5q0 -2 -14.5 -0.5t-29.5 13.5t-15 36z" />
<glyph unicode="&#xfe;" horiz-adv-x="392" d="M9 -11q0 144 35 284q2 8 10 39t10.5 41.5t10 38t11.5 40.5t11 37.5t12.5 40.5t13 37t15.5 40l16 38q2 5 9 22t11 25.5t11.5 23.5t14 23.5t15 18t18 13.5t19.5 4q22 0 33.5 -18t11.5 -41q0 -13 -4.5 -29.5t-12 -37.5t-9.5 -30q6 0 17.5 -5.5t13.5 -9.5q10 -20 18 -43.5 t14 -53t9.5 -49t9 -57.5t8.5 -54l-1 -10q0 -4 1.5 -12.5t1.5 -13.5q0 -26 -11 -88q-17 -48 -44.5 -77t-77.5 -29q-19 0 -37.5 6t-29 12t-30.5 20q0 -2 -3 -22t-6.5 -36t-8.5 -24q-10 -17 -16.5 -60t-7.5 -46t-3.5 -19t-6 -28t-12 -23t-21.5 -11q-14 0 -23 10t-12 30.5 t-3.5 34t-0.5 37.5v11zM154 212q0 -9 12.5 -17.5t27.5 -8.5q27 0 36 79v32q0 11 -3 36.5t-3 39.5l1 10q0 8 -8 59q-11 -42 -33 -118t-28 -97q-2 -3 -2 -15z" />
<glyph unicode="&#xff;" horiz-adv-x="392" d="M-11 126l9 35l-1 18q0 9 3 15q4 7 7 11.5t4.5 5.5t2.5 2t1 3q0 27 52 91q42 65 91 65q21 0 37 -15.5t18 -38.5q0 -20 -22 -44t-24 -33q-4 -17 -31.5 -74t-27.5 -74q32 9 89 57q10 6 21.5 21.5t20.5 21.5q24 18 68 81q7 10 12.5 31t10.5 30q14 26 58 26q13 0 58 -21 q9 -15 9 -17q0 -8 -8 -27q-15 -163 -72 -286q-1 -2 -14 -41q-1 -4 -4.5 -11.5t-5.5 -13.5t-2 -10v-7q-2 -20 -36 -92q0 -1 -5.5 -19t-13.5 -38t-20 -38q-5 -6 -14 -6q-4 0 -8 3v-6q0 -6 -3.5 -10.5t-3.5 -5.5v-5q0 -12 -17.5 -20.5t-21.5 -24.5h2q11 0 14 10 q-3 -12 -16.5 -31.5t-13.5 -22.5q0 -2 1 -6q2 -2 2 -4q0 -6 -5 -17.5t-6 -14.5q-3 -19 -9.5 -24t-32.5 -5q-27 0 -44.5 15t-20.5 41q0 18 17 93q0 1 3.5 11t7 20.5t9.5 24.5t11.5 25t12.5 18.5t13 7.5q10 0 36 66t40 113q1 3 5.5 22t9.5 27q2 6 8.5 9.5t6.5 9.5q0 11 -1 14 q0 2 3 6t3 5q-33 -31 -49 -45t-49 -32t-61 -18q-7 0 -8 1q-3 0 -28 19.5t-51.5 54.5t-26.5 68zM128 491l2 13l8 16l18 14l15 3h2q7 -3 17 -7l8 1l-1 -7l10 -4l14 -13l6 -7l14 -33l1 -7v-12l-7 -12l-7 -8l-1 -2l-15 -2l-17 -2l-18 7l-8 4q-5 4 -14.5 10.5t-11.5 8.5l-11 10 l-2 5v13zM292 486l11 34l10 7l10 3l3 5l22 -7l9 2l12 -15l14 -12l9 -24v-27l-13 -14l-5 -3l-10 -3l-26 4l-20 10l-21 19l-1 15z" />
<glyph unicode="&#x152;" horiz-adv-x="812" d="M25 144h1l-1 3v1q0 1 2.5 21t2.5 43v4l11 39q11 34 36 78l4 8q44 74 93 124l5 4l7 7h1q21 20 72 33q1 0 5 2t17.5 6.5t34.5 10.5q4 3 13 3l7 2q2 0 10.5 -1.5t15.5 -1.5l9 -3q3 -2 12.5 -9t16.5 -13q5 -3 11 -11t14.5 -17.5t18.5 -16.5q16 -16 20 -18l17 -18l6 -10l1 2 q16 44 58 74q-1 4 -1 12l7 12q25 17 41 17l13 -1h3q1 0 3 -1t3.5 -1.5t2.5 0.5h2q1 -1 6 -1h2q4 0 23 1.5t34 1.5h37h1q1 -1 4.5 -1.5t8 -0.5h10h11.5h13h12.5h12.5h12h3q2 -1 9 -1q3 1 24 1q27 -2 47.5 -5t32 -6.5t18 -6t10.5 -5.5t5 -3l4 -11v-6l-4 -11q-22 -22 -91 -22 q-4 -4 -15 -8t-12 -5h-4q-8 0 -8 -1l-26 -7l-10 -3h-1q-1 0 -2 1q-7 -4 -35 -4h-4q-1 0 -13 -3t-16 -3q-9 0 -10 1q-7 -4 -55 -40l-2 -1q-2 -1 -4.5 -2.5t-6 -4t-7.5 -6.5t-8.5 -9t-9 -12.5t-8.5 -16t-7.5 -19.5t-6.5 -24h12q4 0 5 1l42 2q8 0 11 -1q3 0 14 0.5t19 0.5h3 q8 -3 36 -3l23 5h3h3q10 0 14.5 -1t9.5 -10.5t5 -28.5l-7 -13l-14 -8l-1 -1l-4 -2l-8 -4q-10 2 -25 -9q-3 0 -4.5 -0.5t-2.5 -2t-5.5 -3.5t-12 -4t-24 -5.5t-38.5 -7.5q-7 -7 -29 -8t-29 -6q-2 -3 -5 -3h-7q-4 0 -14 -7q-1 0 -2 -9t-3 -9l-7 -38q1 -28 9 -36.5t28 -9.5 l14 -14v-2h11q37 0 85 15l37 10q14 -7 17 -10h1q3 -5 3 -11l-1 -5v-2q-4 -20 -5 -20v-1l-1 -2q0 -7 -8 -21v-1q-5 -11 -19 -33h-1q-29 -16 -46 -20.5t-54 -6.5h-1h-3.5t-6.5 -0.5t-6 -0.5q-4 0 -22 3q-4 0 -12 1t-10 1.5t-7.5 1.5t-10.5 3.5t-12.5 6.5t-18.5 11l-4 3 q1 2 -0.5 3t-5 4t-8.5 7.5t-11.5 16t-13.5 26.5q-8 -9 -56 -44q-3 -2 -15 -10.5t-34 -16t-70 -17.5h-3q-5 2 -12.5 -0.5t-9.5 -2.5q-82 0 -157 52l-1 1q-12 8 -18 13.5t-17 19t-24 33.5q-16 37 -27 89zM139 133v-3q0 -8 1 -12.5t6 -14.5t16 -26q22 -29 92 -29l12 1 q25 3 31 4h1l6 1.5t17 6t23.5 12t26.5 22.5t25 35l2 3v-1q1 1 5.5 8t11.5 24t12 35q6 21 6 38q0 54 -19.5 91t-77.5 76q-12 -6 -25 -6q-17 4 -27 -1t-29 -23l-16 -15q-14 -6 -56 -85q-7 -11 -15 -27.5t-18 -46.5t-10 -53q0 -11 -1 -14z" />
<glyph unicode="&#x153;" horiz-adv-x="784" d="M-13 54q0 43 7 53l14 14q2 2 10 8q0 4 -2 12t-2 11q0 9 7 15q8 7 16.5 17.5t12.5 17.5t12.5 21.5t11.5 19.5q17 26 52 61q7 7 23 24t27.5 28.5t26 24.5t26.5 20t20 7l12 -1q6 0 16 12.5t20 12.5q8 0 20 -12q7 -6 28 -11.5t26 -7.5q8 -3 21.5 -7.5t22 -7.5t18.5 -11.5 t17 -22.5q19 23 51 41q7 4 19.5 17t19.5 13q6 0 18 -6.5t32 -13.5t45 -7q38 -4 79.5 -40.5t41.5 -77.5q0 -47 -33.5 -81t-77.5 -48.5t-90 -14.5q-39 0 -62 6q-2 0 -5.5 1.5l-7 3t-5.5 1.5t-9.5 -12t-14 -28.5t-6.5 -27.5q0 -12 4 -20t12.5 -13t15 -7.5t20.5 -6.5q3 -1 4 -1 q6 -1 11.5 -5t12.5 -7t17 -3q43 0 103 33q8 5 26.5 18.5t32.5 21.5t22 8t14.5 -6t6.5 -16q0 -22 -21.5 -49.5t-53 -51.5t-71.5 -40.5t-74 -16.5q-39 0 -80.5 31.5t-72.5 76.5q-47 -35 -134 -78q-5 -3 -20 -7.5t-25 -11.5q-30 -24 -81 -24q-23 0 -48 18.5t-31 20.5 q-10 2 -17.5 8t-12 15t-6.5 17t-4.5 20t-4.5 17l2 -2l-2 16q0 3 3 6q-6 7 -6 15zM-10 20v-1v1zM101 41q3 -12 17 -12q21 0 39.5 7t42 21t32.5 18q3 2 7.5 3.5t8.5 2.5t8 2.5t7 4t5 6.5q4 6 11 18.5t9 16.5q9 18 18.5 58.5t13.5 51.5q0 2 1.5 4.5t1.5 4.5q0 1 -2 8t-2 11l1 8 q0 3 -2.5 9.5t-4.5 6.5q-45 -24 -119 -104q-14 -15 -24 -26t-22.5 -26.5t-20.5 -29.5t-15.5 -31t-10.5 -33zM118 92l1 1q-1 0 -1 -1zM469 189q14 -6 21 -6q4 0 22.5 9.5t41 24t40.5 36.5t18 43q0 3 -2.5 6.5t-6.5 5.5t-7 2q-5 0 -10 -3t-11 -7.5t-9 -6.5q-13 -7 -23.5 -15.5 t-22 -21.5t-17 -20t-18 -24.5t-16.5 -22.5z" />
<glyph unicode="&#x178;" horiz-adv-x="410" d="M32 466q0 17 13.5 33.5t32.5 16.5q4 0 7 -2t4 -2q2 0 5 1l3 1q18 0 59.5 -46.5t67.5 -104.5q4 8 8.5 16t10.5 17t9.5 15t11.5 16t10.5 13.5t12 15t11.5 13.5t13 15t12 14q7 8 34 41.5t47.5 53.5t43.5 34q13 5 19 10q1 1 8 7t12.5 9.5t10.5 3.5q4 0 22 -11v-6 q0 -13 -13 -33q-28 -49 -105 -162t-111 -176q-2 -4 -10 -16.5t-10 -20.5q-16 -110 -23 -146v-11q0 -63 -25 -116q-3 -7 -10.5 -11.5t-13.5 -5.5t-18.5 -2t-16.5 -2q-60 0 -60 115q0 39 14.5 105.5t14.5 98.5q0 5 -4.5 11.5t-14 18t-12.5 15.5q-70 88 -70 164zM140 777 q0 31 18.5 54t47.5 23q9 0 21.5 -8t17.5 -10q8 -6 14.5 -14.5t11.5 -18.5t7.5 -21.5t2.5 -21.5q0 -17 -19 -38l-3 -3v2q-16 -12 -35 -12q-14 0 -32 8q-10 4 -19.5 10t-16.5 13.5t-11.5 17t-4.5 19.5zM321 787q0 15 16 39.5t40 24.5q2 0 9 -2.5t10 -2.5h4q16 0 31.5 -22 t15.5 -46q0 -29 -14 -43.5t-35 -14.5q-35 0 -55 19l-11 11t-6 9.5t-3 14.5v5q-2 4 -2 8z" />
<glyph unicode="&#x2c6;" horiz-adv-x="389" d="M48 702q2 20 23 47l24 31q32 42 57 67q6 5 15 15q5 2 14.5 9.5t12.5 9.5l6 1q21 0 33 -10l12 -7q4 -4 10 -8.5t10 -8t9 -9t8 -11.5l35 -69q2 -4 5 -8.5t6 -8t4 -6.5l8 -11l3 -9q0 -7 -7 -26q-12 -12 -24 -12q-17 0 -27 7q-10 10 -45 65l-21 32l-1 1l-38 -43 q-11 -14 -34 -41l-8 -9q-10 -7 -10 -14l-8 -10q-16 -10 -27 -10h-2q-17 3 -25.5 11t-16.5 30z" />
<glyph unicode="&#x2dc;" horiz-adv-x="435" d="M69 736q0 30 24.5 64t63.5 34q25 0 58.5 -20t41.5 -46v3q5 -11 9 -11q9 0 16 10q11 12 25.5 28.5t20 22t16.5 10.5t25 5q17 0 22 -3.5t11 -19.5v-2q0 -6 -6 -17t-18.5 -30.5t-16.5 -26.5q0 -5 1 -6q-26 -51 -88 -51q-15 1 -32 6t-26 9.5t-29 15.5t-26 14q-9 -36 -41 -36 q-21 0 -36 11.5t-15 35.5z" />
<glyph unicode="&#x2000;" horiz-adv-x="441" />
<glyph unicode="&#x2001;" horiz-adv-x="882" />
<glyph unicode="&#x2002;" horiz-adv-x="441" />
<glyph unicode="&#x2003;" horiz-adv-x="882" />
<glyph unicode="&#x2004;" horiz-adv-x="294" />
<glyph unicode="&#x2005;" horiz-adv-x="220" />
<glyph unicode="&#x2006;" horiz-adv-x="147" />
<glyph unicode="&#x2007;" horiz-adv-x="147" />
<glyph unicode="&#x2008;" horiz-adv-x="110" />
<glyph unicode="&#x2009;" horiz-adv-x="176" />
<glyph unicode="&#x200a;" horiz-adv-x="49" />
<glyph unicode="&#x2010;" horiz-adv-x="415" d="M26 185q0 5 1 6q8 16 19 24.5t17 10.5t25.5 3.5t24.5 2.5q111 16 222 16q31 0 47 -10q8 -10 8 -17q0 -5 -4 -9t-11 -7.5t-10 -5.5q1 1 -1 0l-2 -2q-52 -48 -96 -49h-4l-1 1q-2 0 -3 -1q-52 -27 -98 -27h-19q-12 0 -17 -1l-36 4q-3 0 -11 -1.5t-13 -1.5q-13 0 -25 16 t-12 29v6z" />
<glyph unicode="&#x2011;" horiz-adv-x="415" d="M26 185q0 5 1 6q8 16 19 24.5t17 10.5t25.5 3.5t24.5 2.5q111 16 222 16q31 0 47 -10q8 -10 8 -17q0 -5 -4 -9t-11 -7.5t-10 -5.5q1 1 -1 0l-2 -2q-52 -48 -96 -49h-4l-1 1q-2 0 -3 -1q-52 -27 -98 -27h-19q-12 0 -17 -1l-36 4q-3 0 -11 -1.5t-13 -1.5q-13 0 -25 16 t-12 29v6z" />
<glyph unicode="&#x2012;" horiz-adv-x="415" d="M26 185q0 5 1 6q8 16 19 24.5t17 10.5t25.5 3.5t24.5 2.5q111 16 222 16q31 0 47 -10q8 -10 8 -17q0 -5 -4 -9t-11 -7.5t-10 -5.5q1 1 -1 0l-2 -2q-52 -48 -96 -49h-4l-1 1q-2 0 -3 -1q-52 -27 -98 -27h-19q-12 0 -17 -1l-36 4q-3 0 -11 -1.5t-13 -1.5q-13 0 -25 16 t-12 29v6z" />
<glyph unicode="&#x2013;" horiz-adv-x="525" d="M26 160q4 40 15.5 52.5t47.5 16.5q158 24 311 24h58q23 0 35 -9q8 -8 8 -15q0 -3 -6 -10t-10 -8q-10 -3 -33 -21.5t-41 -23.5q-11 -3 -32.5 -14.5t-36.5 -15.5q-94 -27 -167 -27h-47q-7 0 -46 13q-14 -2 -15 -2q-10 0 -25.5 14t-15.5 26z" />
<glyph unicode="&#x2014;" horiz-adv-x="1080" d="M25 166q0 23 23 49q7 10 67 21.5t99 11.5h14q38 0 88 8q62 10 169 10q4 0 18 -2q96 3 192 3q148 0 282 -7q55 0 75 -20l2 -8q0 -22 -41 -30l-12 -6q-12 -5 -19 -5h-9q-10 0 -19.5 -7.5t-22.5 -7.5h-15l-53 -10q-4 0 -9 0.5t-7 0.5l-5 -3q-53 0 -206 -9q-11 0 -39 -5 t-43 -5h-15q-13 0 -35 -5t-29 -5h-9q-14 0 -58 -7q-16 -2 -45 -7t-43 -6q-28 -3 -139 -3q-17 0 -45.5 3.5t-37.5 3.5q-13 -8 -20 -8q-19 0 -36 16t-17 39z" />
<glyph unicode="&#x2018;" horiz-adv-x="258" d="M81 501q0 71 82 143q2 2 12 10.5t12.5 10.5t11.5 9t14.5 9t14 6t17 5t18.5 1q48 0 48 -38q0 -25 -11.5 -40.5t-35.5 -33.5t-39 -37q24 -6 24 -35q0 -35 -41.5 -63.5t-69.5 -28.5q-26 0 -41.5 25t-15.5 57z" />
<glyph unicode="&#x2019;" horiz-adv-x="169" d="M88 449q0 3 15 26.5t30.5 55t15.5 52.5q0 4 -10.5 15.5t-10.5 20.5q0 28 32 51l2 1q23 12 40 12q24 0 38.5 -14t18.5 -26.5t10 -38.5q0 -4 0.5 -9.5t0.5 -7.5q-2 -46 -37 -93q-6 -7 -19 -17t-17 -14q-42 -39 -71 -39l-9 1h-4q-8 0 -16.5 8t-8.5 16z" />
<glyph unicode="&#x201a;" horiz-adv-x="419" d="M-7 -44q0 8 7 35t8 35q7 22 19.5 67.5t17.5 62.5q4 18 15.5 54.5t40 106t61.5 130.5q22 43 48 84q1 1 7.5 11.5t10 16t11 15.5t13 15t13 9.5t13.5 4.5q15 0 24.5 -14.5t9.5 -35.5q0 -23 -13 -47q-11 -19 -22.5 -43t-18.5 -41t-19 -46.5t-18 -43.5q48 24 68 24 q23 0 41.5 -14t18.5 -39q0 -24 -11 -40t-22 -22q-59 -45 -130 -84q123 -72 175 -108l66 -50q1 -1 7.5 -5.5t8 -5.5t7 -5.5t7.5 -6.5t6 -6.5t5.5 -8t3 -8t2.5 -9.5q-2 -2 -2 -5l2 -9l-3.5 -4t-8.5 -8.5t-9 -4.5q-17 -1 -86 30q-171 78 -239 124q-4 -9 -9 -26t-8 -26 q-3 -7 -7 -38.5t-17 -48.5q-1 -2 -7 -3t-8 -4q-5 -7 -10 -10.5t-8.5 -4t-12.5 -0.5q-17 0 -32.5 16.5t-15.5 33.5zM474 -70z" />
<glyph unicode="&#x201c;" horiz-adv-x="433" d="M94 476q0 42 21 77q20 41 63.5 83t83.5 42q19 0 28 -10.5t9 -23.5q0 -19 -9 -26q-10 -7 -18.5 -15t-20 -22t-14.5 -17q-5 -5 -19.5 -23.5t-14.5 -22.5q0 -3 7.5 -15t7.5 -19q0 -30 -27.5 -46.5t-56.5 -16.5q-40 0 -40 55zM260 502q0 69 87 146q19 17 28 24t27.5 15 t38.5 8q21 0 31 -7t17 -22q1 -3 1 -12q0 -23 -14 -40.5t-37.5 -36t-33.5 -31.5q25 -7 25 -36q-1 -14 -13 -30.5t-25 -25.5q-1 0 -13.5 -11.5t-27.5 -17.5t-36 -6q-25 0 -40 27.5t-15 55.5z" />
<glyph unicode="&#x201d;" horiz-adv-x="332" d="M12 441q0 14 17 38t19 30q3 7 9.5 21.5t11 25.5t4.5 16q0 9 -16 9q-24 0 -24 29q0 60 62 60t84 -33q17 -25 17 -75q0 -25 -20 -60t-50 -46l-19 4l10 -6h-7.5t-8.5 -2q-2 -1 -10.5 -7.5t-18.5 -8.5q-3 -1 -15.5 -9t-25.5 -8q-3 0 -11 9.5t-8 12.5zM194 443q22 87 30 145 q0 1 -6.5 5.5t-13 13.5t-6.5 22q0 14 10 28v-2q4 13 18.5 22.5t26 13t14.5 3.5q5 0 21 -2q40 -9 58 -82q1 -3 1 -15q0 -36 -33 -102q-4 -7 -22.5 -27.5t-33.5 -30.5t-32 -12l-6 2q-3 -1 -10 -1q-3 0 -9.5 7t-6.5 12z" />
<glyph unicode="&#x201e;" horiz-adv-x="421" d="M55 -122q5 21 19 42.5t16 26.5q22 56 28 67q0 2 -11 3.5t-21.5 9.5t-10.5 24q0 26 17.5 42.5t43.5 16.5q10 0 34 -2q35 -2 52 -31.5t17 -66.5q0 -26 -11 -53q-4 -10 -11.5 -21.5t-22.5 -25.5t-29 -14h-7q0 -1 2 -3q-11 -2 -24 -9.5t-19 -8.5q-5 -1 -17 -8.5t-26 -7.5 q-19 10 -19 19zM241 -116l16 56q6 22 15 87q-27 13 -27 39q0 9 9 29v-4q4 16 17 21l11 5q16 16 35 16q60 0 77 -85l1 -12q-2 -66 -35 -104l-12 -13q-10 -17 -31 -32q-2 -1 -12.5 -12t-16.5 -11l-15 -2l-6 2q-3 -1 -10 -1q-3 0 -9.5 8t-6.5 13z" />
<glyph unicode="&#x2022;" horiz-adv-x="350" d="M55 294l4 8l2 14l5 8l10 35l-4 19l12 18l7 1l13 22l23 19l17 2l37 -18l7 9l15 3l14 -15l14 -9l4 -9l9 1l9 -9l13 -30l4 2l6 -2l9 -8l3 -9l15 -23l3 -11l-2 -8l3 -12l-3 -6l7 -29l-3 -26l3 -12l-6 -4l1 -5l-7 -16l-19 -12l-20 -7l-9 -17l-15 -8l-25 3l-11 1l-36 16l-38 30 l-11 17l-6 1l-12 17l-4 7l-2 12l-30 21z" />
<glyph unicode="&#x2026;" horiz-adv-x="740" d="M12 58q0 23 12 31q0 1 -1 2l-1 3q0 -1 1 1q1 1 2 3q19 41 50 41q4 0 13 -4.5t12 -4.5t13 6q2 0 3.5 -1t2.5 -2l2.5 -2.5l2.5 -2.5q22 0 38 -29q0 -1 6 -4t13 -8.5t9 -12.5q7 -40 7 -49q0 -14 -6 -23q-34 -34 -56 -34q-23 0 -53 14.5t-37 39.5v-9q-5 2 -19 19.5t-14 25.5z M22 95v-1v1zM222 57l11 33l-1 5l1.5 4t5 11t9 13.5t15 11t20.5 4.5q2 0 10 -2l19 -8q3 5 4 5.5t7 1.5l6 -2.5t16 -7.5t16 -10q9 -12 12 -18q10 0 20 -11q9 -11 9 -26l-2 -7q0 -4 3 -11.5t3 -20.5q0 -6 -4 -14l-5 -10q0 1 -6.5 -5.5t-20 -14.5t-26.5 -8q-29 0 -55 15t-37 37 q1 -2 1 -8q-2 5 -16.5 16.5t-14.5 26.5zM323 136zM427 56q0 4 6 14l-1 2q0 11 9 17q0 2 -1 5.5l-1 3.5l1 1l7 13q3 4 6 4l13 12t24 12l27 -10q2 0 6.5 3t8.5 3q-3 0 2 -2q24 -11 24 -14v-2q0 8 12 -6l10 -14q8 -3 12 -7q11 -6 16 -19q5 -22 5 -38l-1 -14v-2q0 -14 -21 -31.5 t-40 -17.5q-26 0 -51.5 14.5t-39.5 36.5q1 -1 1 -6q-5 7 -6 11q-1 2 -14.5 10.5t-13.5 20.5z" />
<glyph unicode="&#x202f;" horiz-adv-x="176" />
<glyph unicode="&#x2039;" horiz-adv-x="384" d="M7 167q0 30 9 55.5t31.5 48.5t37 35.5t49 36t43.5 30.5q11 8 32.5 22.5t29.5 20.5q6 4 29 20.5t39 24t31 7.5q18 0 30 -8t17.5 -17t8.5 -10q4 -9 4 -20q0 -18 -31.5 -40.5t-37.5 -33.5q-7 -15 -53 -44.5t-58 -52.5q-1 -4 -35 -33.5t-34 -33.5q0 -3 4 -7q14 -18 31.5 -33 t48.5 -37t38 -27q25 -20 47.5 -45t22.5 -37t-33 -31h1.5h1.5q-21 -12 -34 -12l-45 16l-8 3q-49 16 -59 26v-1q-43 22 -70 45q-88 68 -88 132zM311 -42l1 1q-1 0 -1 -1z" />
<glyph unicode="&#x203a;" horiz-adv-x="455" d="M12 -27q0 60 30 82q43 31 130.5 65t120.5 56l-36 28q-33 24 -72.5 75t-39.5 103q0 21 10.5 33.5t36.5 29.5q9 -2 15 -2q2 0 4 -2q16 -15 72 -50l56 -36q30 -22 52 -44q53 -53 53 -95l-1 -9q0 -2 1.5 -8t1.5 -10q0 -14 -6 -44q0 -8 -14.5 -17t-16.5 -19q-1 1 -4 1 q-4 0 -18.5 -11t-19.5 -11q-3 0 -4 4q-24 -18 -35 -26q-4 -2 -29.5 -6t-39.5 -14q-6 -5 -38.5 -9t-37.5 -6q-12 -9 -20 -9l-5 3q-7 0 -26.5 -14t-30.5 -14l-4 4q-1 0 -2 -1t-2.5 -2t-2.5 -1q-58 -30 -73 -30q-5 0 -5 6z" />
<glyph unicode="&#x205f;" horiz-adv-x="220" />
<glyph unicode="&#x20ac;" horiz-adv-x="426" d="M-39 263q0 29 23.5 41.5t53.5 15t32 3.5l65 84q8 15 32 41t32 38q11 16 29 32.5t42 36t36 30.5q8 8 34 14.5t36 6.5q17 0 56 -29q35 -27 45 -104q3 -24 3 -26q0 -19 -14.5 -29.5t-33.5 -10.5q-40 0 -40 44q0 8 2 24q-56 -8 -157 -140l75 2q65 0 65 -25q0 -20 -59 -50 q-1 0 -5.5 -4.5t-11 -9t-15.5 -9.5t-22 -8t-26 -3l-9 2q-2 0 -12 -7t-16 -9q-6 -3 -21 -4.5t-21 -5.5q-29 -63 -29 -112q0 -22 12 -33.5t44 -11.5q44 0 110 22.5t112 52.5q17 13 30 13q5 0 9 -1.5t6.5 -4t4 -6.5t2.5 -7t1.5 -8.5t0.5 -7.5v-8v-5q0 -38 -30 -54 q-63 -34 -96 -50.5t-88 -36t-92 -19.5q-41 0 -72 26q-12 6 -42 63t-30 87q0 60 9 96l-14 -2q-18 0 -32 17.5t-14 48.5z" />
<glyph unicode="&#x2122;" horiz-adv-x="607" d="M47 587q0 29 73 29l46 -3q18 2 92 2l41 -1q16 0 32.5 -9.5t19.5 -10.5q17 0 28 -16.5t14 -33.5t3 -32l-1 -35q24 43 53 91q2 2 5 7q13 22 21.5 34t23 25.5t25.5 13.5q10 0 26 -10q21 -14 21 -56q0 -32 -5 -53q-2 -11 -8.5 -59t-15.5 -70l3 6q0 -9 -4 -29.5t-4 -31.5 q-3 0 -3 -17q3 3 3 8q0 -28 -13 -43q-3 -4 -7 -18.5t-10 -20.5q0 1 1 3t1 3l-13 -13q-23 1 -23 52q0 -2 1 -3l-2 48l1 71q0 19 -2 65q-6 -10 -19.5 -40.5t-26.5 -46t-31 -15.5q-6 0 -17.5 5.5t-14.5 11.5h1q-24 6 -38 41q-7 -18 -17 -65.5t-21 -79t-27 -31.5 q-15 0 -23.5 17.5t-8.5 36.5q0 35 17 110.5t39 124.5l-36 -3l-9 1q-4 0 -9 -15t-11 -40t-11.5 -51t-12 -53t-10.5 -41q-2 -7 -3.5 -23.5t-6 -27t-17.5 -15.5q-5 -5 -12 -5q-24 0 -24 33q0 88 26 206q7 16 7 26q0 5 -9 5h-8q-90 0 -90 41zM495 247h1h-1z" />
<glyph unicode="&#xe000;" horiz-adv-x="430" d="M0 0v430h430v-430h-430z" />
<glyph unicode="&#xfb01;" horiz-adv-x="534" d="M-91 79q0 16 12 36t25 20h10q2 0 3 -1l2 -2q13 5 25 5l7 -1q8 2 24 8.5t24 8.5q86 12 89 29q2 17 15.5 45.5t21.5 40.5l24 77q2 2 8 6.5t9.5 9t3.5 9.5l-2 13q0 7 12 19.5t12 22.5q1 -3 4 -4l-5 21q1 0 10.5 21.5t22.5 48.5t22 36q1 1 3.5 3t4 3t3 3.5t1.5 4.5 q1 15 10.5 33t25 41.5t21.5 34.5q2 4 10.5 20.5t13.5 23t16 13.5t25 7q5 0 13.5 -7t14.5 -7h2q6 0 13 -4q11 -6 32.5 -11t33 -10.5t11.5 -17.5q0 -6 -4 -22t-4 -24l8 -15q0 -1 -2 -3l-1 -3q0 -2 13.5 -17t28.5 -36.5t18 -37.5v-3q0 -21 -27 -48.5t-50 -27.5 q-26 0 -43.5 42.5t-17.5 69.5q0 1 3 15t3 19l-1 2v1q-15 -10 -50 -72q0 -2 1 -3v-1q0 -6 -12.5 -17.5t-12.5 -14.5q0 -16 -8 -25.5t-16.5 -14t-8.5 -9.5q0 -1 1.5 -4.5t1.5 -6.5q0 -8 -14 -23.5t-14 -21.5q0 -1 2.5 -5t2.5 -7q0 -13 -19 -21q-2 -1 -5.5 -9t-8.5 -19.5 t-11 -18.5q-2 -3 -4 -11.5t-6 -12.5l-24 -33q1 -1 6 -1q7 0 13 4t14 11t13 10q46 31 50 45q0 -5 1 -6q3 3 8 9t8.5 9.5t4.5 3.5q33 -28 33 -58v-6q0 -10 20 -17.5t40.5 -18t20.5 -27.5q0 -20 -8 -41t-13.5 -29t-26.5 -38q-20 -73 -56 -146q-2 -3 -8.5 -18.5t-13 -22 t-17.5 -6.5q-24 0 -45 32t-32 67q-2 5 -8.5 17.5t-10 22t-3.5 18.5q0 16 16 47t20 46q-2 6 -2 13q-7 -3 -14 -7t-15.5 -8.5t-13.5 -7.5q-3 -2 -10.5 -5.5t-10.5 -6t-8 -7t-8 -10.5t-5 -15q-2 -7 -8.5 -17.5t-8.5 -18.5q-4 -16 -21 -46t-17 -44l3 -11q0 -16 -20.5 -60.5 t-24.5 -61.5q-5 -18 -8.5 -27.5t-7 -16.5t-5 -9.5t-7 -8.5t-9.5 -11q-10 -12 -16 -27t-11 -21t-17 -6q-26 0 -26 25q0 14 4 25q3 13 8.5 51.5t11.5 58.5l14 53q7 7 12 19q13 22 13 46q0 8 4 19t12 30t14 35q-3 -1 -8.5 -1.5t-9 -1.5t-5.5 -4q-3 -7 -35.5 -23t-49.5 -16 q-6 0 -20 6q-17 11 -26 19q-26 22 -26 31zM232 444q0 -2 1 -2z" />
<glyph unicode="&#xfb02;" horiz-adv-x="682" d="M-91 79q0 16 12 36t25 20h10q2 0 3 -1l2 -2q13 5 25 5l7 -1q8 2 24 8.5t24 8.5q86 12 89 29q2 17 15.5 45.5t21.5 40.5l24 77q2 2 8 6.5t9.5 9t3.5 9.5l-2 13q0 7 12 19.5t12 22.5q1 -3 4 -4l-5 21l-1 3q0 2 1 3.5t3.5 3.5t3.5 4q10 14 23 47.5t23 43.5q1 1 5 3.5t6.5 5 t2.5 4.5q0 17 26 55q4 7 10 19.5t11 23t11.5 22.5t13 21t13.5 17t15.5 12.5t16.5 4.5q12 0 29 -11t24 -18q0 8 -5 11q9 -6 30 -10.5t34.5 -10.5t13.5 -19l-10 -46q0 -2 3.5 -8t3.5 -7q0 -7 -9 -16q-35 -35 -42 -35q-1 0 -18 23q-1 -1 -1 -3q-1 4 -4 4l-16 -13l-7 1 q-3 0 -7.5 -3t-4.5 -6q0 -6 8 -6q7 0 11 4q-1 -1 -11.5 -14t-16.5 -22t-6 -13v-1q1 -1 1 -3q0 -9 -12 -19.5t-13 -19.5q-3 -15 -18 -25.5t-15 -15.5q0 -2 2.5 -5.5t2.5 -7.5q-9 -7 -19.5 -21.5t-10.5 -20.5l4 -9q0 -7 -2.5 -11t-8 -7.5t-8.5 -6.5t-3.5 -9.5t-1.5 -9.5 q-4 -12 -22 -32q0 -9 -4.5 -17.5t-14.5 -20.5t-12 -14q8 -2 9 -2q4 0 14.5 9.5t15.5 11.5q52 29 57 49q0 -5 1 -6q1 1 6 7t9.5 10.5t5.5 4.5q3 0 15 -15t16 -21q3 -11 3 -21q0 -15 -4 -26t-17 -28t-14 -19q-3 -4 -14 -19.5t-18.5 -25.5t-17.5 -19t-18 -9q-10 0 -17.5 13 t-8.5 25q-9 -4 -23.5 -12.5t-18.5 -10.5q-3 -2 -10.5 -5.5t-10.5 -6t-8 -7t-8 -10.5t-5 -15q-2 -7 -8.5 -17.5t-8.5 -18.5q-7 -34 -29 -65q14 -14 14 -18q0 -7 -4.5 -11.5t-11.5 -8t-9 -5.5q-10 -8 -17 -25q53 24 77 36t62 37.5t63 53.5q13 16 22 35.5t18.5 46t15.5 40.5 q1 2 6.5 11t5.5 13l-2 11q0 3 1 4q34 73 55 115t57 101.5t73 104.5q36 43 103 43q40 0 54 -22q2 -18 2 -27q0 -3 1 -21.5t1 -32.5t-3 -32t-9 -29q-7 -12 -52.5 -100.5t-73.5 -126.5q-13 -17 -39 -42.5t-38 -40.5q-24 -28 -72 -63q-19 -14 -19 -29q0 -10 9.5 -29t10.5 -23 q0 -19 38 -19q23 0 53 12t46 12q20 0 33.5 -14.5t13.5 -36.5q0 -8 -8 -12.5t-17 -4.5q-3 0 -10 3t-11 3q-6 0 -8 -1q-15 -3 -67.5 -18t-83.5 -15q-67 0 -95 39q-2 3 -6.5 12.5t-9.5 16t-11 6.5q-4 0 -34 -11l-71 -35.5t-98 -45.5q-4 -1 -5 -2.5t-2 -6.5t-2 -7q-3 -20 -7 -33 t-5.5 -16.5t-10 -11t-9.5 -8.5q-6 -7 -13 -22.5t-14.5 -25t-20.5 -9.5q-10 0 -17 6t-7 17q0 2 3 23q5 21 16 77.5t19 88.5q1 6 13 26.5t12 36.5q0 12 4.5 25.5t12.5 30t12 27.5q-5 -2 -14.5 -8t-16.5 -8q-19 -3 -53 -12q-1 -1 -9 -7t-17 -6q-8 0 -38.5 20t-30.5 35zM436 112 q5 2 17 14l24 29t48 57t25 28q8 1 15.5 8t13 16t12 23t10 24.5t8.5 26t7 20.5q26 40 39 68q5 12 5 21q0 8 -4 17t-11 9q-4 0 -10 -4.5t-15.5 -15.5t-14.5 -17t-17 -21t-12 -16q-20 -26 -40 -63.5t-29.5 -59.5t-29.5 -70q-5 -12 -16 -33t-18 -37t-7 -24zM450 566v1v-1z" />
</font>
</defs>
</svg>
